<svg width="35" height="35" viewBox="0 0 35 35" fill="none" xmlns="http://www.w3.org/2000/svg">
<g clip-path="url(#clip0_123_201)">
<path d="M17.5 35C27.165 35 35 27.165 35 17.5C35 7.83502 27.165 0 17.5 0C7.83502 0 0 7.83502 0 17.5C0 27.165 7.83502 35 17.5 35Z" fill="white"/>
<mask id="mask0_123_201" style="mask-type:alpha" maskUnits="userSpaceOnUse" x="13" y="8" width="9" height="18">
<path d="M13 25.6656V8.48438H21.9997V25.6656H13Z" fill="white"/>
</mask>
<g mask="url(#mask0_123_201)">
<path fill-rule="evenodd" clip-rule="evenodd" d="M13 17.8295V14.7709C13.0205 14.7722 13.0409 14.7745 13.0614 14.7745C13.9053 14.7748 14.7492 14.7747 15.5931 14.7747C15.6687 14.7747 15.6688 14.7746 15.6688 14.6983C15.6689 13.9896 15.6661 13.2808 15.6703 12.5721C15.6718 12.3402 15.6849 12.1079 15.7041 11.8767C15.7311 11.5502 15.8027 11.2315 15.9069 10.9207C16.1216 10.2797 16.4744 9.72986 17.0091 9.30418C17.6866 8.76463 18.4776 8.53648 19.3306 8.49169C19.5868 8.47829 19.8442 8.48701 20.1011 8.48902C20.2847 8.49039 20.4685 8.49306 20.6517 8.50307C20.9902 8.52157 21.3282 8.54491 21.6662 8.56831C21.7759 8.57595 21.8849 8.59021 21.9984 8.60187V8.6633C21.9984 9.52829 21.9979 10.3934 21.9997 11.2584C21.9998 11.3108 21.9841 11.3239 21.9335 11.3239C21.4049 11.3244 20.8761 11.327 20.3474 11.3291C20.3136 11.3292 20.2798 11.3286 20.2461 11.3293C20.0526 11.3329 19.8617 11.356 19.6753 11.4085C19.3758 11.4928 19.1354 11.6523 18.9943 11.938C18.8789 12.1722 18.8425 12.4241 18.8402 12.6791C18.8342 13.358 18.8374 14.0371 18.8372 14.7161C18.8372 14.734 18.8395 14.7519 18.841 14.7754H21.8885C21.7557 15.7965 21.6236 16.8107 21.491 17.83H18.837V17.9085C18.837 20.47 18.837 23.0316 18.8371 25.5933C18.8371 25.6174 18.8392 25.6415 18.8402 25.6656H15.6669C15.6676 25.647 15.6687 25.6284 15.6687 25.6098C15.6689 23.0406 15.6689 20.4715 15.6688 17.9022C15.6688 17.8257 15.6687 17.8257 15.5933 17.8257C14.7494 17.8257 13.9055 17.8256 13.0615 17.8258C13.0409 17.8258 13.0205 17.8282 13 17.8295Z" fill="#EB012A"/>
</g>
</g>
<defs>
<clipPath id="clip0_123_201">
<rect width="35" height="35" fill="white"/>
</clipPath>
</defs>
</svg>
