<svg width="35" height="35" viewBox="0 0 35 35" fill="none" xmlns="http://www.w3.org/2000/svg">
<g clip-path="url(#clip0_123_210)">
<path d="M17.5 35C27.165 35 35 27.165 35 17.5C35 7.83502 27.165 0 17.5 0C7.83502 0 0 7.83502 0 17.5C0 27.165 7.83502 35 17.5 35Z" fill="white"/>
<path d="M13.9213 9C11.2105 9 9.00024 11.2103 9.00024 13.9211V21.0789C9.00024 23.7897 11.2105 26 13.9213 26H21.0792C23.79 26 26.0002 23.7897 26.0002 21.0789V13.9211C26.0002 11.2103 23.79 9 21.0792 9H13.9213ZM13.9213 10.7895H21.0792C22.8296 10.7895 24.2108 12.1707 24.2108 13.9211V21.0789C24.2108 22.8293 22.8296 24.2105 21.0792 24.2105H13.9213C12.1709 24.2105 10.7897 22.8293 10.7897 21.0789V13.9211C10.7897 12.1707 12.1709 10.7895 13.9213 10.7895ZM21.9739 12.1316C21.4798 12.1316 21.0792 12.5322 21.0792 13.0263C21.0792 13.5205 21.4798 13.9211 21.9739 13.9211C22.4681 13.9211 22.8687 13.5205 22.8687 13.0263C22.8687 12.5322 22.4681 12.1316 21.9739 12.1316ZM17.5002 12.8026C14.9165 12.8026 12.8029 14.9163 12.8029 17.5C12.8029 20.0837 14.9165 22.1974 17.5002 22.1974C20.0839 22.1974 22.1976 20.0837 22.1976 17.5C22.1976 14.9163 20.0839 12.8026 17.5002 12.8026ZM17.5002 14.5921C19.1168 14.5921 20.4081 15.8834 20.4081 17.5C20.4081 19.1166 19.1168 20.4079 17.5002 20.4079C15.8837 20.4079 14.5923 19.1166 14.5923 17.5C14.5923 15.8834 15.8837 14.5921 17.5002 14.5921Z" fill="#EB012A"/>
</g>
<defs>
<clipPath id="clip0_123_210">
<rect width="35" height="35" fill="white"/>
</clipPath>
</defs>
</svg>
