<svg width="35" height="35" viewBox="0 0 35 35" fill="none" xmlns="http://www.w3.org/2000/svg">
<g clip-path="url(#clip0_123_239)">
<path d="M17.5 35C27.165 35 35 27.165 35 17.5C35 7.83502 27.165 0 17.5 0C7.83502 0 0 7.83502 0 17.5C0 27.165 7.83502 35 17.5 35Z" fill="white"/>
<path d="M13.7856 14.9463H11.2656V22.533H13.7856V14.9463Z" fill="#EB012A"/>
<path d="M12.5465 11.293C11.6799 11.293 11.1199 11.853 11.1199 12.5996C11.1199 13.3463 11.6665 13.9063 12.5199 13.9063H12.5332C13.4132 13.9063 13.9599 13.3196 13.9599 12.5996C13.9465 11.853 13.4132 11.293 12.5465 11.293Z" fill="#EB012A"/>
<path d="M19.9875 14.7734C18.6408 14.7734 18.0542 15.5068 17.7075 16.0268V14.9468H15.1875C15.2275 15.6534 15.1875 22.5334 15.1875 22.5334H17.7075V18.2934C17.7075 18.0668 17.7208 17.8401 17.7875 17.6801C17.9742 17.2268 18.3875 16.7601 19.0808 16.7601C19.9875 16.7601 20.3608 17.4534 20.3608 18.4801V22.5468H22.8808V18.2001C22.8808 15.8668 21.6408 14.7868 19.9742 14.7868L19.9875 14.7734Z" fill="#EB012A"/>
</g>
<defs>
<clipPath id="clip0_123_239">
<rect width="35" height="35" fill="white"/>
</clipPath>
</defs>
</svg>
