<svg width="35" height="35" viewBox="0 0 35 35" fill="none" xmlns="http://www.w3.org/2000/svg">
<g clip-path="url(#clip0_130_106)">
<path d="M17.5 35C27.165 35 35 27.165 35 17.5C35 7.83502 27.165 0 17.5 0C7.83502 0 0 7.83502 0 17.5C0 27.165 7.83502 35 17.5 35Z" fill="white"/>
<path d="M23.1665 11.833H11.8332C11.054 11.833 10.4236 12.4705 10.4236 13.2497L10.4165 21.7497C10.4165 22.5288 11.054 23.1663 11.8332 23.1663H23.1665C23.9457 23.1663 24.5832 22.5288 24.5832 21.7497V13.2497C24.5832 12.4705 23.9457 11.833 23.1665 11.833ZM22.4582 21.7497H12.5415C12.1519 21.7497 11.8332 21.4309 11.8332 21.0413V14.6663L16.749 17.7405C17.2094 18.0309 17.7903 18.0309 18.2507 17.7405L23.1665 14.6663V21.0413C23.1665 21.4309 22.8478 21.7497 22.4582 21.7497ZM17.4998 16.7913L11.8332 13.2497H23.1665L17.4998 16.7913Z" fill="#EB012A"/>
</g>
<defs>
<clipPath id="clip0_130_106">
<rect width="35" height="35" fill="white"/>
</clipPath>
</defs>
</svg>
