<svg width="430" height="308" viewBox="0 0 430 308" fill="none" xmlns="http://www.w3.org/2000/svg">
<path d="M255.151 139.021C255.151 139.021 253.369 172.265 254.134 180.937C254.899 189.608 257.445 203.187 257.697 206.767C257.949 210.347 260.756 219.804 262.277 225.978C263.798 232.152 274.495 263.571 276.781 269.448C279.066 275.325 279.231 292.606 279.231 292.606C279.231 292.606 269.046 300.788 265.744 302.578C262.442 304.368 260.904 303.6 261.399 305.905C261.894 308.211 279.466 306.158 283.542 306.158C287.618 306.158 293.718 306.927 293.97 304.115C294.222 301.303 290.92 292.353 290.155 288.257C289.39 284.162 289.234 265.099 288.469 253.59C287.704 242.081 287.713 233.907 283.889 224.188C280.066 214.469 276.259 202.96 276.259 202.96L286.453 146.933L255.151 139.021Z" fill="white" stroke="#263238" stroke-linecap="round" stroke-linejoin="round"/>
<path d="M278.519 284.754C278.041 280.703 276.042 272.73 275.19 268.635C273.896 262.452 263.806 232.107 262.277 225.968C260.747 219.83 257.932 210.364 257.697 206.757C257.462 203.151 254.899 189.624 254.134 180.927C253.369 172.23 255.151 139.012 255.151 139.012L286.436 146.941L276.259 202.941C276.259 202.941 280.074 214.45 283.889 224.169C287.704 233.889 287.713 242.071 288.469 253.571C289.06 262.461 289.043 277.358 289.634 283.872C286.068 285.13 282.237 285.434 278.519 284.754Z" fill="#263238" stroke="#263238" stroke-linecap="round" stroke-linejoin="round"/>
<path d="M261.417 305.862C260.904 303.556 262.433 304.325 265.762 302.535C268.291 301.172 274.817 296.073 277.763 293.741C278.682 294.001 279.479 294.58 280.014 295.374C280.55 296.255 280.977 297.2 281.283 298.186L292.458 296.553C293.327 299.679 294.136 302.666 294.005 304.072C293.753 306.883 287.644 306.115 283.577 306.115C279.51 306.115 261.921 308.193 261.417 305.862Z" fill="#666666" stroke="#263238" stroke-linecap="round" stroke-linejoin="round"/>
<path d="M309.865 143.116C309.865 143.116 308.084 159.227 302.235 173.801C296.386 188.376 290.729 209.255 290.729 209.255C290.729 209.255 301.253 221.436 303.547 232.43C305.841 243.424 307.023 263.561 307.319 266.111C307.614 268.661 309.865 277.367 313.402 280.956C316.939 284.545 319.763 285.322 318.243 288.116C316.722 290.911 308.318 301.669 306.789 303.459C305.259 305.249 298.898 306.524 296.1 306.524C293.301 306.524 295.083 306.524 296.352 302.158C297.62 297.792 299.15 285.794 299.15 281.96C299.15 278.127 294.57 263.806 289.486 255.108C284.403 246.411 276.755 222.886 274.47 217.262C272.184 211.639 269.125 207.037 269.125 203.456C269.125 199.876 271.923 165.611 272.436 159.472C272.949 153.333 273.705 146.434 273.705 146.434L310.604 139.78L309.865 143.116Z" fill="white" stroke="#263238" stroke-linecap="round" stroke-linejoin="round"/>
<path d="M296.125 306.515C293.327 306.515 295.109 306.515 296.377 302.149C297.507 298.298 298.837 288.439 299.124 283.566C299.888 282.903 302.765 280.554 304.52 281.436C305.73 282.044 306.779 282.933 307.579 284.029L312.229 279.497C312.59 280.017 312.991 280.507 313.428 280.964C316.991 284.544 319.789 285.33 318.268 288.125C316.748 290.919 308.344 301.677 306.815 303.467C305.285 305.257 298.924 306.515 296.125 306.515Z" fill="#666666" stroke="#263238" stroke-linecap="round" stroke-linejoin="round"/>
<path d="M272.462 159.481C272.966 153.368 273.731 146.443 273.731 146.443L313.176 139.388L314.045 145.5C314.045 145.5 313.393 156.643 307.545 171.226C301.696 185.809 290.738 209.264 290.738 209.264C290.738 209.264 301.262 221.445 303.556 232.44C305.85 243.434 307.032 263.57 307.327 266.12C307.662 268.327 308.206 270.497 308.953 272.6C305.645 274.607 301.934 275.848 298.09 276.232C296.43 270.12 293.101 261.247 289.521 255.126C284.429 246.394 276.79 222.904 274.504 217.28C272.219 211.657 269.16 207.055 269.16 203.474C269.16 199.894 271.949 165.62 272.462 159.481Z" fill="#263238" stroke="#263238" stroke-linecap="round" stroke-linejoin="round"/>
<path d="M284.124 244.438C279.701 233.305 272.957 220.861 270.732 212.347C267.656 200.619 272.471 159.481 272.471 159.481" stroke="#7D7D7D" stroke-linecap="round" stroke-linejoin="round"/>
<path d="M286.897 251.44L285.506 247.947" stroke="#7D7D7D" stroke-linecap="round" stroke-linejoin="round"/>
<path d="M212.916 49.6111C212.916 49.6111 206.503 46.3102 204.921 45.8649C203.339 45.4195 202.427 46.8778 203.044 47.297C203.661 47.7161 204.669 48.4933 204.669 48.4933C204.669 48.4933 201.758 48.406 202.47 49.3666L203.896 51.244C203.896 51.244 201.289 51.7418 201.958 52.9032C202.572 53.7206 203.436 54.3127 204.417 54.5885C204.417 54.5885 201.767 55.3133 202.94 56.3786C204.113 57.444 207.598 57.2519 207.598 57.2519C208.539 59.0746 209.826 60.6944 211.387 62.0197C213.005 63.2117 214.922 63.9282 216.922 64.0893L220.52 67.818L225.335 62.0546L212.916 49.6111Z" fill="white" stroke="#263238" stroke-linecap="round" stroke-linejoin="round"/>
<path d="M159.384 44.6153L164.137 42.3275C171.037 38.9062 176.838 33.6009 180.875 27.0197L185.794 19.2217L186.332 19.309L190.93 20.0512L191.46 20.1386L193.693 29.098C195.48 36.6235 199.341 43.4906 204.834 48.9116L208.684 52.6229C209.769 53.7407 210.572 55.1032 211.025 56.5966C211.479 58.09 211.57 59.6707 211.291 61.2068L185.081 56.9628L180.484 56.2206L154.274 51.9767C154.476 50.428 155.046 48.9508 155.935 47.6697C156.825 46.3886 158.007 45.341 159.384 44.6153ZM181.718 52.7713L184.907 53.2865L206.224 56.7795C206.642 54.1598 202.844 51.0161 201.401 49.4006L198.794 46.5102C194.968 42.0157 192.42 36.5675 191.416 30.7396L190.026 23.5617L189.652 23.5093L186.471 22.9941L186.089 22.9329L182.535 29.3075C179.756 34.5231 175.632 38.8907 170.594 41.952L167.249 43.8818C165.371 44.9559 160.87 46.7373 160.444 49.3744L181.718 52.7713Z" fill="white" stroke="#263238" stroke-linecap="round" stroke-linejoin="round"/>
<path d="M188.696 19.5539L189.687 13.4413C189.687 13.4413 186.61 10.2453 187.219 6.45542C187.827 2.66558 190.982 1.65263 193.997 3.34671" stroke="#263238" stroke-linecap="round" stroke-linejoin="round"/>
<path d="M152.049 79.8942L142.09 77.4666C142.09 77.4666 144.237 58.1595 148.017 51.5578C151.406 45.6373 154.969 42.4762 159.905 40.7297C162.837 39.6953 165.649 38.3456 168.292 36.7041C168.292 36.7041 177.251 45.9778 185.942 47.244C194.128 48.4316 201.827 41.961 201.827 41.961C201.827 41.961 213.881 52.4398 215.558 57.8102C217.235 63.1805 218.521 89.9015 218.521 89.9015L202.149 87.2818L206.816 127.058L206.381 126.979L206.816 128.079C206.816 128.079 201.541 125.46 191.33 126.464C181.118 127.468 169.647 129.276 164.798 128.001C159.949 126.726 144.932 121.015 144.932 121.015L152.049 79.8942Z" fill="#EB012A" stroke="#263238" stroke-linecap="round" stroke-linejoin="round"/>
<path d="M202.149 87.2556L201.028 78.4971" stroke="#263238" stroke-linecap="round" stroke-linejoin="round"/>
<path d="M152.049 79.895L156.056 58.7627" stroke="#263238" stroke-linecap="round" stroke-linejoin="round"/>
<path d="M167.353 40.04C166.674 44.3729 166.331 48.7523 166.328 53.1385" stroke="#263238" stroke-linecap="round" stroke-linejoin="round"/>
<path d="M165.311 40.5557C164.576 42.9805 164.064 45.468 163.781 47.9869" stroke="#263238" stroke-linecap="round" stroke-linejoin="round"/>
<path d="M194.032 69.9395C194.223 70.7516 194.432 71.5549 194.649 72.3408" stroke="#263238" stroke-linecap="round" stroke-linejoin="round"/>
<path d="M190.564 49.5234C190.564 49.5234 191.434 57.7842 193.172 66.3681" stroke="#263238" stroke-linecap="round" stroke-linejoin="round"/>
<path d="M193.372 47.7324C194.4 50.588 195.254 53.5043 195.927 56.4648" stroke="#263238" stroke-linecap="round" stroke-linejoin="round"/>
<path d="M160.835 117.032L167.709 65.7822" stroke="#263238" stroke-linecap="round" stroke-linejoin="round"/>
<path d="M159.783 124.814L160.192 121.818" stroke="#263238" stroke-linecap="round" stroke-linejoin="round"/>
<path d="M177.503 47.043L176.104 72.3406" stroke="#263238" stroke-linecap="round" stroke-linejoin="round"/>
<path d="M225.196 60.4826C225.196 60.4826 220.494 54.859 218.635 53.9683C216.775 53.0776 210.761 51.8987 208.51 50.5627C206.26 49.2266 205.634 49.9339 206.92 51.7852C208.206 53.6364 212.76 55.479 212.76 55.479C212.76 55.479 214.707 59.9063 216.957 61.2423L222.085 64.2899L225.196 60.4826Z" fill="white" stroke="#263238" stroke-linecap="round" stroke-linejoin="round"/>
<path d="M271.046 60.0898C271.046 60.0898 262.077 60.0898 260.756 62.4738C259.435 64.8577 253.639 79.17 251.267 83.1869C248.894 87.2037 248.894 88.2167 248.894 88.2167L224.9 58.7363L216.505 65.923C216.505 65.923 244.453 112.554 246.565 113.348C248.677 114.143 261.591 103.542 263.172 102.747C264.754 101.953 273.462 63.8011 273.462 63.8011C273.462 63.8011 275.521 61.6791 271.046 60.0898Z" fill="#666666" stroke="#263238" stroke-linecap="round" stroke-linejoin="round"/>
<path d="M269.986 64.0624L299.533 56.3779C299.533 56.3779 304.017 81.2826 304.017 92.1805C304.017 103.078 311.534 144.243 311.534 144.243C311.534 144.243 289.252 151.002 276.86 151.002C264.467 151.002 256.559 146.496 256.559 146.496C256.559 146.496 262.642 125.538 262.886 114.186C263.129 102.834 261.565 87.4214 262.886 78.3834C263.684 72.975 266.17 67.9607 269.986 64.0624Z" fill="white" stroke="#263238" stroke-linecap="round" stroke-linejoin="round"/>
<path d="M267.108 100.293L276.337 113.278" stroke="#263238" stroke-linecap="round" stroke-linejoin="round"/>
<path d="M276.686 118.143L277.955 120.003" stroke="#263238" stroke-linecap="round" stroke-linejoin="round"/>
<path d="M269.881 108.178L275.165 115.923" stroke="#263238" stroke-linecap="round" stroke-linejoin="round"/>
<path d="M262.077 70.69C262.077 70.69 261.286 73.6066 260.235 78.3745C259.183 83.1423 259.444 86.3209 259.965 97.7166C260.487 109.112 259.965 112.282 256.272 121.032C252.578 129.782 242.446 152.224 242.446 152.224L251.675 160.703C251.675 160.703 259.965 139.309 263.128 126.062C266.292 112.815 266.04 94.538 267.083 85.5262C268.125 76.5145 276.842 62.2284 276.842 62.2284L278.684 59.0498C276.202 59.7729 273.629 60.1289 271.045 60.1064C268.733 60.0354 266.424 60.3031 264.189 60.9011" fill="#666666"/>
<path d="M262.077 70.69C262.077 70.69 261.286 73.6066 260.235 78.3745C259.183 83.1423 259.444 86.3209 259.965 97.7166C260.487 109.112 259.965 112.282 256.272 121.032C252.578 129.782 242.446 152.224 242.446 152.224L251.675 160.703C251.675 160.703 259.965 139.309 263.128 126.062C266.292 112.815 266.04 94.538 267.083 85.5262C268.125 76.5145 276.842 62.2284 276.842 62.2284L278.684 59.0498C276.202 59.7729 273.629 60.1289 271.045 60.1064C268.733 60.0354 266.424 60.3031 264.189 60.9011" stroke="#263238" stroke-linecap="round" stroke-linejoin="round"/>
<path d="M297.142 55.3208C297.142 55.3208 283.698 78.8981 281.065 86.5826C278.432 94.267 280.274 98.8078 280.796 104.047C281.317 109.287 288.834 164.632 288.834 164.632C288.834 164.632 306.215 159.332 313.358 156.677C320.502 154.022 322.848 151.115 322.848 151.115C322.848 151.115 309.969 107.689 309.969 106.623C309.969 105.558 321.136 57.172 319.294 56.1154C317.452 55.0588 297.142 55.3208 297.142 55.3208Z" fill="#666666" stroke="#263238" stroke-linecap="round" stroke-linejoin="round"/>
<path d="M268.847 53.4965C268.847 53.4965 269.212 62.0979 267.57 66.1322C266.805 68.2771 265.559 70.2162 263.929 71.7995C263.929 71.7995 271.211 68.1407 273.949 65.2153C276.023 62.7823 277.854 60.1499 279.415 57.3562L274.496 48.7549L268.847 53.4965Z" fill="#263238" stroke="#263238" stroke-linecap="round" stroke-linejoin="round"/>
<path d="M258.436 16.3316C257.495 19.3513 256.841 22.4534 256.48 25.5966C256.228 29.3515 257.575 30.1461 257.349 32.3991C257.123 34.652 253.769 38.6165 254.264 40.3717C254.76 42.1269 257.74 43.1224 257.74 43.1224C257.74 43.1224 259.991 51.8547 260.738 54.1426C261.486 56.4305 264.719 55.6445 267.96 54.6403C270.329 53.8613 272.651 52.9428 274.912 51.8896L277.902 59.1462L294.848 50.8854L287.626 22.0687C287.626 22.0687 277.658 14.3057 271.428 14.3057L258.436 16.3316Z" fill="white" stroke="#263238" stroke-linecap="round" stroke-linejoin="round"/>
<path d="M274.887 51.8895L278.981 49.1562L276.547 54.2821L274.887 51.8895Z" fill="#263238" stroke="#263238" stroke-linecap="round" stroke-linejoin="round"/>
<path d="M259.739 33.5074C259.739 34.6164 260.148 35.5158 260.652 35.5158C261.156 35.5158 261.521 34.6426 261.521 33.5074C261.521 32.3722 261.121 31.4902 260.652 31.4902C260.183 31.4902 259.739 32.3897 259.739 33.5074Z" fill="#263238"/>
<path d="M263.746 29.4735C263.746 29.4735 261.373 25.2645 258.28 27.8318" stroke="#263238" stroke-linecap="round" stroke-linejoin="round"/>
<path d="M266.109 43.5674C266.109 43.5674 263.65 46.7285 260.834 45.2178" stroke="#263238" stroke-linecap="round" stroke-linejoin="round"/>
<path d="M285.784 63.889C285.784 63.889 285.289 64.3343 281.96 65.5394C277.294 67.216 275.764 66.0895 275.764 66.0895C274.981 62.8194 274.363 59.5114 273.913 56.1783C273.731 53.4364 274.504 53.873 279.414 53.0871C284.898 52.2139 293.197 48.8257 294.475 48.8257C295.752 48.8257 296.534 48.6947 296.534 50.3451C296.534 51.9955 298.177 58.0296 298.177 58.0296C294.255 60.4021 290.103 62.3655 285.784 63.889Z" fill="white" stroke="#263238" stroke-linecap="round" stroke-linejoin="round"/>
<path d="M281.369 33.1064C281.369 33.1064 278.128 33.1064 276.633 32.1022C275.63 31.2692 274.928 30.1277 274.634 28.8537C274.634 28.8537 263.919 26.0943 259.192 20.1214C254.464 14.1485 251.214 13.6071 253.456 10.8564C255.698 8.10569 271.15 3.59107 276.138 1.59137C281.126 -0.40834 288.634 2.84883 295.587 8.56851C302.539 14.2882 302.322 15.0741 303.312 22.3394C304.303 29.6047 311.038 54.8936 311.038 54.8936L304.086 56.3955C304.086 56.3955 300.097 64.4118 292.875 68.4112C285.654 72.4106 281.413 72.9258 281.413 72.9258C281.413 72.9258 287.14 60.1504 287.14 49.1302C287.14 38.11 281.369 33.1064 281.369 33.1064Z" fill="#263238" stroke="#263238" stroke-linecap="round" stroke-linejoin="round"/>
<path d="M278.128 35.3591C278.128 35.3591 280.118 25.0899 284.854 28.3732C289.59 31.6566 283.855 43.1483 282.117 42.8951C280.379 42.6419 278.875 40.6422 278.875 40.6422" fill="white"/>
<path d="M278.128 35.3591C278.128 35.3591 280.118 25.0899 284.854 28.3732C289.59 31.6566 283.855 43.1483 282.117 42.8951C280.379 42.6419 278.875 40.6422 278.875 40.6422" stroke="#263238" stroke-linecap="round" stroke-linejoin="round"/>
<path d="M371.349 69.3016C371.349 69.3016 378.944 67.7734 380.717 67.7734C382.49 67.7734 382.994 69.5199 382.229 69.8081C381.464 70.0962 380.204 70.5765 380.204 70.5765C380.204 70.5765 383.246 71.3362 382.229 72.0959L380.204 73.6241C380.204 73.6241 382.742 74.899 381.725 75.912C380.854 76.579 379.787 76.9382 378.692 76.9337C378.692 76.9337 381.221 78.4618 379.7 79.2215C378.179 79.9812 374.634 78.7151 374.634 78.7151C373.127 80.3208 371.323 81.6169 369.324 82.5311C367.3 83.2887 365.106 83.4641 362.989 83.0376L358.157 85.8057L354.863 78.4269L371.349 69.3016Z" fill="white" stroke="#263238" stroke-linecap="round" stroke-linejoin="round"/>
<path d="M309.535 56.1157C309.535 56.1157 316.391 54.2645 319.294 56.1157C322.196 57.967 322.987 73.5804 322.987 73.5804L331.677 93.9792L356.201 77.2829L364.11 88.9406C364.11 88.9406 332.729 117.827 330.096 118.884C329.206 119.342 328.18 119.46 327.21 119.216C326.24 118.972 325.391 118.382 324.821 117.556C323.769 116.238 304.781 83.9108 304.781 83.9108" fill="#666666"/>
<path d="M309.535 56.1157C309.535 56.1157 316.391 54.2645 319.294 56.1157C322.196 57.967 322.987 73.5804 322.987 73.5804L331.677 93.9792L356.201 77.2829L364.11 88.9406C364.11 88.9406 332.729 117.827 330.096 118.884C329.206 119.342 328.18 119.46 327.21 119.216C326.24 118.972 325.391 118.382 324.821 117.556C323.769 116.238 304.781 83.9108 304.781 83.9108" stroke="#263238" stroke-linecap="round" stroke-linejoin="round"/>
<path d="M384.802 85.2129L369.411 85.9551V152.199H387.687L384.802 85.2129Z" fill="#666666" stroke="#263238" stroke-linecap="round" stroke-linejoin="round"/>
<path d="M351.474 104.239L355.819 101.227C362.097 96.7474 366.994 90.5832 369.949 83.4391L373.564 74.96H379.309L382.924 83.4391C385.88 90.5832 390.776 96.7474 397.054 101.227L401.399 104.239C402.644 105.172 403.649 106.39 404.329 107.792C405.01 109.194 405.346 110.74 405.31 112.299H347.563C347.527 110.74 347.864 109.194 348.544 107.792C349.224 106.39 350.229 105.172 351.474 104.239ZM374.825 108.728H399.644C399.644 106.056 395.394 103.576 393.717 102.214L390.71 99.7773C386.226 95.9485 382.849 90.9778 380.934 85.3864L378.422 78.5228H374.451L371.939 85.3864C370.024 90.9778 366.648 95.9485 362.163 99.7773L359.156 102.214C357.479 103.576 353.316 106.056 353.316 108.728H374.825Z" fill="white" stroke="#263238" stroke-linecap="round" stroke-linejoin="round"/>
<path d="M376.467 74.8208V68.5946C376.467 68.5946 372.93 65.9225 372.93 62.0716C372.93 58.2206 375.876 56.7361 379.127 57.9237" stroke="#263238" stroke-linecap="round" stroke-linejoin="round"/>
<path d="M384.802 85.213L378.145 144.314L369.976 83.4316C369.976 83.4316 356.011 97.7963 351.413 100.32C346.816 102.844 342.636 106.197 341.385 112.912C340.134 119.627 333.451 186.788 333.451 186.788L348.902 187.661L347.512 225.638H409.864L406.11 185.984H420.727C420.727 185.984 411.542 113.366 409.03 108.328C406.519 103.289 384.802 85.213 384.802 85.213Z" fill="#EB012A" stroke="#263238" stroke-linecap="round" stroke-linejoin="round"/>
<path d="M384.801 85.2129L376.598 148.26L378.553 150.88L396.803 96.4514C396.803 96.4514 391.058 87.0991 384.801 85.2129Z" fill="#263238" stroke="#263238" stroke-linecap="round" stroke-linejoin="round"/>
<path d="M369.949 83.4396L381.16 166.624L355.706 95.7871C355.706 95.7871 370.028 82.0424 369.949 83.4396Z" fill="#263238" stroke="#263238" stroke-linecap="round" stroke-linejoin="round"/>
<path d="M409.03 108.301C409.03 108.301 420.979 166.624 423.586 180.395C426.193 194.166 427.505 216.468 427.505 216.468L404.659 217.123L398.132 118.745" fill="#EB012A"/>
<path d="M409.03 108.301C409.03 108.301 420.979 166.624 423.586 180.395C426.193 194.166 427.505 216.468 427.505 216.468L404.659 217.123L398.132 118.745" stroke="#263238" stroke-linecap="round" stroke-linejoin="round"/>
<path d="M404.25 218.748H428.018C428.561 218.748 429 218.306 429 217.761V210.968C429 210.423 428.561 209.981 428.018 209.981H404.25C403.708 209.981 403.268 210.423 403.268 210.968V217.761C403.268 218.306 403.708 218.748 404.25 218.748Z" fill="#263238" stroke="#263238" stroke-linecap="round" stroke-linejoin="round"/>
<path d="M342.845 108.301C342.845 108.301 330.904 166.624 328.297 180.395C325.69 194.166 324.378 216.468 324.378 216.468L347.225 217.123L353.751 118.745" fill="#EB012A"/>
<path d="M342.845 108.301C342.845 108.301 330.904 166.624 328.297 180.395C325.69 194.166 324.378 216.468 324.378 216.468L347.225 217.123L353.751 118.745" stroke="#263238" stroke-linecap="round" stroke-linejoin="round"/>
<path d="M323.691 218.748H347.459C348.002 218.748 348.441 218.306 348.441 217.761V210.968C348.441 210.423 348.002 209.981 347.459 209.981H323.691C323.149 209.981 322.709 210.423 322.709 210.968V217.761C322.709 218.306 323.149 218.748 323.691 218.748Z" fill="#263238" stroke="#263238" stroke-linecap="round" stroke-linejoin="round"/>
<path d="M381.16 166.624V225.288" stroke="#263238" stroke-linecap="round" stroke-linejoin="round"/>
<path d="M358.921 76.7857C361.328 74.6986 364.3 69.9832 365.387 69.5466C367.29 68.7607 373.373 67.9311 375.693 66.726C378.014 65.5209 378.605 66.2719 377.206 68.0533C375.806 69.8347 371.192 71.3978 371.192 71.3978C371.192 71.3978 368.993 75.6941 366.673 76.8992L365.135 77.7288" fill="white"/>
<path d="M358.921 76.7857C361.328 74.6986 364.3 69.9832 365.387 69.5466C367.29 68.7607 373.373 67.9311 375.693 66.726C378.014 65.5209 378.605 66.2719 377.206 68.0533C375.806 69.8347 371.192 71.3978 371.192 71.3978C371.192 71.3978 368.993 75.6941 366.673 76.8992L365.135 77.7288" stroke="#263238" stroke-linecap="round" stroke-linejoin="round"/>
<path d="M24.074 238.675L18.625 305.418H20.5283L30.3249 239.228L24.074 238.675Z" fill="white" stroke="#263238" stroke-linecap="round" stroke-linejoin="round"/>
<path d="M64.8928 238.675L59.4438 305.418H61.3471L71.1437 239.228L64.8928 238.675Z" fill="white" stroke="#263238" stroke-linecap="round" stroke-linejoin="round"/>
<path d="M69.7817 238.675L75.2306 305.418H73.3274L63.5308 239.228L69.7817 238.675Z" fill="white" stroke="#263238" stroke-linecap="round" stroke-linejoin="round"/>
<path d="M116.05 238.675L121.489 305.418H119.586L109.789 239.228L116.05 238.675Z" fill="white" stroke="#263238" stroke-linecap="round" stroke-linejoin="round"/>
<path d="M66.2648 132.128H5.8524C5.8524 132.128 -1.39361 134.148 1.82362 142.652C5.04084 151.156 23.1752 240.995 23.1752 240.995H119.025L125.073 185.144C125.073 185.144 126.281 177.048 120.639 175.834C114.997 174.621 92.0412 175.426 87.6163 172.999C83.1914 170.572 73.163 135.361 73.163 135.361C73.163 135.361 72.3128 131.303 66.2648 132.128Z" fill="#1A2328" stroke="#263238" stroke-linecap="round" stroke-linejoin="round"/>
<path d="M70.8726 228.276H119.063" stroke="#263238" stroke-linecap="round" stroke-linejoin="round"/>
<path d="M40.4015 82.1796C40.4015 82.1796 41.2807 116.634 41.6672 119.73C41.8929 122.286 41.5727 124.86 40.7279 127.281C39.8832 129.702 38.5334 131.914 36.7689 133.768C32.0542 138.875 13.002 135.04 11.7364 130.303C10.4707 125.565 12.8184 117.682 12.8184 117.682C12.8184 117.682 5.53377 116.09 7.56265 109.741C9.59154 103.392 20.6248 92.0624 25.7067 88.2374C30.7885 84.4125 36.5853 81.267 40.4015 82.1796Z" fill="black" stroke="#263238" stroke-linecap="round" stroke-linejoin="round"/>
<path d="M27.1075 89.4219C27.1075 89.4219 15.7844 109.207 14.0647 114.401" stroke="#263238" stroke-linecap="round" stroke-linejoin="round"/>
<path d="M32.7685 88.4326C32.7685 88.4326 20.2088 114.402 17.9963 125.042" stroke="#263238" stroke-linecap="round" stroke-linejoin="round"/>
<path d="M33.2615 98.3242C33.2615 98.3242 28.2376 112.653 27.1072 118.119" stroke="#263238" stroke-linecap="round" stroke-linejoin="round"/>
<path d="M56.9126 125.382C56.9126 125.382 66.0329 125.149 70.0134 123.033C73.9939 120.916 82.177 122.557 84.9788 131.022C87.7806 139.488 93.1716 155.001 95.2778 161.35C97.384 167.699 102.292 173.573 102.292 173.573L82.8727 181.087L71.6462 186.028C71.6462 186.028 62.7577 150.303 59.7144 141.128C56.6711 131.954 55.7726 126.557 56.9126 125.382Z" fill="#787878" stroke="#263238" stroke-linecap="round" stroke-linejoin="round"/>
<path d="M136.532 246.208L144.019 261.887L145.923 260.974L140.908 247.227L136.532 246.208Z" fill="#263238" stroke="#263238" stroke-linecap="round" stroke-linejoin="round"/>
<path d="M139.044 214.492C139.044 214.492 148.609 237.258 150.638 239.393C152.667 241.529 163.806 246.869 165.478 247.102C167.149 247.335 171.013 247.296 170.685 248.238C170.356 249.179 153.681 258.266 150.763 257.062C147.846 255.858 147.015 253.237 143.904 251.606C140.793 249.975 136.484 247.781 134.561 243.752C132.639 239.724 135.837 236.102 135.837 236.102L127.093 220.501L139.044 214.492Z" fill="white" stroke="#263238" stroke-linecap="round" stroke-linejoin="round"/>
<path d="M165.507 247.102C164.93 246.967 164.367 246.778 163.826 246.539C160.763 249.451 154.329 252.305 146.3 246.927C142.116 244.205 138.394 240.826 135.276 236.918C134.592 237.897 134.17 239.036 134.05 240.226C133.93 241.416 134.116 242.617 134.59 243.714C136.523 247.742 140.822 249.937 143.933 251.567C147.044 253.198 147.884 255.82 150.792 257.023C153.701 258.227 170.386 249.14 170.714 248.199C171.043 247.257 167.168 247.344 165.507 247.102Z" fill="#263238" stroke="#263238" stroke-linecap="round" stroke-linejoin="round"/>
<path d="M125.489 171.727C125.489 171.727 139.488 203.909 142.724 210.472L147.401 219.869L129.624 228.81C129.624 228.81 110.204 191.667 110.204 186.26C110.204 180.852 113.827 175.231 116.165 172.416C118.503 169.601 125.489 171.727 125.489 171.727Z" fill="#263238" stroke="#263238" stroke-linecap="round" stroke-linejoin="round"/>
<path d="M120.504 259.361C120.504 259.361 119.335 284.039 120.262 286.864C121.19 289.689 128.957 299.32 130.329 300.262C131.701 301.203 135.237 302.844 134.532 303.553C133.827 304.261 114.89 305.203 112.784 302.844C110.678 300.485 111.615 293.912 109.509 291.097C107.403 288.282 103.896 288.272 103.896 283.806C103.896 279.341 108.34 277.457 108.34 277.457L107.171 259.594L120.504 259.361Z" fill="white" stroke="#263238" stroke-linecap="round" stroke-linejoin="round"/>
<path d="M130.368 300.263C129.775 299.771 129.228 299.225 128.735 298.632C126.146 299.603 123.344 300.234 121.238 299.554C116.098 297.914 112.117 294.623 110.948 288.041C110.224 283.944 107.219 281.488 105.065 280.216C104.323 281.265 103.928 282.521 103.934 283.808C103.934 288.274 107.441 288.274 109.547 291.099C111.654 293.924 110.716 300.496 112.823 302.845C114.929 305.195 133.875 304.263 134.57 303.554C135.266 302.845 131.768 301.205 130.368 300.263Z" fill="#263238" stroke="#263238" stroke-linecap="round" stroke-linejoin="round"/>
<path d="M104.631 286.865V304.262H106.737L108.138 289.69L104.631 286.865Z" fill="#263238" stroke="#263238" stroke-linecap="round" stroke-linejoin="round"/>
<path d="M111.886 186.026C111.886 186.026 127.788 187.667 127.557 198.482C127.325 209.297 126.59 260.769 126.59 260.769L105.104 263.128C105.104 263.128 100.418 236.567 101.587 225.752C102.756 214.937 104.63 212.821 104.63 212.821H69.7817C69.7817 212.821 73.2888 204.831 84.5153 196.366C95.7418 187.9 111.886 186.026 111.886 186.026Z" fill="#263238" stroke="#263238" stroke-linecap="round" stroke-linejoin="round"/>
<path d="M76.7957 130.313C76.9551 132.996 77.2777 135.668 77.7618 138.312C78.4574 141.836 82.206 143.477 83.375 148.651C84.5441 153.826 82.6698 156.175 82.9016 161.582C83.1335 166.99 86.4184 174.271 86.8821 176.863C87.3458 179.455 84.5441 181.562 80.5636 184.144C76.5831 186.726 41.9665 199.677 37.2904 194.483C32.6144 189.289 36.5852 182.028 35.6577 176.154C34.7302 170.281 30.0348 146.535 27.9286 137.322C25.8224 128.109 24.7017 123.604 29.687 121.585C33.194 120.177 45.6475 125.148 45.6475 125.148C45.6475 125.148 50.1014 125.614 59.6854 125.614" fill="#787878"/>
<path d="M76.7957 130.313C76.9551 132.996 77.2777 135.668 77.7618 138.312C78.4574 141.836 82.206 143.477 83.375 148.651C84.5441 153.826 82.6698 156.175 82.9016 161.582C83.1335 166.99 86.4184 174.271 86.8821 176.863C87.3458 179.455 84.5441 181.562 80.5636 184.144C76.5831 186.726 41.9665 199.677 37.2904 194.483C32.6144 189.289 36.5852 182.028 35.6577 176.154C34.7302 170.281 30.0348 146.535 27.9286 137.322C25.8224 128.109 24.7017 123.604 29.687 121.585C33.194 120.177 45.6475 125.148 45.6475 125.148C45.6475 125.148 50.1014 125.614 59.6854 125.614" stroke="#263238" stroke-linecap="round" stroke-linejoin="round"/>
<path d="M40.5748 96.4022V122.468C40.5748 122.468 45.4731 126.662 51.6467 131.584C57.8203 136.506 62.3515 137.409 63.2403 132.856C64.1291 128.303 60.1487 122.828 58.883 121.556C57.6174 120.284 57.7913 109.528 57.7913 109.528C57.7913 109.528 44.5649 95.4897 42.2462 94.0237C39.9275 92.5578 40.5748 96.4022 40.5748 96.4022Z" fill="white" stroke="#263238" stroke-linecap="round" stroke-linejoin="round"/>
<path d="M67.9747 66.3185C67.9747 66.3185 77.4042 68.8717 77.6361 75.6188C77.8679 82.366 67.6076 84.9192 66.5255 82.5601C65.4435 80.2011 63.9846 68.1533 64.1585 66.5127C64.3324 64.872 67.9747 66.3185 67.9747 66.3185Z" fill="black" stroke="#263238" stroke-linecap="round" stroke-linejoin="round"/>
<path d="M69.5109 71.0637C69.5109 71.0637 73.8682 81.4514 71.9649 90.1984C70.0616 98.9454 66.2454 108.789 63.2697 111.556C60.294 114.323 56.7386 115.022 50.478 109.915C45.9565 106.226 40.4109 98.9745 39.0487 95.1495C37.6864 91.3245 38.7782 83.6648 43.6765 76.2867C48.5748 68.9085 66.5255 65.5884 69.5109 71.0637Z" fill="white" stroke="#263238" stroke-linecap="round" stroke-linejoin="round"/>
<path d="M59.8888 90.0623C60.5079 90.0623 61.0097 89.206 61.0097 88.1498C61.0097 87.0936 60.5079 86.2373 59.8888 86.2373C59.2697 86.2373 58.7678 87.0936 58.7678 88.1498C58.7678 89.206 59.2697 90.0623 59.8888 90.0623Z" fill="#263238"/>
<path d="M69.8397 88.3264C69.8397 89.3846 69.3372 90.268 68.7188 90.268C68.1003 90.268 67.5881 89.4137 67.5881 88.3264C67.5881 87.2391 68.0906 86.3848 68.7188 86.3848C69.3469 86.3848 69.8397 87.2682 69.8397 88.3264Z" fill="#263238"/>
<path d="M68.111 83.9766C68.111 83.9766 65.5115 86.2385 66.1783 89.3743C66.8451 92.51 68.111 94.5875 67.5602 95.636C67.0094 96.6844 64.6611 96.6747 64.6611 96.6747" stroke="#263238" stroke-linecap="round" stroke-linejoin="round"/>
<path d="M55.4731 82.9375C55.4731 82.9375 59.6275 80.6755 62.4003 81.7143" stroke="#263238" stroke-linecap="round" stroke-linejoin="round"/>
<path d="M68.6316 82.0632C68.6316 82.0632 70.3614 80.5002 72.0911 82.7622" stroke="#263238" stroke-linecap="round" stroke-linejoin="round"/>
<path d="M61.0197 100.499C60.1158 100.499 59.2312 100.237 58.4718 99.7449C57.7125 99.2524 57.1107 98.5502 56.7388 97.7227" stroke="#263238" stroke-linecap="round" stroke-linejoin="round"/>
<path d="M23.2815 89.5485C23.2815 89.5485 45.4349 86.6361 56.13 81.0248C66.8251 75.4136 70.8442 71.4527 69.9747 66.9384C69.1052 62.4241 58.3811 54.9392 46.4397 55.1042C41.356 55.2221 36.4215 56.8533 32.2611 59.7912C28.1007 62.7292 24.9015 66.8417 23.0689 71.608C20.3348 79.4618 23.2815 89.5485 23.2815 89.5485Z" fill="black" stroke="#263238" stroke-linecap="round" stroke-linejoin="round"/>
<path d="M61.5691 65.666C56.6812 70.9699 50.9353 75.4043 44.5749 78.7816C38.1596 81.9866 31.2508 84.0775 24.1411 84.9657" stroke="#263238" stroke-linecap="round" stroke-linejoin="round"/>
<path d="M23.4172 82.4907C29.3025 80.6737 34.9923 78.2703 40.4019 75.3164" stroke="#263238" stroke-linecap="round" stroke-linejoin="round"/>
<path d="M44.0918 73.0936C44.0918 73.0936 53.9464 66.162 58.864 61.2012" stroke="#263238" stroke-linecap="round" stroke-linejoin="round"/>
<path d="M44.4787 89.9278C44.4787 89.9278 40.9426 81.9963 36.8559 85.0058C32.7691 88.0153 35.5033 96.7623 37.9476 98.403C40.3919 100.044 43.9377 97.5875 43.9377 97.5875" fill="white"/>
<path d="M44.4787 89.9278C44.4787 89.9278 40.9426 81.9963 36.8559 85.0058C32.7691 88.0153 35.5033 96.7623 37.9476 98.403C40.3919 100.044 43.9377 97.5875 43.9377 97.5875" stroke="#263238" stroke-linecap="round" stroke-linejoin="round"/>
<path d="M76.0613 163.933C76.0613 163.933 85.655 162.282 89.1621 161.816C92.6691 161.35 101.799 164.641 101.326 166.282C100.852 167.923 91.0364 169.107 87.7998 170.282C84.5633 171.456 77.2689 169.806 77.2689 169.806L76.0613 163.933Z" fill="white" stroke="#263238" stroke-linecap="round" stroke-linejoin="round"/>
<path d="M41.2807 124.672C41.2807 124.672 38.0055 119.507 30.2861 120.915C22.5666 122.323 20.2189 130.312 20.4605 138.312C20.702 146.311 29.1557 181.328 32.1507 183.445C35.1457 185.561 77.7329 172.844 77.7329 172.844L76.0905 163.912L44.2757 165.815L40.7686 136.924" fill="#787878"/>
<path d="M41.2807 124.672C41.2807 124.672 38.0055 119.507 30.2861 120.915C22.5666 122.323 20.2189 130.312 20.4605 138.312C20.702 146.311 29.1557 181.328 32.1507 183.445C35.1457 185.561 77.7329 172.844 77.7329 172.844L76.0905 163.912L44.2757 165.815L40.7686 136.924" stroke="#263238" stroke-linecap="round" stroke-linejoin="round"/>
<path d="M101.49 163.766L67.5303 179.92L76.5926 183.784L120.049 168.542L101.49 163.766Z" fill="white" stroke="#263238" stroke-linecap="round" stroke-linejoin="round"/>
<path d="M127.972 176.727C127.972 176.727 125.711 168.533 120.05 168.533C114.388 168.533 78.1776 180.367 65.7241 185.367C53.2706 190.367 42.6335 193.328 40.1408 197.201C37.6482 201.075 42.1794 215.85 50.1017 218.122C58.024 220.394 72.0619 217.443 77.9457 214.239C83.8294 211.035 124.127 182.396 124.127 182.396" fill="#263238"/>
<path d="M127.972 176.727C127.972 176.727 125.711 168.533 120.05 168.533C114.388 168.533 78.1776 180.367 65.7241 185.367C53.2706 190.367 42.6335 193.328 40.1408 197.201C37.6482 201.075 42.1794 215.85 50.1017 218.122C58.024 220.394 72.0619 217.443 77.9457 214.239C83.8294 211.035 124.127 182.396 124.127 182.396" stroke="#263238" stroke-linecap="round" stroke-linejoin="round"/>
<path d="M9.70728 175.893C9.70728 175.893 24.1993 187.309 41.9568 188.513C59.7144 189.717 67.5111 193.047 68.6415 202.91C69.7718 212.774 71.1148 240.655 71.1148 240.655L23.1752 240.956L13.7361 193.998L9.70728 175.893Z" fill="#1A2328" stroke="#263238" stroke-linecap="round" stroke-linejoin="round"/>
<path d="M20.7024 189.046C20.7024 189.046 25.1466 195.007 36.2765 195.997C47.4063 196.987 55.7924 198.482 58.4976 202.21" stroke="#263238" stroke-linecap="round" stroke-linejoin="round"/>
</svg>
