<svg width="426" height="306" viewBox="0 0 426 306" fill="none" xmlns="http://www.w3.org/2000/svg">
<g clip-path="url(#clip0_110_471)">
<path d="M390.898 -0.216797H217.735C215.47 -0.216797 213.633 1.61996 213.633 3.88572V68.3193C213.633 70.5851 215.47 72.4218 217.735 72.4218H390.898C393.163 72.4218 395 70.5851 395 68.3193V3.88572C395 1.61996 393.163 -0.216797 390.898 -0.216797Z" fill="white"/>
<mask id="mask0_110_471" style="mask-type:luminance" maskUnits="userSpaceOnUse" x="213" y="-1" width="182" height="74">
<path d="M390.897 -0.217773H217.735C215.469 -0.217773 213.632 1.61899 213.632 3.88474V68.3183C213.632 70.5841 215.469 72.4208 217.735 72.4208H390.897C393.163 72.4208 394.999 70.5841 394.999 68.3183V3.88474C394.999 1.61899 393.163 -0.217773 390.897 -0.217773Z" fill="white"/>
</mask>
<g mask="url(#mask0_110_471)">
<path d="M281.42 8.24121H222.44V63.9509H281.42V8.24121Z" fill="white" stroke="#263238" stroke-width="1.14453" stroke-linecap="round" stroke-linejoin="round"/>
<path d="M347.012 13.1409H294.234C293.594 13.1409 292.98 12.8867 292.528 12.4341C292.075 11.9815 291.821 11.3677 291.821 10.7277C291.821 10.0877 292.075 9.47384 292.528 9.02127C292.98 8.5687 293.594 8.31445 294.234 8.31445H347.012C347.652 8.31445 348.266 8.5687 348.718 9.02127C349.171 9.47384 349.425 10.0877 349.425 10.7277C349.425 11.3677 349.171 11.9815 348.718 12.4341C348.266 12.8867 347.652 13.1409 347.012 13.1409Z" fill="#263238"/>
<path d="M315.953 23.9515H294.234C293.594 23.9515 292.98 23.6972 292.528 23.2447C292.075 22.7921 291.821 22.1783 291.821 21.5382C291.821 20.8982 292.075 20.2844 292.528 19.8318C292.98 19.3792 293.594 19.125 294.234 19.125H315.953C316.593 19.125 317.207 19.3792 317.66 19.8318C318.112 20.2844 318.366 20.8982 318.366 21.5382C318.366 22.1783 318.112 22.7921 317.66 23.2447C317.207 23.6972 316.593 23.9515 315.953 23.9515Z" fill="#263238"/>
<path d="M361.322 51.1605C360.411 50.8553 359.423 50.8682 358.52 51.1969C357.617 51.5256 356.852 52.1509 356.35 52.9704C355.861 52.1424 355.106 51.5045 354.207 51.1606C353.309 50.8166 352.321 50.7868 351.403 51.076C348.532 51.9448 347.518 55.5767 349.895 58.9311C351.49 60.9568 353.513 62.605 355.82 63.7576L356.278 63.9748L356.724 63.7697C359.059 62.6619 361.12 61.0507 362.758 59.0518C365.111 55.7094 364.181 52.0534 361.322 51.1605Z" fill="#182835" stroke="#263238" stroke-width="1.14453" stroke-linecap="round" stroke-linejoin="round"/>
<path d="M381.823 59.5463H373.051L372.158 50.8828H382.716L381.823 59.5463Z" fill="white" stroke="#263238" stroke-width="1.14453" stroke-linecap="round" stroke-linejoin="round"/>
<path d="M372.47 53.8408H382.401" stroke="#263238" stroke-width="1.14453" stroke-linecap="round" stroke-linejoin="round"/>
<path d="M372.785 56.5889H382.088" stroke="#263238" stroke-width="1.14453" stroke-linecap="round" stroke-linejoin="round"/>
<path d="M375.476 50.8828L375.693 59.5463" stroke="#263238" stroke-width="1.14453" stroke-linecap="round" stroke-linejoin="round"/>
<path d="M379.397 50.8828L379.131 59.5463" stroke="#263238" stroke-width="1.14453" stroke-linecap="round" stroke-linejoin="round"/>
<path d="M382.667 50.8597L385.116 49.9668" stroke="#263238" stroke-width="1.14453" stroke-linecap="round" stroke-linejoin="round"/>
<path d="M384.152 63.7462C384.152 63.9681 384.086 64.1851 383.962 64.3696C383.839 64.5541 383.664 64.698 383.459 64.7829C383.254 64.8678 383.028 64.8901 382.81 64.8468C382.593 64.8035 382.393 64.6966 382.236 64.5397C382.079 64.3827 381.972 64.1828 381.929 63.9651C381.885 63.7474 381.908 63.5218 381.993 63.3167C382.078 63.1117 382.221 62.9365 382.406 62.8131C382.59 62.6898 382.807 62.624 383.029 62.624C383.327 62.624 383.612 62.7422 383.823 62.9527C384.033 63.1631 384.152 63.4486 384.152 63.7462Z" fill="white" stroke="#263238" stroke-width="1.14453" stroke-linecap="round" stroke-linejoin="round"/>
<path d="M372.713 63.7462C372.713 63.9681 372.647 64.1851 372.523 64.3696C372.4 64.5541 372.225 64.698 372.02 64.7829C371.815 64.8678 371.589 64.8901 371.372 64.8468C371.154 64.8035 370.954 64.6966 370.797 64.5397C370.64 64.3827 370.533 64.1828 370.49 63.9651C370.447 63.7474 370.469 63.5218 370.554 63.3167C370.639 63.1117 370.782 62.9365 370.967 62.8131C371.152 62.6898 371.368 62.624 371.59 62.624C371.888 62.624 372.173 62.7422 372.384 62.9527C372.594 63.1631 372.713 63.4486 372.713 63.7462Z" fill="white" stroke="#263238" stroke-width="1.14453" stroke-linecap="round" stroke-linejoin="round"/>
<path d="M371.879 61.0801H383.029" stroke="#263238" stroke-width="1.14453" stroke-linecap="round" stroke-linejoin="round"/>
<path d="M236.003 32.1215L239.623 52.7426H263.755L268.437 32.1215C268.437 32.1215 264.286 27.9345 264.455 18.0885L261.511 17.0508C261.511 17.0508 262.38 25.4971 251.979 25.4971C241.578 25.4971 241.24 17.8834 241.24 17.8834L238.296 19.0176C238.296 19.0176 240.154 27.4036 236.003 32.1215Z" fill="#182835" stroke="#263238" stroke-width="1.14453" stroke-linecap="round" stroke-linejoin="round"/>
<path d="M259.11 33.4344C257.271 33.2653 255.421 33.2653 253.583 33.4344L252.196 30.3213L251.11 33.543C248.322 33.6757 245.861 33.8205 245.861 33.8205L250.108 36.5233C249.372 38.647 248.66 40.662 248.334 41.3498C248.334 41.3498 250.446 39.8898 252.799 38.2247L256.913 40.831L255.031 36.6319C256.489 35.6986 257.855 34.6279 259.11 33.4344Z" fill="#182835" stroke="#263238" stroke-width="1.14453" stroke-linecap="round" stroke-linejoin="round"/>
<path opacity="0.2" d="M385.949 59.5479H213.632V68.32C213.632 69.408 214.064 70.4515 214.833 71.2209C215.603 71.9903 216.646 72.4225 217.734 72.4225H389.907V63.5056C389.907 62.9858 389.805 62.4712 389.606 61.991C389.407 61.5108 389.115 61.0746 388.748 60.707C388.38 60.3395 387.944 60.048 387.464 59.8491C386.984 59.6502 386.469 59.5479 385.949 59.5479Z" fill="black"/>
</g>
<path d="M390.898 -0.216797H217.735C215.47 -0.216797 213.633 1.61996 213.633 3.88572V68.3193C213.633 70.5851 215.47 72.4218 217.735 72.4218H390.898C393.163 72.4218 395 70.5851 395 68.3193V3.88572C395 1.61996 393.163 -0.216797 390.898 -0.216797Z" stroke="#263238" stroke-width="1.14453" stroke-linecap="round" stroke-linejoin="round"/>
<path d="M395 156.149V220.607C394.998 221.144 394.891 221.676 394.684 222.171C394.477 222.667 394.174 223.117 393.793 223.496C393.413 223.874 392.961 224.174 392.464 224.378C391.967 224.583 391.435 224.687 390.898 224.685H217.735C217.198 224.687 216.666 224.583 216.169 224.378C215.672 224.174 215.22 223.874 214.839 223.496C214.458 223.117 214.156 222.667 213.949 222.171C213.742 221.676 213.634 221.144 213.633 220.607V156.149C213.636 155.063 214.07 154.023 214.839 153.256C215.608 152.489 216.649 152.059 217.735 152.059H390.898C391.984 152.059 393.025 152.489 393.794 153.256C394.563 154.023 394.997 155.063 395 156.149Z" fill="white"/>
<mask id="mask1_110_471" style="mask-type:luminance" maskUnits="userSpaceOnUse" x="213" y="152" width="182" height="73">
<path d="M394.999 156.15V220.608C394.998 221.145 394.89 221.676 394.683 222.172C394.476 222.668 394.174 223.118 393.793 223.497C393.412 223.875 392.96 224.175 392.463 224.379C391.966 224.583 391.434 224.688 390.897 224.686H217.735C217.197 224.688 216.665 224.583 216.168 224.379C215.671 224.175 215.22 223.875 214.839 223.497C214.458 223.118 214.155 222.668 213.948 222.172C213.741 221.676 213.634 221.145 213.632 220.608V156.15C213.635 155.064 214.069 154.024 214.838 153.257C215.607 152.49 216.649 152.06 217.735 152.06H390.897C391.983 152.06 393.024 152.49 393.793 153.257C394.562 154.024 394.996 155.064 394.999 156.15Z" fill="white"/>
</mask>
<g mask="url(#mask1_110_471)">
<path d="M281.42 160.517H222.441V216.226H281.42V160.517Z" fill="white" stroke="#263238" stroke-width="1.14453" stroke-linecap="round" stroke-linejoin="round"/>
<path d="M347.012 165.417H294.234C293.594 165.417 292.98 165.163 292.528 164.71C292.075 164.258 291.821 163.644 291.821 163.004C291.821 162.364 292.075 161.75 292.528 161.298C292.98 160.845 293.594 160.591 294.234 160.591H347.012C347.652 160.591 348.266 160.845 348.718 161.298C349.171 161.75 349.425 162.364 349.425 163.004C349.425 163.644 349.171 164.258 348.718 164.71C348.266 165.163 347.652 165.417 347.012 165.417Z" fill="#263238"/>
<path d="M316.267 171.329H293.92C292.741 171.329 291.785 172.285 291.785 173.465V174.092C291.785 175.272 292.741 176.228 293.92 176.228H316.267C317.447 176.228 318.403 175.272 318.403 174.092V173.465C318.403 172.285 317.447 171.329 316.267 171.329Z" fill="#263238"/>
<path d="M361.322 203.437C360.41 203.133 359.421 203.148 358.518 203.478C357.615 203.809 356.851 204.437 356.351 205.259C355.863 204.429 355.108 203.79 354.209 203.446C353.31 203.102 352.321 203.073 351.404 203.364C348.532 204.221 347.519 207.865 349.896 211.208C351.487 213.237 353.511 214.885 355.82 216.034L356.279 216.263L356.725 216.046C359.06 214.938 361.12 213.327 362.758 211.328C365.111 207.998 364.182 204.342 361.322 203.437Z" fill="#182835" stroke="#263238" stroke-width="1.14453" stroke-linecap="round" stroke-linejoin="round"/>
<path d="M381.823 211.824H373.051L372.158 203.173H382.716L381.823 211.824Z" fill="white" stroke="#263238" stroke-width="1.14453" stroke-linecap="round" stroke-linejoin="round"/>
<path d="M372.471 206.117H382.402" stroke="#263238" stroke-width="1.14453" stroke-linecap="round" stroke-linejoin="round"/>
<path d="M372.785 208.866H382.088" stroke="#263238" stroke-width="1.14453" stroke-linecap="round" stroke-linejoin="round"/>
<path d="M375.476 203.173L375.693 211.824" stroke="#263238" stroke-width="1.14453" stroke-linecap="round" stroke-linejoin="round"/>
<path d="M379.398 203.173L379.133 211.824" stroke="#263238" stroke-width="1.14453" stroke-linecap="round" stroke-linejoin="round"/>
<path d="M382.667 203.136L385.117 202.243" stroke="#263238" stroke-width="1.14453" stroke-linecap="round" stroke-linejoin="round"/>
<path d="M384.152 216.023C384.152 216.244 384.086 216.461 383.963 216.646C383.839 216.83 383.664 216.974 383.459 217.059C383.254 217.144 383.028 217.166 382.811 217.123C382.593 217.08 382.393 216.973 382.236 216.816C382.079 216.659 381.972 216.459 381.929 216.241C381.886 216.024 381.908 215.798 381.993 215.593C382.078 215.388 382.222 215.213 382.406 215.089C382.591 214.966 382.808 214.9 383.03 214.9C383.327 214.9 383.613 215.019 383.823 215.229C384.034 215.439 384.152 215.725 384.152 216.023Z" fill="white" stroke="#263238" stroke-width="1.14453" stroke-linecap="round" stroke-linejoin="round"/>
<path d="M372.713 216.023C372.713 216.244 372.648 216.461 372.524 216.646C372.401 216.83 372.226 216.974 372.021 217.059C371.816 217.144 371.59 217.166 371.372 217.123C371.155 217.08 370.955 216.973 370.798 216.816C370.641 216.659 370.534 216.459 370.491 216.241C370.447 216.024 370.47 215.798 370.554 215.593C370.639 215.388 370.783 215.213 370.968 215.089C371.152 214.966 371.369 214.9 371.591 214.9C371.889 214.9 372.174 215.019 372.385 215.229C372.595 215.439 372.713 215.725 372.713 216.023Z" fill="white" stroke="#263238" stroke-width="1.14453" stroke-linecap="round" stroke-linejoin="round"/>
<path d="M371.88 213.355H383.029" stroke="#263238" stroke-width="1.14453" stroke-linecap="round" stroke-linejoin="round"/>
<path d="M237.547 205.176V207.492H251.411C251.411 207.492 255.61 202.533 257.951 203.136C260.292 203.74 260.026 207.492 260.026 207.492H263.538L264.744 205.176L263.755 192.434L237.547 205.176Z" fill="white" stroke="#263238" stroke-width="1.14453" stroke-linecap="round" stroke-linejoin="round"/>
<path d="M237.547 205.175H250.615C250.615 205.175 254.705 201.411 257.855 200.349C261.004 199.287 261.752 205.175 261.752 205.175H264.744C264.744 205.175 267.158 198.672 267.158 197.936C267.158 197.2 264.817 185.978 264.817 178.702C264.817 178.702 256.889 178.569 255.852 179.909C255.852 179.909 254.162 177.435 253.113 177.701C253.707 180.65 253.926 183.662 253.764 186.666C253.378 190.563 248.045 196.801 242.977 198.623C239.683 199.746 238.331 201.013 237.547 205.175Z" fill="#182835" stroke="#263238" stroke-width="1.14453" stroke-linecap="round" stroke-linejoin="round"/>
<path d="M255.875 179.835C255.875 179.835 256.129 187.497 255.875 189.054C255.622 190.61 248.72 198.284 248.069 198.55" stroke="#263238" stroke-width="1.14453" stroke-linecap="round" stroke-linejoin="round"/>
<path d="M253.812 182.793H257.166" stroke="#263238" stroke-width="1.14453" stroke-linecap="round" stroke-linejoin="round"/>
<path d="M253.788 186.592L257.166 186.073" stroke="#263238" stroke-width="1.14453" stroke-linecap="round" stroke-linejoin="round"/>
<path d="M252.847 189.187L257.167 189.705" stroke="#263238" stroke-width="1.14453" stroke-linecap="round" stroke-linejoin="round"/>
<path d="M251.411 191.383L255.489 192.433" stroke="#263238" stroke-width="1.14453" stroke-linecap="round" stroke-linejoin="round"/>
<path d="M249.577 193.675L252.847 195.557" stroke="#263238" stroke-width="1.14453" stroke-linecap="round" stroke-linejoin="round"/>
<path d="M243.001 198.55C244.204 199.192 245.213 200.145 245.922 201.311C246.631 202.476 247.014 203.81 247.031 205.174H237.547C237.781 203.683 238.411 202.283 239.37 201.118C240.329 199.953 241.583 199.066 243.001 198.55Z" fill="white" stroke="#263238" stroke-width="1.14453" stroke-linecap="round" stroke-linejoin="round"/>
<path d="M262.79 195.316C262.79 195.64 262.693 195.958 262.513 196.228C262.333 196.497 262.076 196.708 261.777 196.832C261.477 196.956 261.147 196.989 260.828 196.925C260.51 196.862 260.218 196.706 259.988 196.476C259.759 196.247 259.602 195.954 259.539 195.636C259.476 195.318 259.508 194.988 259.632 194.688C259.757 194.388 259.967 194.132 260.237 193.951C260.507 193.771 260.824 193.675 261.149 193.675C261.584 193.675 262.001 193.848 262.309 194.155C262.617 194.463 262.79 194.881 262.79 195.316Z" fill="white" stroke="#263238" stroke-width="1.14453" stroke-linecap="round" stroke-linejoin="round"/>
<path opacity="0.2" d="M389.907 152.06H217.735C216.649 152.06 215.607 152.49 214.838 153.257C214.069 154.024 213.635 155.064 213.632 156.15V180.644H385.95C386.999 180.644 388.006 180.227 388.748 179.485C389.49 178.743 389.907 177.736 389.907 176.687V152.06Z" fill="black"/>
</g>
<path d="M395 156.149V220.607C394.998 221.144 394.891 221.676 394.684 222.171C394.477 222.667 394.174 223.117 393.793 223.496C393.412 223.874 392.961 224.174 392.464 224.378C391.967 224.583 391.435 224.687 390.898 224.685H217.735C217.198 224.687 216.666 224.583 216.169 224.378C215.672 224.174 215.22 223.874 214.839 223.496C214.458 223.117 214.156 222.667 213.949 222.171C213.742 221.676 213.634 221.144 213.633 220.607V156.149C213.636 155.063 214.07 154.023 214.839 153.256C215.608 152.489 216.649 152.059 217.735 152.059H390.898C391.983 152.059 393.025 152.489 393.794 153.256C394.563 154.023 394.997 155.063 395 156.149Z" stroke="#263238" stroke-width="1.14453" stroke-linecap="round" stroke-linejoin="round"/>
<path d="M391.416 228.196H217.216C215.237 228.196 213.633 229.801 213.633 231.78V297.251C213.633 299.23 215.237 300.835 217.216 300.835H391.416C393.396 300.835 395 299.23 395 297.251V231.78C395 229.801 393.396 228.196 391.416 228.196Z" fill="white" stroke="#263238" stroke-width="1.14453" stroke-linecap="round" stroke-linejoin="round"/>
<path d="M281.421 236.655H222.441V292.365H281.421V236.655Z" fill="white" stroke="#263238" stroke-width="1.14453" stroke-linecap="round" stroke-linejoin="round"/>
<path d="M347.013 241.566H294.235C293.595 241.566 292.981 241.311 292.529 240.859C292.076 240.406 291.822 239.793 291.822 239.153C291.822 238.512 292.076 237.899 292.529 237.446C292.981 236.994 293.595 236.739 294.235 236.739H347.013C347.653 236.739 348.267 236.994 348.719 237.446C349.172 237.899 349.426 238.512 349.426 239.153C349.426 239.793 349.172 240.406 348.719 240.859C348.267 241.311 347.653 241.566 347.013 241.566Z" fill="#263238"/>
<path d="M315.955 252.377H294.236C293.595 252.377 292.982 252.123 292.529 251.67C292.077 251.218 291.822 250.604 291.822 249.964C291.822 249.324 292.077 248.71 292.529 248.258C292.982 247.805 293.595 247.551 294.236 247.551H315.955C316.595 247.551 317.209 247.805 317.661 248.258C318.114 248.71 318.368 249.324 318.368 249.964C318.368 250.604 318.114 251.218 317.661 251.67C317.209 252.123 316.595 252.377 315.955 252.377Z" fill="#263238"/>
<path d="M361.323 279.587C360.41 279.283 359.422 279.298 358.518 279.629C357.615 279.96 356.851 280.588 356.351 281.409C355.863 280.58 355.108 279.94 354.209 279.596C353.311 279.252 352.322 279.223 351.404 279.515C348.533 280.372 347.519 284.016 349.896 287.358C351.488 289.387 353.512 291.036 355.821 292.184L356.279 292.414L356.725 292.196C359.065 291.097 361.128 289.484 362.759 287.479C365.111 284.136 364.182 280.48 361.323 279.587Z" fill="#182835" stroke="#263238" stroke-width="1.14453" stroke-linecap="round" stroke-linejoin="round"/>
<path d="M381.824 287.961H373.052L372.159 279.31H382.717L381.824 287.961Z" fill="white" stroke="#263238" stroke-width="1.14453" stroke-linecap="round" stroke-linejoin="round"/>
<path d="M372.473 282.265H382.403" stroke="#263238" stroke-width="1.14453" stroke-linecap="round" stroke-linejoin="round"/>
<path d="M372.786 285.006H382.089" stroke="#263238" stroke-width="1.14453" stroke-linecap="round" stroke-linejoin="round"/>
<path d="M375.477 279.31L375.694 287.961" stroke="#263238" stroke-width="1.14453" stroke-linecap="round" stroke-linejoin="round"/>
<path d="M379.398 279.31L379.133 287.961" stroke="#263238" stroke-width="1.14453" stroke-linecap="round" stroke-linejoin="round"/>
<path d="M382.669 279.272L385.118 278.379" stroke="#263238" stroke-width="1.14453" stroke-linecap="round" stroke-linejoin="round"/>
<path d="M384.153 292.159C384.153 292.381 384.087 292.598 383.963 292.783C383.84 292.967 383.665 293.111 383.46 293.196C383.255 293.281 383.029 293.303 382.811 293.26C382.594 293.217 382.394 293.11 382.237 292.953C382.08 292.796 381.973 292.596 381.93 292.378C381.886 292.161 381.909 291.935 381.994 291.73C382.079 291.525 382.222 291.35 382.407 291.226C382.591 291.103 382.808 291.037 383.03 291.037C383.328 291.037 383.613 291.155 383.824 291.366C384.034 291.576 384.153 291.862 384.153 292.159Z" fill="white" stroke="#263238" stroke-width="1.14453" stroke-linecap="round" stroke-linejoin="round"/>
<path d="M372.714 292.159C372.714 292.381 372.648 292.598 372.524 292.783C372.401 292.967 372.226 293.111 372.021 293.196C371.816 293.281 371.59 293.303 371.372 293.26C371.155 293.217 370.955 293.11 370.798 292.953C370.641 292.796 370.534 292.596 370.491 292.378C370.447 292.161 370.47 291.935 370.555 291.73C370.64 291.525 370.783 291.35 370.968 291.226C371.153 291.103 371.369 291.037 371.591 291.037C371.889 291.037 372.174 291.155 372.385 291.366C372.595 291.576 372.714 291.862 372.714 292.159Z" fill="white" stroke="#263238" stroke-width="1.14453" stroke-linecap="round" stroke-linejoin="round"/>
<path d="M371.881 289.493H383.03" stroke="#263238" stroke-width="1.14453" stroke-linecap="round" stroke-linejoin="round"/>
<path d="M257.167 254.429C257.167 254.429 259.279 243.376 264.323 247.478C272.902 254.429 265.964 274.881 265.964 274.881" stroke="#263238" stroke-width="1.14453" stroke-linecap="round" stroke-linejoin="round"/>
<path d="M245.861 254.429C245.861 254.429 243.895 246.888 239.165 247.274C234.435 247.66 230.272 263.093 235.991 276.945" stroke="#263238" stroke-width="1.14453" stroke-linecap="round" stroke-linejoin="round"/>
<path d="M247.032 250.858C247.276 249.923 247.813 249.09 248.564 248.482C249.316 247.874 250.242 247.523 251.207 247.479C252.14 247.497 253.035 247.847 253.732 248.466C254.429 249.086 254.882 249.934 255.008 250.858" stroke="#263238" stroke-width="1.14453" stroke-linecap="round" stroke-linejoin="round"/>
<path d="M241.01 250.953L261.149 250.615V255.225C261.149 255.225 270.042 275.616 267.617 280.069C265.191 284.521 236.16 285.764 234.953 279.272C233.747 272.781 241.529 256.154 241.529 256.154L241.01 250.953Z" fill="#182835" stroke="#263238" stroke-width="1.14453" stroke-linecap="round" stroke-linejoin="round"/>
<path d="M241.529 256.155C241.529 256.155 241.011 264.468 243.943 266.037C246.875 267.606 258.072 267.762 259.496 265.337C260.92 262.912 261.137 255.226 261.137 255.226" stroke="#263238" stroke-width="1.14453" stroke-linecap="round" stroke-linejoin="round"/>
<path d="M241.494 269.5C241.494 269.5 247.901 271.225 251.147 270.707C251.147 270.707 250.387 280.239 248.83 280.239C247.274 280.239 239.817 280.541 239.298 278.827C238.779 277.114 240.167 271.057 240.167 271.057" stroke="#263238" stroke-width="1.14453" stroke-linecap="round" stroke-linejoin="round"/>
<path d="M262.791 269.5C259.861 270.305 256.849 270.771 253.813 270.888C253.813 270.888 253.753 277.85 255.02 279.334C256.287 280.818 263.032 280.022 264.07 278.405C265.107 276.788 262.803 271.431 262.803 271.431" stroke="#263238" stroke-width="1.14453" stroke-linecap="round" stroke-linejoin="round"/>
<path d="M253.258 263.659C253.258 263.967 253.167 264.268 252.996 264.524C252.825 264.78 252.582 264.979 252.297 265.097C252.013 265.215 251.7 265.246 251.398 265.186C251.096 265.126 250.819 264.977 250.601 264.76C250.383 264.542 250.235 264.265 250.175 263.963C250.115 263.661 250.146 263.348 250.264 263.063C250.381 262.779 250.581 262.536 250.837 262.365C251.093 262.194 251.394 262.103 251.702 262.103C251.906 262.101 252.11 262.14 252.299 262.218C252.489 262.295 252.661 262.41 252.806 262.555C252.951 262.7 253.065 262.872 253.143 263.062C253.221 263.251 253.26 263.454 253.258 263.659Z" stroke="#263238" stroke-width="1.14453" stroke-linecap="round" stroke-linejoin="round"/>
<path d="M380.376 62.8281H156.584C154.604 62.8281 153 64.4326 153 66.4118V151.744C153 153.723 154.604 155.328 156.584 155.328H380.376C382.355 155.328 383.959 153.723 383.959 151.744V66.4118C383.959 64.4326 382.355 62.8281 380.376 62.8281Z" fill="white" stroke="#263238" stroke-width="1.14453" stroke-linecap="round" stroke-linejoin="round"/>
<path d="M239.31 73.6045H164.21V144.554H239.31V73.6045Z" fill="white" stroke="#263238" stroke-width="1.14453" stroke-linecap="round" stroke-linejoin="round"/>
<path d="M323.713 73.6045H254.754C253.515 73.6045 252.51 74.6093 252.51 75.8488V77.5984C252.51 78.8379 253.515 79.8427 254.754 79.8427H323.713C324.952 79.8427 325.957 78.8379 325.957 77.5984V75.8488C325.957 74.6093 324.952 73.6045 323.713 73.6045Z" fill="#263238"/>
<path d="M254.754 87.3711H284.159C284.454 87.3711 284.746 87.4292 285.018 87.542C285.29 87.6548 285.538 87.8201 285.746 88.0285C285.955 88.2369 286.12 88.4843 286.233 88.7566C286.346 89.0289 286.404 89.3207 286.404 89.6154V91.353C286.404 91.9514 286.166 92.5253 285.743 92.9485C285.32 93.3716 284.746 93.6094 284.147 93.6094H254.754C254.156 93.6094 253.582 93.3716 253.158 92.9485C252.735 92.5253 252.498 91.9514 252.498 91.353V89.6154C252.498 89.3197 252.556 89.0269 252.67 88.7538C252.783 88.4807 252.949 88.2327 253.159 88.0242C253.369 87.8156 253.618 87.6506 253.891 87.5385C254.165 87.4264 254.458 87.3695 254.754 87.3711Z" fill="#263238"/>
<path d="M341.076 128.254C339.913 127.869 338.655 127.889 337.505 128.309C336.355 128.73 335.381 129.527 334.741 130.57C334.113 129.518 333.149 128.707 332.004 128.269C330.86 127.831 329.6 127.792 328.43 128.157C324.811 129.255 323.483 133.889 326.512 138.16C328.545 140.729 331.12 142.818 334.053 144.278L334.632 144.555L335.212 144.278C338.174 142.865 340.781 140.803 342.838 138.245C345.951 134.058 344.708 129.4 341.076 128.254Z" fill="#EB012A" stroke="#263238" stroke-width="1.14453" stroke-linecap="round" stroke-linejoin="round"/>
<path d="M367.175 138.943H355.99L354.855 127.914H368.309L367.175 138.943Z" fill="white" stroke="#263238" stroke-width="1.14453" stroke-linecap="round" stroke-linejoin="round"/>
<path d="M355.265 131.679H367.911" stroke="#263238" stroke-width="1.14453" stroke-linecap="round" stroke-linejoin="round"/>
<path d="M355.664 135.179H367.501" stroke="#263238" stroke-width="1.14453" stroke-linecap="round" stroke-linejoin="round"/>
<path d="M359.091 127.914L359.368 138.931" stroke="#263238" stroke-width="1.14453" stroke-linecap="round" stroke-linejoin="round"/>
<path d="M364.074 127.914L363.749 138.931" stroke="#263238" stroke-width="1.14453" stroke-linecap="round" stroke-linejoin="round"/>
<path d="M368.25 127.877L371.375 126.743" stroke="#263238" stroke-width="1.14453" stroke-linecap="round" stroke-linejoin="round"/>
<path d="M368.708 145.699C369.494 145.699 370.132 145.062 370.132 144.275C370.132 143.489 369.494 142.852 368.708 142.852C367.922 142.852 367.284 143.489 367.284 144.275C367.284 145.062 367.922 145.699 368.708 145.699Z" fill="white" stroke="#263238" stroke-width="1.14453" stroke-linecap="round" stroke-linejoin="round"/>
<path d="M354.144 145.699C354.93 145.699 355.568 145.062 355.568 144.275C355.568 143.489 354.93 142.852 354.144 142.852C353.358 142.852 352.72 143.489 352.72 144.275C352.72 145.062 353.358 145.699 354.144 145.699Z" fill="white" stroke="#263238" stroke-width="1.14453" stroke-linecap="round" stroke-linejoin="round"/>
<path d="M354.517 140.886H368.707" stroke="#263238" stroke-width="1.14453" stroke-linecap="round" stroke-linejoin="round"/>
<path d="M189.935 84.1865H213.211L213.766 89.013L231.419 122.798C231.419 122.798 229.874 131.377 225.687 128.409C221.5 125.441 219.28 135.951 213.549 133.344C207.817 130.738 204.909 136.807 198.418 135.094C191.926 133.38 189.971 133.887 186.629 135.408C183.287 136.928 180.451 129.085 177.796 129.58C175.142 130.074 172.523 125.453 172.523 125.453L188.837 91.0281L189.935 84.1865Z" fill="#EB012A" stroke="#263238" stroke-width="1.14453" stroke-linecap="round" stroke-linejoin="round"/>
<path d="M191.696 89.0488H210.894" stroke="#263238" stroke-width="1.14453" stroke-linecap="round" stroke-linejoin="round"/>
<path d="M202.085 86.5265C202.085 86.7345 202.003 86.934 201.856 87.0811C201.709 87.2282 201.509 87.3108 201.301 87.3108C201.093 87.3108 200.894 87.2282 200.747 87.0811C200.599 86.934 200.517 86.7345 200.517 86.5265C200.517 86.3185 200.599 86.119 200.747 85.9719C200.894 85.8248 201.093 85.7422 201.301 85.7422C201.509 85.7422 201.709 85.8248 201.856 85.9719C202.003 86.119 202.085 86.3185 202.085 86.5265Z" fill="#263238"/>
<path d="M180.861 125.139C180.861 125.139 186.652 110.249 187.569 106.858" stroke="#263238" stroke-width="1.14453" stroke-linecap="round" stroke-linejoin="round"/>
<path d="M199.093 121.265C199.178 115.462 199.238 109.199 199.238 109.199L198.997 121.265H199.093Z" fill="white" stroke="#263238" stroke-width="1.14453" stroke-linecap="round" stroke-linejoin="round"/>
<path d="M198.937 124.945L198.816 130.882C198.9 130.327 198.973 127.95 199.021 124.969L198.937 124.945Z" fill="white" stroke="#263238" stroke-width="1.14453" stroke-linecap="round" stroke-linejoin="round"/>
<path d="M215.202 128.07C215.202 127.732 209.82 109.042 209.664 106.81L215.202 128.07Z" fill="white"/>
<path d="M215.202 128.07C215.202 127.732 209.82 109.042 209.664 106.81" stroke="#263238" stroke-width="1.14453" stroke-linecap="round" stroke-linejoin="round"/>
<path d="M218.978 106.798L217.023 102.092L218.978 106.798Z" fill="white"/>
<path d="M218.978 106.798L217.023 102.092" stroke="#263238" stroke-width="1.14453" stroke-linecap="round" stroke-linejoin="round"/>
<path d="M225.795 123.269C224.074 119.118 222.353 114.964 220.631 110.805L225.795 123.269Z" fill="white"/>
<path d="M225.795 123.269C224.074 119.118 222.353 114.964 220.631 110.805" stroke="#263238" stroke-width="1.14453" stroke-linecap="round" stroke-linejoin="round"/>
<path d="M188.801 103.577L189.887 101.092" stroke="#263238" stroke-width="1.14453" stroke-linecap="round" stroke-linejoin="round"/>
<path d="M36.2281 49.3175C35.6481 32.7227 51.2579 18.7176 71.0859 18.0265C90.9139 17.3354 107.461 30.2522 108.033 46.8232C108.573 62.1072 95.3625 75.1908 77.7747 77.7011C76.3845 86.7731 80.6742 90.9913 80.6742 90.9913C77.7249 89.8104 75.0465 88.0424 72.8015 85.7947C70.5564 83.5469 68.7917 80.8663 67.6144 77.9156C50.3444 76.3268 36.7523 64.3395 36.2281 49.3175Z" fill="white" stroke="#263238" stroke-width="1.14453" stroke-linecap="round" stroke-linejoin="round"/>
<path d="M63.0307 37.124C67.9797 35.7099 70.9031 38.7922 72.2059 40.7702C73.5881 38.8478 76.6386 35.8768 81.5241 37.4814C86.8306 39.2291 88.5544 46.0609 83.9073 52.1856C80.5867 56.5865 75.3199 59.5417 72.6269 60.8445C72.3091 61.0033 72.0152 61.1304 71.7769 61.2417L70.9349 60.8127C68.2975 59.4066 63.1498 56.2529 60.012 51.7249C55.6667 45.4333 57.6606 38.6651 63.0307 37.124Z" fill="#EB012A"/>
<path d="M60.5445 196.708C60.5445 196.708 37.1973 219.451 29.9128 234.918C22.6282 250.385 26.7352 249.718 33.8847 254.611C48.1838 264.446 78.7757 277.1 78.7757 277.1C78.7757 277.1 79.3795 287.078 84.5351 290.414C89.6907 293.751 104.252 274.725 102.131 271.5C100.01 268.275 85.4486 269.299 85.4486 269.299C85.4486 269.299 78.1561 266.384 67.8449 257.924C60.4809 252.048 52.7894 246.595 44.8076 241.591C44.8076 241.591 57.5179 223.9 64.2543 219.07C70.9907 214.24 81.8103 207.313 81.8103 207.313" fill="white"/>
<path d="M60.5445 196.708C60.5445 196.708 37.1973 219.451 29.9128 234.918C22.6282 250.385 26.7352 249.718 33.8847 254.611C48.1838 264.446 78.7757 277.1 78.7757 277.1C78.7757 277.1 79.3795 287.078 84.5351 290.414C89.6907 293.751 104.252 274.725 102.131 271.5C100.01 268.275 85.4486 269.299 85.4486 269.299C85.4486 269.299 78.1561 266.384 67.8449 257.924C60.4809 252.048 52.7894 246.595 44.8076 241.591C44.8076 241.591 57.5179 223.9 64.2543 219.07C70.9907 214.24 81.8103 207.313 81.8103 207.313" stroke="#263238" stroke-width="1.14453" stroke-linecap="round" stroke-linejoin="round"/>
<path d="M159.843 327.965C146.005 332.604 132.747 335.988 121.228 336.878C120.378 336.942 119.528 336.997 118.694 337.037C118.543 334.273 118.297 329.093 118.019 327.504C117.745 325.93 116.964 324.487 115.794 323.397L110.941 325.979L109.59 337.045C88.4197 336.727 74.9866 330.69 74.9866 330.69L76.9011 319.139C75.9206 315.666 75.489 312.061 75.6221 308.455C76.2099 286.895 92.63 262.118 92.63 262.118C92.63 262.118 130.356 235.498 142.851 257.082C155.347 278.665 159.843 327.965 159.843 327.965Z" fill="#BFBFBF"/>
<path opacity="0.2" d="M141.231 326.266C140.992 328.419 126.932 331.31 121.236 326.314C121.776 326.822 126.558 331.398 125.295 332.979C124.032 334.559 121.188 332.979 121.188 332.979C121.56 334.252 121.56 335.605 121.188 336.879C120.338 336.943 119.488 336.998 118.654 337.038C118.503 334.273 118.257 329.094 117.979 327.505C117.705 325.93 116.924 324.488 115.755 323.398L110.901 325.98L109.55 337.046C88.3799 336.728 74.9468 330.691 74.9468 330.691L76.8613 319.14C75.8808 315.667 75.4492 312.062 75.5823 308.456C77.894 312.428 81.9374 317.639 87.4982 318.505C96.7766 319.927 104.069 313.317 104.069 313.317C104.069 313.317 101.916 307.336 104.069 301.449C104.069 301.449 103.036 316.431 121.164 318.505C138.832 320.523 142.613 316.63 142.78 316.455C142.494 316.86 138.013 323.398 135.336 324.105C135.36 324.113 141.477 324.113 141.231 326.266Z" fill="black"/>
<path d="M159.843 327.966C159.843 327.966 155.339 278.714 142.851 257.09C130.363 235.467 92.6299 262.127 92.6299 262.127C92.6299 262.127 70.0772 296.135 76.8613 319.156L74.9468 330.691" stroke="#263238" stroke-width="1.14453" stroke-linecap="round" stroke-linejoin="round"/>
<path d="M107.119 279.031C107.119 279.031 100.288 305.286 107.119 313.19C113.951 321.094 133.922 321.666 139.316 320.578C144.71 319.49 146.505 315.708 146.505 315.708" stroke="#263238" stroke-width="1.14453" stroke-linecap="round" stroke-linejoin="round"/>
<path d="M117.375 282.868C117.375 282.868 115.484 296.293 117.566 302.767L127.384 306.366L135.328 301.091C135.328 301.091 134.447 288.619 134.59 282.868C134.613 282.868 124.699 281.184 117.375 282.868Z" stroke="#263238" stroke-width="1.14453" stroke-linecap="round" stroke-linejoin="round"/>
<path d="M116.589 297.016C116.589 297.016 122.491 294.784 125.97 299.892C125.97 299.892 126.558 294.617 134.613 295.578" stroke="#263238" stroke-width="1.14453" stroke-linecap="round" stroke-linejoin="round"/>
<path d="M118.63 285.149C118.63 285.149 130.633 284.354 134.613 285.943" stroke="#263238" stroke-width="1.14453" stroke-linecap="round" stroke-linejoin="round"/>
<path d="M84.3207 285.195C84.3207 285.195 79.61 297.167 79.7768 303.411L87.7207 306.93L96.2922 301.25C96.2922 301.25 97.6903 289.263 98.7548 284.163C98.7151 284.163 90.6282 283.352 84.3207 285.195Z" stroke="#263238" stroke-width="1.14453" stroke-linecap="round" stroke-linejoin="round"/>
<path d="M80.4043 297.827C80.4043 297.827 85.965 295.507 87.9033 300.321C87.9033 300.321 89.5557 295.182 96.5781 295.778" stroke="#263238" stroke-width="1.14453" stroke-linecap="round" stroke-linejoin="round"/>
<path d="M84.8447 287.046C84.8447 287.046 95.0447 285.696 98.2223 286.832" stroke="#263238" stroke-width="1.14453" stroke-linecap="round" stroke-linejoin="round"/>
<path d="M85.9014 277.101C85.9014 277.101 96.8719 275.139 106.405 282.121C118.366 275.595 132.122 273.122 145.608 275.075" stroke="#263238" stroke-width="1.14453" stroke-linecap="round" stroke-linejoin="round"/>
<path d="M148.412 274.385C153.277 292.054 156.139 310.214 156.943 328.522" stroke="#263238" stroke-width="1.14453" stroke-linecap="round" stroke-linejoin="round"/>
<path d="M142.764 184.015C145.33 190.537 170.004 222.884 172.022 232.187C174.039 241.489 173.841 249.576 162.489 246.748C151.137 243.92 146.387 209.364 133.843 190.942" fill="white"/>
<path d="M142.764 184.015C145.33 190.537 170.004 222.884 172.022 232.187C174.039 241.489 173.841 249.576 162.489 246.748C151.137 243.92 146.387 209.364 133.843 190.942" stroke="#263238" stroke-width="1.14453" stroke-linecap="round" stroke-linejoin="round"/>
<path d="M141.612 187.858C142.149 187.223 142.521 186.465 142.694 185.652C142.868 184.838 142.837 183.994 142.605 183.195C142.024 179.916 140.902 176.756 139.285 173.845C136.846 169.873 138.617 166.028 136.981 166.108C135.344 166.187 135.003 169.778 135.003 169.778C135.003 169.778 131.825 166.211 129.855 165.155C128.957 164.67 123.325 162.358 123.325 162.358L117.566 162.636C117.566 162.636 117.518 165.361 122.809 165.02L126.336 167.816C126.336 167.816 123.008 168.801 122.833 170.294C122.658 171.788 120.847 171.883 121.037 173.909C121.228 175.935 120.291 176.205 121.959 178.786C123.953 181.885 125.986 180.868 125.986 180.868C125.986 180.868 127.679 189.606 129.514 191.322C130.451 192.188 132.389 192.323 134.51 191.878" fill="white"/>
<path d="M141.612 187.858C142.149 187.223 142.521 186.465 142.694 185.652C142.868 184.838 142.837 183.994 142.605 183.195C142.024 179.916 140.902 176.756 139.285 173.845C136.846 169.873 138.617 166.028 136.981 166.108C135.344 166.187 135.003 169.778 135.003 169.778C135.003 169.778 131.825 166.211 129.855 165.155C128.957 164.67 123.325 162.358 123.325 162.358L117.566 162.636C117.566 162.636 117.518 165.361 122.809 165.02L126.336 167.816C126.336 167.816 123.008 168.801 122.833 170.294C122.658 171.788 120.847 171.883 121.037 173.909C121.228 175.935 120.291 176.205 121.959 178.786C123.953 181.885 125.986 180.868 125.986 180.868C125.986 180.868 127.679 189.606 129.514 191.322C130.451 192.188 132.389 192.323 134.51 191.878" stroke="#263238" stroke-width="1.14453" stroke-linecap="round" stroke-linejoin="round"/>
<path d="M122.833 170.327C122.833 170.327 124.874 174.982 126.082 176.206C127.289 177.429 129.45 176.134 130.276 176.031C131.341 175.904 132.079 176.031 131.913 175.594C131.007 173.211 128.425 173.815 128.425 173.815C128.425 173.815 127.631 171.249 126.137 170.2" stroke="#263238" stroke-width="1.14453" stroke-linecap="round" stroke-linejoin="round"/>
<path d="M135.003 169.778C134.952 170.975 135.069 172.173 135.352 173.337C135.352 173.337 133.604 177.389 133.914 179.303" stroke="#263238" stroke-width="1.14453" stroke-linecap="round" stroke-linejoin="round"/>
<path d="M121.037 174.283C121.832 176.007 123.532 178.335 125.009 178.692C126.487 179.05 131.476 177.651 131.078 175.967" stroke="#263238" stroke-width="1.14453" stroke-linecap="round" stroke-linejoin="round"/>
<path d="M127.13 171.193C127.13 171.193 128.178 171.193 128.178 169.517" stroke="#263238" stroke-width="1.14453" stroke-linecap="round" stroke-linejoin="round"/>
<path d="M126.336 167.848C126.336 167.848 128.401 168.579 129.339 166.95" stroke="#263238" stroke-width="1.14453" stroke-linecap="round" stroke-linejoin="round"/>
<path d="M74.5655 120.812C79.443 104.083 109.344 104.472 116.215 117.881C123.087 131.29 120.259 128.296 120.664 133.03C121.069 137.765 124.707 141.236 123.905 149.403C123.103 157.569 123.5 160.675 121.474 162.764C119.449 164.853 104.609 162.518 101.519 160.651C101.519 160.651 66.1052 149.959 74.5655 120.812Z" fill="white" stroke="#263238" stroke-width="1.14453" stroke-linecap="round" stroke-linejoin="round"/>
<path d="M84.8685 151.674C87.1007 156.369 87.8316 175.974 83.2241 180.629C83.2241 180.629 95.3942 185.888 112.783 179.62C112.783 179.62 107.525 172.948 107.525 167.18C107.525 161.413 114.197 160.611 114.197 160.611" fill="white"/>
<path d="M84.8685 151.674C87.1007 156.369 87.8316 175.974 83.2241 180.629C83.2241 180.629 95.3942 185.888 112.783 179.62C112.783 179.62 107.525 172.948 107.525 167.18C107.525 161.413 114.197 160.611 114.197 160.611" stroke="#263238" stroke-width="1.14453" stroke-linecap="round" stroke-linejoin="round"/>
<path d="M120.41 128.836C121.125 129.281 119.361 132.704 117.081 134.095H118.741C118.741 134.095 117.836 137.272 117.081 137.558C116.327 137.844 114.198 129.869 109.042 134.095C109.042 134.095 110.861 122.846 120.41 128.836Z" fill="#182835" stroke="#263238" stroke-width="1.14453" stroke-linecap="round" stroke-linejoin="round"/>
<path d="M105.094 105.076C105.094 105.076 118.44 107.236 121.776 115.728C125.113 124.22 119.043 132.998 114.198 134.095C106.611 135.811 107.223 144.255 109.948 151.674C112.672 159.094 117.097 164.385 115.913 171.987C115.913 171.987 111.203 166.426 107.866 169.922C104.53 173.417 100.772 173.79 93.5673 172.154C86.3621 170.517 86.5528 173.067 83.2402 175.173C79.9276 177.278 72.8178 170.668 72.2061 175.776C71.5944 180.884 69.6323 181.377 69.6323 181.377C69.6323 181.377 60.2267 175.554 62.9594 167.181C65.6921 158.808 68.4168 156.743 67.2014 149.704C65.986 142.666 64.151 130.345 66.8996 117.881C69.6481 105.417 92.0738 99.3639 105.094 105.076Z" fill="#182835" stroke="#263238" stroke-width="1.14453" stroke-linecap="round" stroke-linejoin="round"/>
<path d="M115.31 137.764C115.31 137.764 114.198 131.798 112.983 131.798C111.767 131.798 111.267 135.77 111.267 135.77C111.267 135.77 109.829 137.359 109.749 140.957C109.67 144.556 112.077 145.811 112.077 145.811C112.077 145.811 113.189 149.251 115.31 148.544C117.431 147.837 113.285 145.104 113.388 136.628" fill="white"/>
<path d="M115.31 137.764C115.31 137.764 114.198 131.798 112.983 131.798C111.767 131.798 111.267 135.77 111.267 135.77C111.267 135.77 109.829 137.359 109.749 140.957C109.67 144.556 112.077 145.811 112.077 145.811C112.077 145.811 113.189 149.251 115.31 148.544C117.431 147.837 113.285 145.104 113.388 136.628" stroke="#263238" stroke-width="1.14453" stroke-linecap="round" stroke-linejoin="round"/>
<path d="M115.413 152.501C115.413 152.501 115.866 158.109 119.385 161.748L115.413 152.501Z" fill="white"/>
<path d="M115.413 152.501C115.413 152.501 115.866 158.109 119.385 161.748" stroke="#263238" stroke-width="1.14453" stroke-linecap="round" stroke-linejoin="round"/>
<path d="M118.94 120.216C117.455 123.274 114.968 125.236 112.355 127.286C104.872 133.148 93.7344 138.844 93.5596 149.823C93.5557 152.075 94.0098 154.305 94.8942 156.376" stroke="#263238" stroke-width="1.14453" stroke-linecap="round" stroke-linejoin="round"/>
<path d="M106.421 159.333C106.659 160.747 106.905 162.169 107.12 163.591" stroke="#263238" stroke-width="1.14453" stroke-linecap="round" stroke-linejoin="round"/>
<path d="M109.749 136.787C103.99 141.053 104.983 149.974 105.912 156.154" stroke="#263238" stroke-width="1.14453" stroke-linecap="round" stroke-linejoin="round"/>
<path d="M83.5821 129.471C85.1152 141.514 86.9344 154.24 81.3816 165.965" stroke="#263238" stroke-width="1.14453" stroke-linecap="round" stroke-linejoin="round"/>
<path d="M103.442 105.782C99.6702 105.502 95.8895 106.185 92.4551 107.768C85.6154 111.105 84.1299 119.017 83.7168 125.96" stroke="#263238" stroke-width="1.14453" stroke-linecap="round" stroke-linejoin="round"/>
<path d="M70.7365 165.854C70.3562 167.321 70.2193 168.84 70.3313 170.351" stroke="#263238" stroke-width="1.14453" stroke-linecap="round" stroke-linejoin="round"/>
<path d="M70.6651 121.179C70.0375 128.328 70.6651 135.573 71.6343 142.699C72.1109 146.266 72.6511 149.848 73.1436 153.391C73.6361 156.934 72.6431 159.929 71.5548 163.202" stroke="#263238" stroke-width="1.14453" stroke-linecap="round" stroke-linejoin="round"/>
<path d="M73.2548 111.177C71.8329 113.226 71.3721 115.943 71.0146 118.382" stroke="#263238" stroke-width="1.14453" stroke-linecap="round" stroke-linejoin="round"/>
<path d="M107.414 166.442C108.286 165.989 109.277 165.816 110.251 165.949C111.226 166.081 112.135 166.511 112.855 167.18" stroke="#263238" stroke-width="1.14453" stroke-linecap="round" stroke-linejoin="round"/>
<path d="M88.1733 167.094C91.2079 166.625 93.7897 168.555 96.5383 169.477C99.6126 170.478 102.051 169.787 104.689 168.055" stroke="#263238" stroke-width="1.14453" stroke-linecap="round" stroke-linejoin="round"/>
<path d="M67.3765 176.419C69.0685 176.959 69.4657 174.568 69.9662 173.48C70.9274 171.399 71.6106 170.994 73.8746 171.51C79.1414 172.717 82.4699 173.893 85.7904 168.904" stroke="#263238" stroke-width="1.14453" stroke-linecap="round" stroke-linejoin="round"/>
<path d="M65.0649 187.413C65.0649 187.413 75.9798 178.77 95.6966 177.126C115.413 175.481 128.449 176.689 133.303 181.543C138.157 186.396 146.466 203.357 146.546 211.563C146.601 216.726 140.421 231.279 140.421 231.279L149.652 273.549C149.652 273.549 122.857 271.507 98.7073 273.636C86.4419 274.709 83.2246 277.1 83.2246 277.1C83.2246 277.1 88.42 258.757 89.3256 254.269C90.2312 249.781 60.5448 203.301 65.0649 187.413Z" fill="#263238"/>
<path d="M172.482 243.467C170.607 253.214 167.167 251.196 160.701 248.162C154.235 245.127 143.288 234.212 131.07 218.436L145.091 200.888C145.091 200.888 156.046 216.418 160.701 221.47C165.356 226.523 167.978 234.181 167.978 234.181" fill="white"/>
<path d="M172.482 243.467C170.607 253.214 167.167 251.196 160.701 248.162C154.235 245.127 143.288 234.212 131.07 218.436L145.091 200.888C145.091 200.888 156.046 216.418 160.701 221.47C165.356 226.523 167.978 234.181 167.978 234.181" stroke="#263238" stroke-width="1.14453" stroke-linecap="round" stroke-linejoin="round"/>
<path d="M114.197 176.729C114.197 176.729 126.002 175.505 131.936 180.423C137.87 185.34 144.646 197.748 148.412 203.46C148.412 203.46 140.531 218.045 131.308 220.476C131.308 220.476 127.336 214.002 124.016 211.984C120.695 209.966 117.565 205.104 117.565 205.104" fill="#263238"/>
<path d="M73.4296 182.695C63.5474 185.785 53.8399 201.252 48.0806 206.408C48.0806 206.408 52.124 217.712 64.1908 221.859C64.1908 221.859 70.2679 216.719 73.4296 217.934C76.5913 219.15 73.4296 182.695 73.4296 182.695Z" fill="#263238"/>
<path d="M119.329 113.218C119.393 114.584 119.48 115.95 119.44 117.317" stroke="#263238" stroke-width="1.14453" stroke-linecap="round" stroke-linejoin="round"/>
<path d="M44.7438 241.56C44.7438 241.56 41.4788 246.088 36.4424 245.905" stroke="#263238" stroke-width="1.14453" stroke-linecap="round" stroke-linejoin="round"/>
<path d="M131.07 218.436C131.07 218.436 126.352 209.816 124.016 209.967C121.681 210.118 117.311 194.699 126.336 184.015" stroke="white" stroke-width="1.14453" stroke-linecap="round" stroke-linejoin="round"/>
<path d="M81.405 181.376C81.405 181.376 86.9658 185.888 107.477 179.303" stroke="white" stroke-width="1.14453" stroke-linecap="round" stroke-linejoin="round"/>
<path d="M81.405 190.545C81.405 190.545 96.6732 190.195 104.085 184.015" stroke="white" stroke-width="1.14453" stroke-linecap="round" stroke-linejoin="round"/>
<path d="M64.167 193.666C64.167 193.666 62.6259 211.055 73.2548 215.671" stroke="white" stroke-width="1.14453" stroke-linecap="round" stroke-linejoin="round"/>
<path d="M61.458 209.968C61.458 209.968 63.8412 216.093 71.8486 215.671" stroke="white" stroke-width="1.14453" stroke-linecap="round" stroke-linejoin="round"/>
<path d="M115.754 203.492C115.754 203.492 116.811 210.745 126.622 211.794" stroke="white" stroke-width="1.14453" stroke-linecap="round" stroke-linejoin="round"/>
<path d="M92.5903 250.655C92.5903 250.655 116.676 246.175 120.561 238.509" stroke="white" stroke-width="1.14453" stroke-linecap="round" stroke-linejoin="round"/>
<path d="M98.2222 256.972C98.2222 256.972 106.77 268.482 120.886 265.845" stroke="white" stroke-width="1.14453" stroke-linecap="round" stroke-linejoin="round"/>
</g>
<defs>
<clipPath id="clip0_110_471">
<rect width="426" height="306" fill="white"/>
</clipPath>
</defs>
</svg>
