<svg width="155" height="59" viewBox="0 0 155 59" fill="none" xmlns="http://www.w3.org/2000/svg">
<path d="M12.992 54.92C9.888 54.92 8.544 52.936 8.544 49.992C8.544 40.392 20.704 32.296 28.512 29.256C28.64 29.192 28.864 29.128 29.024 29.128C28.544 28.968 28 28.936 27.52 28.84C23.936 28.2 16.704 26.984 16.672 22.568C16.672 13.416 29.728 6.92 35.712 6.92C36.64 6.92 38.752 7.272 38.752 8.488C38.752 9.736 37.024 12.04 36.256 13C33.824 16.104 27.232 22.12 27.232 25.576C27.232 27.464 29.088 26.184 29.28 27.08C29.28 27.272 28.448 27.336 28.256 27.336C26.912 27.336 25.504 26.888 25.504 25.288C25.504 21.416 33.12 14.6 35.616 11.144C36.16 10.376 36.896 9.48 36.896 8.488C36.896 8.392 36.832 8.36 36.704 8.36C34.848 8.36 21.248 16.392 20.864 22.6V22.888C20.864 26.376 25.088 27.304 27.712 27.88C28.704 28.104 29.856 28.488 30.88 28.488C31.616 28.488 32.288 27.912 33.12 27.912C33.408 27.912 33.792 28.072 33.792 28.264C33.792 28.36 33.728 28.456 33.6 28.552C33.248 28.808 32.8 28.808 32.384 28.968C34.432 29.736 36.384 30.856 36.384 33.352C36.384 38.28 29.056 45.544 25.344 48.456C22.528 50.664 16.576 54.92 12.992 54.92ZM14.848 51.304C22.816 51.304 29.728 42.152 32.192 38.728C33.216 37.288 34.368 35.08 34.368 33.256C34.368 31.208 32.352 29.544 30.592 29.544C30.432 29.544 30.272 29.608 30.112 29.672C19.328 33.608 11.488 43.4 11.488 48.328C11.488 50.152 12.544 51.304 14.848 51.304Z" fill="#EB012A"/>
<path d="M44.8902 38.12C40.8902 38.12 40.4422 33.544 40.4422 29.896L40.4742 27.176C38.4582 27.176 36.2502 27.4 34.2342 27.4C33.4982 27.4 33.3062 26.984 33.3062 26.76C33.3062 26.632 33.3382 26.568 33.3702 26.568C33.6902 26.632 34.1062 26.696 34.8422 26.696C36.4422 26.696 38.8422 26.472 40.5382 26.408C40.8262 25.096 41.2742 19.752 41.9142 18.92C42.2022 18.536 42.7462 18.376 43.2902 18.376C44.4742 18.376 45.9142 19.048 45.9142 19.784C45.9142 19.912 45.8502 20.072 45.7222 20.2C44.4742 21.576 43.4502 25.512 43.3542 26.344C44.2502 26.312 49.1462 26.088 53.2742 26.088C56.2502 26.088 58.8102 26.216 59.1622 26.568C59.3222 26.728 59.3862 26.888 59.3862 26.984C59.3862 27.208 59.1943 27.304 58.8742 27.304C58.2662 27.304 58.3942 26.888 57.5623 26.76C57.1462 26.696 56.3142 26.696 55.2902 26.696C51.0982 26.696 43.2582 27.016 43.1942 27.08C43.0662 27.368 42.8742 28.968 42.8742 30.824C42.8742 33.544 43.2902 36.84 44.9542 37.288C45.1142 37.32 45.2742 37.352 45.4342 37.352C47.8342 37.352 52.0582 33.256 53.3062 31.528C53.4342 31.368 53.6902 31.368 53.8822 31.368C54.1062 31.368 54.6502 31.464 54.6502 31.784C54.6502 32.104 51.4182 34.696 50.9702 35.08C49.3702 36.392 47.0342 38.12 44.8902 38.12ZM60.2063 46.28C59.3423 46.28 59.0223 45.512 59.0223 44.776C59.0223 40.424 61.9663 37.704 63.1183 36.264C63.1823 35.976 63.2143 35.688 63.2143 35.368C63.2143 33.96 62.6383 32.392 62.2543 32.392C61.1983 32.456 60.7823 37.448 57.3583 37.448C54.6063 37.448 54.3503 33.256 54.3503 32.232C54.3823 30.92 55.7263 30.216 56.7183 30.216C56.9103 30.216 57.0703 30.248 57.1983 30.28C58.0623 30.536 58.3183 31.208 58.3183 31.976C58.3183 33.16 57.7423 34.632 57.7423 35.432C57.7423 35.816 57.8703 36.04 58.2223 36.04C60.0463 36.04 60.7183 32.072 61.6143 30.728C61.8703 30.376 62.4463 29.288 63.4703 29.288C65.1023 29.288 65.5503 30.536 65.5503 31.88C65.5503 32.744 65.3903 33.64 65.2303 34.344C66.2863 33.544 68.7823 31.496 69.9663 31.496C70.1903 31.496 70.6383 31.592 70.6383 31.88C70.6383 32.04 70.0943 32.264 69.9663 32.328C68.1103 33.288 66.5423 34.728 65.1343 36.296C64.6543 39.624 63.6303 44.232 61.4543 45.96C61.1023 46.248 60.6543 46.28 60.2063 46.28ZM60.5263 45.096C61.4543 43.88 62.6703 40.04 62.9263 38.536C61.9983 39.432 60.4623 41.576 60.4623 44.2C60.4623 44.488 60.4943 44.776 60.5263 45.096ZM75.5955 38.952C72.1075 38.952 70.8915 33.896 70.8915 28.872C70.8915 26.408 71.1795 23.976 71.6275 22.12C72.0435 20.36 73.6115 16.872 75.7235 16.872C76.9395 16.872 77.5155 18.152 77.5155 19.4C77.5155 24.264 75.9795 29.32 73.6115 32.648V32.936C73.6115 34.472 74.0595 38.28 75.7555 38.28C79.0835 38.28 81.4515 33.64 82.1875 31.848C82.2835 31.592 82.5395 31.464 82.7955 31.464C83.0515 31.464 83.3075 31.624 83.3075 32.04C83.3075 32.168 83.2755 32.328 83.2115 32.52C81.8035 35.624 78.6995 38.952 75.5955 38.952ZM73.6115 30.824C74.9875 29.736 76.7155 23.304 76.7155 20.136C76.7155 19.08 76.5235 18.376 76.0435 18.376C74.9235 18.376 73.6115 28.872 73.6115 30.824ZM86.7555 36.104H86.5315C84.8355 36.104 82.9795 35.112 82.9795 33.224C82.9795 31.528 84.7395 29.224 86.5315 28.968C86.6595 28.968 86.8195 28.936 86.9475 28.904H87.1715C88.2595 28.904 89.2195 29.384 89.2195 30.312C89.2195 31.56 88.2915 32.616 86.4995 32.712H86.2115C85.5075 32.712 85.2835 32.488 85.0915 32.328C84.9955 32.584 84.9635 32.904 84.9635 33.256C84.9635 34.248 85.4115 35.368 86.7235 35.368H86.8835C89.4755 35.24 91.2995 33.832 91.9715 31.688C92.0675 31.432 92.2275 31.368 92.4515 31.336C92.7075 31.336 92.9955 31.432 93.1555 31.56C93.1555 33.128 90.6915 35.88 86.7555 36.104ZM85.5075 31.944L85.7315 31.912C86.7875 31.88 87.2675 31.176 87.2675 30.376C87.2675 30.216 87.2035 30.152 87.0755 30.152C86.5635 30.184 85.2835 31.4 85.2515 31.912L85.5075 31.944ZM105.211 38.376C102.939 38.376 102.939 36.872 102.939 35.944C102.939 34.056 104.411 30.568 104.411 29.672C104.411 29.512 104.379 29.448 104.283 29.448C103.483 29.512 101.467 33.192 100.443 34.568C99.8665 35.336 99.2265 36.296 98.2025 36.296C97.3705 36.296 96.8905 35.592 96.8905 34.248C96.8905 33.576 97.0185 32.744 97.2425 31.784C96.2825 32.424 95.9305 35.176 94.5865 35.176C93.5945 35.176 93.4665 34.216 93.4665 33.32V31.944C93.4665 31.368 93.5625 30.728 94.1705 30.728C94.5545 30.728 95.4185 30.728 95.4185 31.208L95.3865 31.272C95.2265 32.232 94.8105 33.064 94.8105 34.056C95.7385 33.128 96.1545 29.832 97.6265 29.832C99.1625 29.864 99.5785 30.504 99.5785 31.4C99.5785 32.136 99.3225 33 99.1305 33.928L99.1625 33.992C99.4825 33.992 102.843 28.136 104.827 28.136C106.075 28.136 106.107 28.936 106.107 29.928C106.107 31.4 105.691 32.904 105.691 34.376C105.691 35.272 105.979 35.624 106.427 35.624C107.803 35.624 110.651 32.488 111.642 31.752C111.707 31.688 111.867 31.656 111.995 31.656C112.219 31.656 112.411 31.752 112.411 32.072C112.411 32.136 112.411 32.2 112.378 32.296C112.378 32.52 109.051 38.376 105.211 38.376ZM120.211 37.672C118.579 37.672 118.323 36.488 118.291 34.92C118.291 33.576 118.643 32.36 118.643 32.2C116.723 33.608 115.571 35.72 113.747 35.848C112.499 35.848 111.859 35.176 111.859 33.928C111.859 31.784 113.907 28.84 116.211 28.84C117.299 28.84 117.939 29.576 118.515 30.408C118.931 29.928 119.507 29.608 120.147 29.608C121.011 29.608 121.971 30.184 121.971 31.112C121.971 31.816 120.275 34.12 120.275 35.496C120.275 36.232 120.819 36.392 121.459 36.392C123.859 36.392 126.835 32.552 127.827 31.432C127.891 31.368 127.955 31.336 128.019 31.336C128.115 31.336 128.179 31.432 128.179 31.592C128.179 31.752 128.115 31.944 127.987 32.072C126.099 34.28 123.411 37.672 120.211 37.672ZM115.059 34.152C115.763 34.152 117.235 31.88 117.459 31.4C117.523 31.24 117.555 31.112 117.555 30.952C117.555 30.248 116.915 29.64 116.371 29.64C115.571 29.96 114.675 31.752 114.675 33.32C114.675 33.896 114.835 34.152 115.059 34.152ZM133.24 38.12C129.24 38.12 128.792 33.544 128.792 29.896L128.824 27.176C126.808 27.176 124.6 27.4 122.584 27.4C121.848 27.4 121.656 26.984 121.656 26.76C121.656 26.632 121.688 26.568 121.72 26.568C122.04 26.632 122.456 26.696 123.192 26.696C124.792 26.696 127.192 26.472 128.888 26.408C129.176 25.096 129.624 19.752 130.264 18.92C130.552 18.536 131.096 18.376 131.64 18.376C132.824 18.376 134.264 19.048 134.264 19.784C134.264 19.912 134.2 20.072 134.072 20.2C132.824 21.576 131.8 25.512 131.704 26.344C132.6 26.312 137.496 26.088 141.624 26.088C144.6 26.088 147.16 26.216 147.512 26.568C147.672 26.728 147.736 26.888 147.736 26.984C147.736 27.208 147.544 27.304 147.224 27.304C146.616 27.304 146.744 26.888 145.912 26.76C145.496 26.696 144.664 26.696 143.64 26.696C139.448 26.696 131.608 27.016 131.544 27.08C131.416 27.368 131.224 28.968 131.224 30.824C131.224 33.544 131.64 36.84 133.304 37.288C133.464 37.32 133.624 37.352 133.784 37.352C136.184 37.352 140.408 33.256 141.656 31.528C141.784 31.368 142.04 31.368 142.232 31.368C142.456 31.368 143 31.464 143 31.784C143 32.104 139.768 34.696 139.32 35.08C137.72 36.392 135.384 38.12 133.24 38.12ZM146.124 36.104H145.9C144.204 36.104 142.348 35.112 142.348 33.224C142.348 31.528 144.108 29.224 145.9 28.968C146.028 28.968 146.188 28.936 146.316 28.904H146.54C147.628 28.904 148.588 29.384 148.588 30.312C148.588 31.56 147.66 32.616 145.868 32.712H145.58C144.876 32.712 144.652 32.488 144.46 32.328C144.364 32.584 144.332 32.904 144.332 33.256C144.332 34.248 144.78 35.368 146.092 35.368H146.252C148.844 35.24 150.668 33.832 151.34 31.688C151.436 31.432 151.596 31.368 151.82 31.336C152.076 31.336 152.364 31.432 152.524 31.56C152.524 33.128 150.06 35.88 146.124 36.104ZM144.876 31.944L145.1 31.912C146.156 31.88 146.636 31.176 146.636 30.376C146.636 30.216 146.572 30.152 146.444 30.152C145.932 30.184 144.652 31.4 144.62 31.912L144.876 31.944Z" fill="white"/>
<path d="M155 29C155 30.1046 154.167 31 153.139 31C152.111 31 152.249 30.2441 151.278 29C150.306 27.7559 152.111 27 153.139 27C154.167 27 155 27.8954 155 29Z" fill="#EB012A"/>
</svg>
