<svg width="35" height="35" viewBox="0 0 35 35" fill="none" xmlns="http://www.w3.org/2000/svg">
<path d="M17.5 35C27.165 35 35 27.165 35 17.5C35 7.83502 27.165 0 17.5 0C7.83502 0 0 7.83502 0 17.5C0 27.165 7.83502 35 17.5 35Z" fill="white"/>
<mask id="mask0_123_219" style="mask-type:alpha" maskUnits="userSpaceOnUse" x="9" y="10" width="19" height="16">
<path d="M9.33398 25.4013V10.5H27.4405V25.4013H9.33398Z" fill="white"/>
</mask>
<g mask="url(#mask0_123_219)">
<path fill-rule="evenodd" clip-rule="evenodd" d="M11.4567 16.2764C11.8942 16.3979 12.2904 16.5081 12.6867 16.6182C11.4664 15.4413 11.1293 14.1343 11.8933 12.5466C13.6001 14.4791 15.7105 15.5391 18.3161 15.7245C18.155 14.8758 18.2756 14.1183 18.7264 13.4217C19.7457 11.8469 21.9654 11.52 23.4097 12.7454C23.6112 12.9164 23.7872 12.9563 24.0233 12.8688C24.5378 12.6781 25.055 12.4943 25.5562 12.3131C25.4628 12.7728 25.3533 12.9253 24.3683 13.9154C24.9515 13.7613 25.4396 13.6323 25.9279 13.5033C25.9519 13.5248 25.976 13.5465 26 13.568C25.6191 13.9533 25.2595 14.3622 24.849 14.715C24.6016 14.9276 24.4884 15.1276 24.4868 15.4563C24.466 19.5695 21.2555 23.8597 15.9864 23.9964C14.3131 24.0399 12.7537 23.6919 11.2933 22.9063C11.1901 22.8508 11.0945 22.7819 11 22.6857C12.6031 22.7719 14.0521 22.3987 15.2838 21.5069C14.7396 21.2667 14.1584 21.0726 13.6473 20.7675C13.1114 20.4477 12.7692 19.9346 12.5588 19.2868H13.7697C12.3476 18.7354 11.5439 17.7854 11.4567 16.2764Z" fill="#EB012A"/>
</g>
</svg>
