<svg width="315" height="306" viewBox="0 0 315 306" fill="none" xmlns="http://www.w3.org/2000/svg">
<g clip-path="url(#clip0_178_20)">
<g filter="url(#filter0_f_178_20)">
<path d="M101.112 199.488C38.5047 217.543 3.13984 196.918 26.5878 165.032C50.0358 133.146 20.828 105.682 47.1469 92.4165C73.4659 79.1512 105.572 106.424 117.748 119.086C129.923 131.749 163.72 181.433 101.112 199.488Z" fill="#FCC7A3"/>
</g>
<path d="M131.764 28H27.6593C24.3019 28 21.0819 29.3337 18.7078 31.7078C16.3337 34.0819 15 37.3019 15 40.6593V293.177C15 296.534 16.3337 299.754 18.7078 302.128C21.0819 304.502 24.3019 305.836 27.6593 305.836H131.764C135.122 305.836 138.342 304.502 140.716 302.128C143.09 299.754 144.423 296.534 144.423 293.177V40.6593C144.423 37.3019 143.09 34.0819 140.716 31.7078C138.342 29.3337 135.122 28 131.764 28ZM138.794 287.136C138.794 290.494 137.46 293.714 135.086 296.088C132.712 298.462 129.492 299.795 126.134 299.795H33.2891C29.9316 299.795 26.7117 298.462 24.3376 296.088C21.9635 293.714 20.6298 290.494 20.6298 287.136V46.7303C20.6258 45.0653 20.9502 43.4159 21.5846 41.8765C22.219 40.3371 23.1509 38.9379 24.3268 37.7592C25.5027 36.5804 26.8996 35.6452 28.4375 35.0071C29.9754 34.369 31.6241 34.0406 33.2891 34.0406H50.5587L51.6391 39.0313C51.9523 40.4895 52.7561 41.7962 53.9162 42.7335C55.0764 43.6708 56.5229 44.1819 58.0144 44.1817H104.232C105.723 44.1819 107.17 43.6708 108.33 42.7335C109.49 41.7962 110.294 40.4895 110.607 39.0313L111.68 34.0406H126.134C129.492 34.0406 132.712 35.3743 135.086 37.7484C137.46 40.1225 138.794 43.3424 138.794 46.6999V287.136Z" fill="#878787" stroke="#263238" stroke-width="1.6935" stroke-miterlimit="10"/>
<path d="M134.351 30.0312H37.9831C29.5798 30.0312 22.7676 36.8435 22.7676 45.2468V286.664C22.7676 295.068 29.5798 301.88 37.9831 301.88H134.351C142.754 301.88 149.566 295.068 149.566 286.664V45.2468C149.566 36.8435 142.754 30.0312 134.351 30.0312Z" fill="white" stroke="#263238" stroke-width="1.6935" stroke-miterlimit="10"/>
<path d="M137.34 28H33.2356C29.8782 28 26.6582 29.3337 24.2841 31.7078C21.91 34.0819 20.5763 37.3019 20.5763 40.6593V293.177C20.5763 296.534 21.91 299.754 24.2841 302.128C26.6582 304.502 29.8782 305.836 33.2356 305.836H137.34C140.698 305.836 143.918 304.502 146.292 302.128C148.666 299.754 150 296.534 150 293.177V40.6593C150 37.3019 148.666 34.0819 146.292 31.7078C143.918 29.3337 140.698 28 137.34 28ZM144.37 287.136C144.37 290.494 143.036 293.714 140.662 296.088C138.288 298.462 135.068 299.795 131.711 299.795H38.8958C35.5384 299.795 32.3184 298.462 29.9443 296.088C27.5702 293.714 26.2365 290.494 26.2365 287.136V46.7303C26.2325 45.0679 26.556 43.4209 27.1885 41.8835C27.821 40.3461 28.7501 38.9483 29.9228 37.7699C31.0955 36.5916 32.4888 35.6557 34.0232 35.0158C35.5576 34.376 37.2029 34.0446 38.8654 34.0406H56.1427L57.2534 39.0313C57.5666 40.4895 58.3704 41.7962 59.5306 42.7335C60.6908 43.6708 62.1372 44.1819 63.6287 44.1817H109.846C111.336 44.1802 112.781 43.6682 113.939 42.7311C115.098 41.794 115.901 40.4882 116.214 39.0313L117.294 34.0406H131.749C135.106 34.0406 138.326 35.3743 140.7 37.7484C143.074 40.1225 144.408 43.3424 144.408 46.6999L144.37 287.136Z" fill="#263238" stroke="#263238" stroke-width="1.6935" stroke-miterlimit="10"/>
<path d="M124.926 133.856L115.154 126.955C114.999 126.851 114.817 126.795 114.63 126.795C114.443 126.795 114.261 126.851 114.106 126.955L104.355 133.856C104.194 133.968 104.073 134.129 104.009 134.315C103.946 134.501 103.943 134.703 104.001 134.89C104.059 135.078 104.176 135.242 104.334 135.36C104.491 135.477 104.682 135.541 104.879 135.543H124.391C124.589 135.543 124.781 135.481 124.941 135.364C125.1 135.248 125.218 135.084 125.278 134.895C125.338 134.707 125.336 134.505 125.272 134.318C125.209 134.131 125.087 133.969 124.926 133.856Z" stroke="#263238" stroke-width="0.75" stroke-linecap="round" stroke-linejoin="round"/>
<path d="M116.244 122.396C116.065 122.122 115.818 121.899 115.527 121.749C115.236 121.599 114.911 121.526 114.584 121.538C114.257 121.551 113.939 121.648 113.66 121.82C113.381 121.992 113.152 122.233 112.994 122.52C112.836 122.807 112.756 123.129 112.76 123.457C112.764 123.784 112.852 124.105 113.017 124.388C113.182 124.671 113.417 124.906 113.699 125.072C113.982 125.237 114.303 125.326 114.63 125.33V126.813" stroke="#263238" stroke-width="0.75" stroke-linecap="round" stroke-linejoin="round"/>
<path opacity="0.5" d="M92.7863 208.684C92.7863 208.684 96.0023 180.179 106.937 162.058C106.892 158.424 111.439 161.068 104.338 145.305C104.2 144.187 104.48 143.058 105.123 142.137L109.201 136.209L114.829 141.871L120.451 136.209L124.522 142.357C125.098 143.22 125.361 144.256 125.268 145.292C117.55 159.448 122.052 158.8 121.087 162.058C131.7 175.32 139.419 209.656 139.419 209.656C139.419 209.656 113.922 214.755 92.7863 208.684Z" fill="#EB012A"/>
<path opacity="0.5" d="M92.7863 208.684C92.7863 208.684 96.0023 180.179 106.937 162.058C106.892 158.424 111.439 161.068 104.338 145.305C104.2 144.187 104.48 143.058 105.123 142.137L109.201 136.209L114.829 141.871L120.451 136.209L124.522 142.357C125.098 143.22 125.361 144.256 125.268 145.292C117.55 159.448 122.052 158.8 121.087 162.058C131.7 175.32 139.419 209.656 139.419 209.656C139.419 209.656 113.922 214.755 92.7863 208.684Z" fill="#EB012A"/>
<path opacity="0.5" d="M92.7863 208.684C92.7863 208.684 96.0023 180.179 106.937 162.058C106.892 158.424 111.439 161.068 104.338 145.305C104.2 144.187 104.48 143.058 105.123 142.137L109.201 136.209L114.829 141.871L120.451 136.209L124.522 142.357C125.098 143.22 125.361 144.256 125.268 145.292C117.55 159.448 122.052 158.8 121.087 162.058C131.7 175.32 139.419 209.656 139.419 209.656C139.419 209.656 113.922 214.755 92.7863 208.684Z" fill="#EB012A"/>
<path opacity="0.5" d="M92.7863 208.684C92.7863 208.684 96.0023 180.179 106.937 162.058C106.892 158.424 111.439 161.068 104.338 145.305C104.2 144.187 104.48 143.058 105.123 142.137L109.201 136.209L114.829 141.871L120.451 136.209L124.522 142.357C125.098 143.22 125.361 144.256 125.268 145.292C117.55 159.448 122.052 158.8 121.087 162.058C131.7 175.32 139.419 209.656 139.419 209.656C139.419 209.656 113.922 214.755 92.7863 208.684Z" fill="#EB012A"/>
<path opacity="0.5" d="M92.7863 208.684C92.7863 208.684 96.0023 180.179 106.937 162.058C106.892 158.424 111.439 161.068 104.338 145.305C104.2 144.187 104.48 143.058 105.123 142.137L109.201 136.209L114.829 141.871L120.451 136.209L124.522 142.357C125.098 143.22 125.361 144.256 125.268 145.292C117.55 159.448 122.052 158.8 121.087 162.058C131.7 175.32 139.419 209.656 139.419 209.656C139.419 209.656 113.922 214.755 92.7863 208.684Z" fill="#EB012A"/>
<path opacity="0.5" d="M92.7863 208.684C92.7863 208.684 96.0023 180.179 106.937 162.058C106.892 158.424 111.439 161.068 104.338 145.305C104.2 144.187 104.48 143.058 105.123 142.137L109.201 136.209L114.829 141.871L120.451 136.209L124.522 142.357C125.098 143.22 125.361 144.256 125.268 145.292C117.55 159.448 122.052 158.8 121.087 162.058C131.7 175.32 139.419 209.656 139.419 209.656C139.419 209.656 113.922 214.755 92.7863 208.684Z" fill="#EB012A"/>
<path opacity="0.5" d="M92.7863 208.684C92.7863 208.684 96.0023 180.179 106.937 162.058C106.892 158.424 111.439 161.068 104.338 145.305C104.2 144.187 104.48 143.058 105.123 142.137L109.201 136.209L114.829 141.871L120.451 136.209L124.522 142.357C125.098 143.22 125.361 144.256 125.268 145.292C117.55 159.448 122.052 158.8 121.087 162.058C131.7 175.32 139.419 209.656 139.419 209.656C139.419 209.656 113.922 214.755 92.7863 208.684Z" fill="#EB012A"/>
<path opacity="0.5" d="M92.7863 208.684C92.7863 208.684 96.0023 180.179 106.937 162.058C106.892 158.424 111.439 161.068 104.338 145.305C104.2 144.187 104.48 143.058 105.123 142.137L109.201 136.209L114.829 141.871L120.451 136.209L124.522 142.357C125.098 143.22 125.361 144.256 125.268 145.292C117.55 159.448 122.052 158.8 121.087 162.058C131.7 175.32 139.419 209.656 139.419 209.656C139.419 209.656 113.922 214.755 92.7863 208.684Z" fill="#EB012A"/>
<path opacity="0.5" d="M92.7863 208.684C92.7863 208.684 96.0023 180.179 106.937 162.058C106.892 158.424 111.439 161.068 104.338 145.305C104.2 144.187 104.48 143.058 105.123 142.137L109.201 136.209L114.829 141.871L120.451 136.209L124.522 142.357C125.098 143.22 125.361 144.256 125.268 145.292C117.55 159.448 122.052 158.8 121.087 162.058C131.7 175.32 139.419 209.656 139.419 209.656C139.419 209.656 113.922 214.755 92.7863 208.684Z" fill="#EB012A"/>
<path d="M120.615 137.337C120.615 137.337 121.663 129.53 120.615 129.399C119.567 129.268 120.615 137.337 120.615 137.337Z" stroke="#263238" stroke-width="0.75" stroke-linecap="round" stroke-linejoin="round"/>
<path d="M110.349 168.956C111.276 175.768 114.111 190.8 121.352 193.949" stroke="#263238" stroke-width="0.75" stroke-linecap="round" stroke-linejoin="round"/>
<path d="M109.961 165.57C109.961 165.57 110.024 166.335 110.176 167.619" stroke="#263238" stroke-width="0.75" stroke-linecap="round" stroke-linejoin="round"/>
<path d="M109.914 194.189C109.893 194.559 109.756 194.913 109.521 195.201" stroke="#263238" stroke-width="0.75" stroke-linecap="round" stroke-linejoin="round"/>
<path d="M109.117 179.403C109.117 179.403 110.228 188.311 110.04 192.791" stroke="#263238" stroke-width="0.75" stroke-linecap="round" stroke-linejoin="round"/>
<path d="M114.63 144.192C114.63 144.192 114.667 144.454 114.761 144.889" stroke="#263238" stroke-width="0.75" stroke-linecap="round" stroke-linejoin="round"/>
<path d="M82.9109 127.452L98.5355 143.077C98.5355 143.077 105.871 128.537 106.479 126.064C107.087 123.591 108.176 121.275 108.643 121.275C109.109 121.275 112.965 120.348 112.965 120.348C112.965 120.348 117.602 120.038 117.912 120.499C118.221 120.961 115.501 122.925 114.244 124.314C112.986 125.702 113.222 126.798 111.058 128.034C108.894 129.271 108.931 128.998 108.931 128.998C108.931 128.998 103.319 145.136 102.292 147.709C101.891 148.657 101.209 149.46 100.338 150.009C99.7966 150.362 99.1531 150.523 98.5094 150.468C97.8658 150.413 97.259 150.145 96.7854 149.705L86.1543 139.986C86.1543 139.986 81.3495 134.835 81.0037 130.554C80.6579 126.274 82.9109 127.452 82.9109 127.452Z" fill="white" stroke="#263238" stroke-linecap="round" stroke-linejoin="round"/>
<path d="M107.647 124.533C107.647 124.533 108.769 122.437 109.188 122.437C109.607 122.437 114.218 121.18 114.915 121.316C115.611 121.452 114.915 122.573 114.218 122.715C113.521 122.856 110.723 124.392 110.723 124.392C110.723 124.392 110.445 127.467 108.349 128.028" fill="white"/>
<path d="M107.647 124.533C107.647 124.533 108.769 122.437 109.188 122.437C109.607 122.437 114.218 121.18 114.915 121.316C115.611 121.452 114.915 122.573 114.218 122.715C113.521 122.856 110.723 124.392 110.723 124.392C110.723 124.392 110.445 127.467 108.349 128.028" stroke="#263238" stroke-linecap="round" stroke-linejoin="round"/>
<path d="M50.262 246.345C50.262 247.708 58.9965 248.808 69.7744 248.808C80.5523 248.808 89.2867 247.708 89.2867 246.345C89.2867 244.983 80.5523 243.883 69.7744 243.883C58.9965 243.883 50.262 244.988 50.262 246.345Z" fill="#263238"/>
<path d="M87.9031 188.253C87.9031 188.253 83.6276 203.5 83.3185 208.446C83.0093 213.392 82.1081 227.607 81.7151 233.785C81.3222 239.962 84.2459 242.844 85.43 243.74C86.6142 244.636 90.4234 246.538 88.9563 246.858C87.4892 247.177 81.5265 246.596 79.7765 244.83C78.0264 243.064 75.2861 240.638 74.9875 238.736C74.6888 236.834 77.2195 236.185 77.4815 232.066C77.7435 227.948 75.5324 217.05 75.2652 211.448C74.9979 205.847 78.1732 198.187 78.4089 194.268C78.6447 190.348 78.6709 186.838 78.6709 186.838L87.9031 188.253Z" fill="white" stroke="#263238" stroke-linecap="round" stroke-linejoin="round"/>
<path d="M74.1908 240.717L74.5995 246.077H75.8308L76.7897 242.797L74.1908 240.717Z" fill="black" stroke="#263238" stroke-linecap="round" stroke-linejoin="round"/>
<path d="M89.0776 246.805C87.6315 247.219 81.6479 247.009 79.7878 245.359C77.9277 243.708 74.6058 242.571 74.1919 240.716C74.0137 239.91 74.4591 239.087 75.0197 238.097C75.6044 239.174 76.3382 240.164 77.1994 241.036C79.1171 242.954 82.963 244.594 82.963 244.594L85.3785 243.934C86.5993 244.741 90.5238 246.391 89.0776 246.805Z" fill="black" stroke="#263238" stroke-linecap="round" stroke-linejoin="round"/>
<path d="M82.5429 189.516C82.5429 189.516 79.2367 204.999 79.2367 209.951V235.347C79.2367 241.54 82.3333 244.223 83.5751 245.051C84.8169 245.879 88.7519 247.519 87.29 247.938C85.8281 248.357 79.855 248.147 78.0002 246.497C76.1453 244.846 72.8181 243.709 72.4042 241.849C71.9903 239.989 74.9035 238.03 74.9035 233.901C74.9035 229.772 72.0113 219.036 71.393 213.466C70.7747 207.897 73.4574 200.048 73.4574 196.128C73.4574 192.209 73.2478 188.693 73.2478 188.693L82.5429 189.516Z" fill="white" stroke="#263238" stroke-linecap="round" stroke-linejoin="round"/>
<path d="M82.1818 110.282C82.1818 110.282 89.0457 107.19 88.7051 103.072C88.3646 98.9537 78.5769 95.8623 70.8485 95.8623C63.12 95.8623 59.8453 102.731 59.8453 106.677C59.8453 110.622 63.623 114.919 61.5639 118.864C59.5047 122.81 50.5607 123.548 47.2597 132.403C44.687 139.273 46.9191 143.407 49.4918 146.823C52.0644 150.239 52.4103 151.973 50.0158 155.924C47.6212 159.875 52.2583 172.403 63.6021 172.749C74.9459 173.094 80.0807 161.745 79.3943 153.692C78.7079 145.639 74.0761 132.917 73.2168 124.68C72.3575 116.444 73.2692 115.946 75.8366 113.546C78.404 111.146 82.1818 110.282 82.1818 110.282Z" fill="#263238" stroke="#263238" stroke-linecap="round" stroke-linejoin="round"/>
<path d="M79.1373 103.428C79.1373 103.428 82.2235 101.369 79.9076 100.08C77.5916 98.7914 72.6978 97.5077 68.5795 98.0212" stroke="white" stroke-linecap="round" stroke-linejoin="round"/>
<path d="M80.2323 104.419C80.2323 104.419 87.746 101.747 87.5678 103.895C87.3897 106.043 82.0557 108.087 81.7256 106.903C81.3955 105.719 84.2302 104.901 84.2302 104.901" stroke="white" stroke-linecap="round" stroke-linejoin="round"/>
<path d="M77.2252 101.081C77.2252 101.081 75.5538 100.913 73.5575 104.922C71.5612 108.93 69.7168 111.932 65.8762 112.43C62.0355 112.928 61.0348 111.288 61.0348 111.288" stroke="white" stroke-linecap="round" stroke-linejoin="round"/>
<path d="M56.068 124.649C55.133 124.881 54.2237 125.205 53.3539 125.619" stroke="white" stroke-linecap="round" stroke-linejoin="round"/>
<path d="M67.71 117.774C67.71 117.774 68.0453 120.111 64.7077 122.113C62.7795 123.271 60.4112 123.685 58.1057 124.209" stroke="white" stroke-linecap="round" stroke-linejoin="round"/>
<path d="M61.8356 106.64C61.3585 106.788 60.8665 106.883 60.3685 106.923" stroke="white" stroke-linecap="round" stroke-linejoin="round"/>
<path d="M72.8864 99.7607C72.1226 99.5912 71.3292 99.609 70.5737 99.8124C69.8183 100.016 69.1233 100.399 68.5479 100.929C67.1228 102.134 65.8443 104.199 63.9528 105.571" stroke="white" stroke-linecap="round" stroke-linejoin="round"/>
<path d="M72.2688 126.939C72.2688 126.939 82.5699 126.08 83.4292 126.593C84.2885 127.107 86.0018 132.43 87.8933 134.495C89.7848 136.559 90.6389 137.754 90.1254 139.472C89.6119 141.191 88.4068 150.287 88.4068 150.287L100.081 189.427C100.081 189.427 95.2602 193.095 82.9 193.781C75.5092 194.182 68.2311 191.836 62.4654 187.195L74.8257 151.146C74.8257 151.146 63.6653 133.976 63.1518 131.76C62.6383 129.543 72.2688 126.939 72.2688 126.939Z" fill="white" stroke="#263238" stroke-linecap="round" stroke-linejoin="round"/>
<path d="M82.4017 140.98C82.4017 140.98 82.5693 143.485 79.064 145.654" stroke="#263238" stroke-linecap="round" stroke-linejoin="round"/>
<path d="M85.5768 151.497L88.2438 163.852" stroke="#263238" stroke-linecap="round" stroke-linejoin="round"/>
<path d="M83.7378 151.995L84.2408 158.508" stroke="#263238" stroke-linecap="round" stroke-linejoin="round"/>
<path d="M76.8951 151.665L73.5575 165.183" stroke="#263238" stroke-linecap="round" stroke-linejoin="round"/>
<path d="M78.0624 152.497L78.5602 159.508" stroke="#263238" stroke-linecap="round" stroke-linejoin="round"/>
<path d="M73.2004 124.68C73.2004 124.68 76.4595 124.156 78.5186 125.88C80.5778 127.604 82.6422 132.404 82.6422 132.404L76.2918 131.544L72.514 136.008C72.514 136.008 69.0768 131.544 69.0768 128.285C69.0768 125.026 73.2004 124.68 73.2004 124.68Z" fill="white" stroke="#263238" stroke-linecap="round" stroke-linejoin="round"/>
<path d="M46.3531 136.721C46.3531 136.721 44.6765 134.709 44.6188 133.2C44.5612 131.691 44.776 131.901 45.3419 132.828C45.9078 133.756 46.3531 136.721 46.3531 136.721Z" fill="white" stroke="#263238" stroke-linecap="round" stroke-linejoin="round"/>
<path d="M63.9846 130.758C63.9846 130.758 72.1532 137.485 72.761 140.991C73.3688 144.496 68.2497 141.117 68.2497 141.117C68.2497 141.117 65.8133 152.083 64.582 155.374C63.3506 158.664 62.6328 161.1 61.1657 160.372C59.6986 159.644 51.551 137.485 51.551 137.485C51.551 137.485 48.3811 137.606 47.0397 137.239C45.6984 136.872 45.4678 134.095 45.3368 132.854C45.2058 131.612 46.3114 132.487 46.3114 132.854C46.3114 133.22 47.1655 135.416 47.7732 135.657C48.381 135.898 51.0637 134.316 51.0637 134.316C51.0637 134.316 48.5068 133.828 48.5068 133.1C48.5068 132.372 48.6273 132.246 49.3556 132.613C50.5114 133.172 51.7499 133.542 53.0233 133.708C54.3647 133.828 54.852 135.17 54.852 136.631C54.852 138.093 55.4598 138.727 56.1933 141.143C56.9269 143.558 61.5639 151.947 61.5639 151.947C61.5639 151.947 63.1358 140.042 63.0153 136.998C62.8948 133.954 61.7945 131.245 63.9846 130.758Z" fill="white" stroke="#263238" stroke-linecap="round" stroke-linejoin="round"/>
<path d="M68.2495 141.117L68.983 139.288" stroke="#263238" stroke-linecap="round" stroke-linejoin="round"/>
<path d="M53.7516 137.094C53.7516 137.094 52.8975 135.632 52.0435 135.391C51.1894 135.15 47.7784 135.632 47.7784 135.632C47.7784 135.632 47.4326 132.106 46.8038 132.101C46.1751 132.095 46.6833 135.878 47.0449 136.727C47.4064 137.576 51.5509 137.487 51.5509 137.487" fill="white"/>
<path d="M53.7516 137.094C53.7516 137.094 52.8975 135.632 52.0435 135.391C51.1894 135.15 47.7784 135.632 47.7784 135.632C47.7784 135.632 47.4326 132.106 46.8038 132.101C46.1751 132.095 46.6833 135.878 47.0449 136.727C47.4064 137.576 51.5509 137.487 51.5509 137.487" stroke="#263238" stroke-linecap="round" stroke-linejoin="round"/>
<path d="M82.8897 109.423C82.8897 109.423 83.6442 115.443 83.6442 117.45C83.6442 119.456 81.1344 123.47 80.2594 123.973C79.3844 124.476 74.8625 122.967 74.8625 122.967C74.8625 122.967 75.6433 124.963 76.1463 126.216C76.6493 127.468 78.3993 130.355 78.3993 132.362C78.3993 134.368 77.3985 135.123 75.7795 133.745C74.1604 132.367 71.986 129.103 71.8812 127.599C71.7764 126.095 69.7225 119.708 69.7225 119.708L69.5967 118.325C69.5967 118.325 67.962 116.821 67.5899 115.181C67.2179 113.541 66.8354 111.791 68.5907 112.294C69.6073 112.566 70.4958 113.188 71.1005 114.049C71.1005 114.049 73.9875 113.3 75.7428 111.665C77.4981 110.03 79.0019 104.896 79.0019 104.896L82.8897 109.423Z" fill="white" stroke="#263238" stroke-linecap="round" stroke-linejoin="round"/>
<path d="M73.363 111.313L68.5897 112.304L69.8419 112.875L73.5201 112.644L73.363 111.313Z" fill="white" stroke="#263238" stroke-linecap="round" stroke-linejoin="round"/>
<path d="M82.2497 110.004C82.2497 110.004 83.9473 109.842 85.7288 109.773C85.8265 109.899 85.8892 110.048 85.9104 110.205C85.9315 110.363 85.9105 110.523 85.8493 110.669C85.6397 111.193 86.3733 113.504 85.514 114.61C84.6547 115.715 83.0566 115.741 82.1711 115.689C81.2856 115.637 80.6411 113.106 80.5992 112.545C80.5573 111.985 80.484 111.497 80.0438 111.445C79.6037 111.392 79.8919 112.493 79.7452 113.378C79.5985 114.264 79.7923 115.605 78.9592 116.087C78.1261 116.569 77.0415 116.946 75.1238 116.386C73.2061 115.825 73.1432 112.446 72.9808 112.168C72.831 111.952 72.6664 111.748 72.4883 111.555C72.4263 111.481 72.3859 111.392 72.3715 111.296C72.3571 111.201 72.3693 111.104 72.4067 111.015C72.444 110.926 72.5052 110.849 72.5834 110.793C72.6615 110.737 72.7537 110.703 72.8498 110.696L73.8977 110.622C73.8977 110.622 78.7182 110.208 79.7818 110.271L80.8298 110.161L82.2497 110.004Z" fill="white" stroke="#263238" stroke-linecap="round" stroke-linejoin="round"/>
<path d="M81.3222 114.867C82.6077 113.376 84.1237 112.1 85.8126 111.089C85.8492 111.964 86.2265 113.709 85.5139 114.61C84.6441 115.71 83.0565 115.742 82.171 115.689C81.8514 115.668 81.5632 115.322 81.3222 114.867Z" fill="#263238" stroke="#263238" stroke-linecap="round" stroke-linejoin="round"/>
<path d="M80.19 112.037C80.19 112.037 81.6991 114.872 82.4064 115.406C83.1138 115.941 80.6878 117.104 80.2477 117.104" fill="white"/>
<path d="M80.19 112.037C80.19 112.037 81.6991 114.872 82.4064 115.406C83.1138 115.941 80.6878 117.104 80.2477 117.104" stroke="#263238" stroke-linecap="round" stroke-linejoin="round"/>
<path d="M80.9498 118.98C80.9498 118.98 80.2477 120.154 77.979 118.901" stroke="#263238" stroke-linecap="round" stroke-linejoin="round"/>
<path d="M74.5734 116.15C75.9526 114.357 77.6661 112.848 79.6191 111.707L79.7711 112.048C79.7926 112.5 79.7786 112.954 79.7292 113.405C79.5877 114.285 79.7763 115.632 78.9432 116.114C78.1101 116.596 77.0255 116.973 75.1078 116.412C74.9169 116.354 74.7365 116.265 74.5734 116.15Z" fill="#263238" stroke="#263238" stroke-linecap="round" stroke-linejoin="round"/>
<path d="M72.4047 241.849L72.8134 247.214H74.0447L75.0035 243.929L72.4047 241.849Z" fill="black" stroke="#263238" stroke-linecap="round" stroke-linejoin="round"/>
<path d="M87.2902 247.938C85.8441 248.352 79.8552 248.147 78.0004 246.497C76.1456 244.846 72.8184 243.709 72.4045 241.849C72.2263 241.048 72.6717 240.22 73.2323 239.229C73.8162 240.309 74.5501 241.3 75.412 242.174C77.3297 244.087 81.1756 245.732 81.1756 245.732L83.5963 245.072C84.8119 245.873 88.7521 247.519 87.2902 247.938Z" fill="black" stroke="#263238" stroke-linecap="round" stroke-linejoin="round"/>
<path d="M39.8464 150.517L41.4549 149.385C43.7829 147.734 45.5988 145.461 46.6946 142.825L48.0359 139.682H50.1632L51.4993 142.825C52.5951 145.461 54.411 147.734 56.7389 149.385L58.3475 150.496C58.8085 150.839 59.1808 151.287 59.4333 151.803C59.6857 152.319 59.8111 152.888 59.7989 153.462H38.4107C38.4 152.892 38.5246 152.329 38.7742 151.817C39.0237 151.305 39.3912 150.859 39.8464 150.517ZM48.497 152.168H57.6873C57.6873 151.183 56.1154 150.271 55.4919 149.768L54.3811 148.867C52.7179 147.457 51.4654 145.625 50.7553 143.564L49.8279 141.033H48.3555L47.4281 143.564C46.7205 145.624 45.4696 147.454 43.8075 148.861L42.6967 149.763C42.0732 150.287 40.5328 151.177 40.5328 152.162L48.497 152.168Z" fill="white" stroke="#263238" stroke-linejoin="round"/>
<path d="M49.1048 139.671V137.376C49.1048 137.376 47.7949 136.391 47.7949 134.971C47.7949 133.551 48.8847 133.006 50.0898 133.441" stroke="#263238" stroke-linecap="round" stroke-linejoin="round"/>
<path d="M55.2136 146.394C55.2136 146.394 52.7772 149.202 49.7173 149.249C46.4634 149.302 42.6438 146.456 42.6438 146.456C41.774 147.208 40.8254 147.864 39.8144 148.411C38.1115 149.338 36.9902 150.695 36.0995 153.053C35.1039 155.673 32.9085 162.815 32.9085 162.815L39.2328 163.124L38.3682 177.475H59.4106L57.9854 162.856H64.1262C64.1262 162.856 62.0932 153.205 61.1658 151.329C60.2384 149.453 55.2136 146.394 55.2136 146.394Z" fill="black" stroke="#263238" stroke-linejoin="round"/>
<path d="M48.9319 159.492L48.1084 161.846L45.4436 161.846L47.5995 163.3L46.776 165.653L48.9319 164.199L51.0877 165.653L50.2643 163.3L52.4201 161.846L49.7553 161.846L48.9319 159.492Z" fill="#EB012A"/>
<path d="M124.925 133.856L115.153 126.955C114.998 126.851 114.816 126.795 114.629 126.795C114.443 126.795 114.26 126.851 114.105 126.955L104.354 133.856C104.193 133.968 104.072 134.129 104.009 134.315C103.945 134.501 103.942 134.703 104 134.89C104.059 135.078 104.175 135.242 104.333 135.36C104.491 135.477 104.682 135.541 104.878 135.543H124.391C124.588 135.543 124.781 135.481 124.94 135.364C125.1 135.248 125.218 135.084 125.277 134.895C125.337 134.707 125.335 134.505 125.272 134.318C125.208 134.131 125.087 133.969 124.925 133.856Z" stroke="#263238" stroke-width="0.75" stroke-linecap="round" stroke-linejoin="round"/>
<path d="M116.243 122.396C116.064 122.122 115.817 121.899 115.526 121.749C115.235 121.599 114.911 121.526 114.583 121.538C114.256 121.551 113.938 121.648 113.659 121.82C113.381 121.992 113.151 122.233 112.994 122.52C112.836 122.807 112.755 123.129 112.759 123.457C112.763 123.784 112.852 124.105 113.016 124.388C113.181 124.671 113.416 124.906 113.699 125.072C113.981 125.237 114.302 125.326 114.629 125.33V126.813" stroke="#263238" stroke-width="0.75" stroke-linecap="round" stroke-linejoin="round"/>
<path d="M109.087 137.323C109.087 137.323 110.135 129.516 109.087 129.385C108.039 129.254 109.087 137.323 109.087 137.323Z" stroke="#263238" stroke-width="0.75" stroke-linecap="round" stroke-linejoin="round"/>
<path d="M110.348 168.955C111.276 175.767 114.111 190.799 121.352 193.948" stroke="#263238" stroke-width="0.75" stroke-linecap="round" stroke-linejoin="round"/>
<path d="M109.96 165.57C109.96 165.57 110.023 166.335 110.175 167.619" stroke="#263238" stroke-width="0.75" stroke-linecap="round" stroke-linejoin="round"/>
<path d="M109.914 194.189C109.892 194.559 109.755 194.913 109.521 195.201" stroke="#263238" stroke-width="0.75" stroke-linecap="round" stroke-linejoin="round"/>
<path d="M109.117 179.403C109.117 179.403 110.228 188.311 110.04 192.791" stroke="#263238" stroke-width="0.75" stroke-linecap="round" stroke-linejoin="round"/>
<path d="M113.89 161.546L115.928 162.741C115.976 162.769 116.03 162.783 116.085 162.781C116.14 162.778 116.193 162.761 116.239 162.729C116.284 162.698 116.319 162.654 116.34 162.603C116.361 162.552 116.367 162.497 116.358 162.442C116.28 162.148 116.224 161.849 116.19 161.546C116.225 161.246 116.281 160.948 116.358 160.656C116.369 160.601 116.364 160.545 116.343 160.493C116.322 160.441 116.287 160.397 116.242 160.364C116.196 160.332 116.142 160.314 116.087 160.312C116.031 160.31 115.976 160.323 115.928 160.352L113.89 161.546Z" fill="black" stroke="#263238" stroke-width="0.75" stroke-linecap="round" stroke-linejoin="round"/>
<path d="M114.367 161.546L112.329 160.352C112.281 160.323 112.226 160.31 112.171 160.312C112.115 160.314 112.061 160.332 112.016 160.364C111.97 160.397 111.935 160.441 111.914 160.493C111.894 160.545 111.889 160.601 111.899 160.656C111.976 160.948 112.032 161.246 112.067 161.546C112.033 161.849 111.977 162.148 111.899 162.442C111.89 162.497 111.896 162.552 111.917 162.603C111.938 162.654 111.974 162.698 112.019 162.729C112.064 162.761 112.117 162.778 112.172 162.781C112.227 162.783 112.282 162.769 112.329 162.741L114.367 161.546Z" fill="black" stroke="#263238" stroke-width="0.75" stroke-linecap="round" stroke-linejoin="round"/>
<path d="M117.244 161.062H118.984V162.068H117.244V161.062Z" fill="black" stroke="#263238" stroke-width="0.75" stroke-linecap="round" stroke-linejoin="round"/>
<path d="M109.139 161.062H111.077V162.068H109.139V161.062Z" fill="black" stroke="#263238" stroke-width="0.75" stroke-linecap="round" stroke-linejoin="round"/>
<path d="M113.702 160.529H114.503C114.775 160.529 114.996 160.75 114.996 161.022V161.823C114.996 162.095 114.775 162.316 114.503 162.316H113.702C113.43 162.316 113.209 162.095 113.209 161.823V161.022C113.209 160.75 113.43 160.529 113.702 160.529Z" fill="black" stroke="#263238" stroke-width="0.75" stroke-linecap="round" stroke-linejoin="round"/>
<path d="M112.67 145.687C113.231 147.84 114.567 151.576 117.412 153.321" stroke="#263238" stroke-width="0.75" stroke-linecap="round" stroke-linejoin="round"/>
<path d="M112.319 144.067C112.319 144.067 112.356 144.329 112.45 144.764" stroke="#263238" stroke-width="0.75" stroke-linecap="round" stroke-linejoin="round"/>
<path d="M177.208 134.976L190.834 125.354C191.05 125.209 191.304 125.131 191.565 125.131C191.825 125.131 192.079 125.209 192.295 125.354L205.892 134.976C206.116 135.133 206.285 135.358 206.374 135.617C206.462 135.876 206.466 136.157 206.385 136.419C206.304 136.681 206.142 136.91 205.922 137.073C205.702 137.237 205.435 137.326 205.161 137.329H177.954C177.678 137.329 177.41 137.242 177.187 137.08C176.965 136.917 176.8 136.688 176.717 136.426C176.634 136.163 176.637 135.881 176.725 135.62C176.813 135.36 176.983 135.134 177.208 134.976Z" stroke="#263238" stroke-width="0.75" stroke-linecap="round" stroke-linejoin="round"/>
<path d="M189.314 118.998C189.564 118.616 189.908 118.305 190.314 118.095C190.72 117.885 191.173 117.784 191.629 117.802C192.085 117.819 192.529 117.954 192.917 118.194C193.306 118.434 193.626 118.77 193.846 119.17C194.066 119.57 194.178 120.02 194.173 120.477C194.167 120.933 194.044 121.38 193.814 121.775C193.584 122.17 193.257 122.498 192.862 122.728C192.468 122.959 192.021 123.083 191.565 123.089V125.157" stroke="#263238" stroke-width="0.75" stroke-linecap="round" stroke-linejoin="round"/>
<path opacity="0.5" d="M222.024 239.313C222.024 239.313 217.539 199.566 202.292 174.298C202.355 169.231 196.014 172.917 205.916 150.938C206.108 149.38 205.718 147.805 204.822 146.52L199.135 138.255L191.288 146.15L183.449 138.255L177.772 146.828C176.969 148.031 176.602 149.476 176.731 150.92C187.494 170.659 181.216 169.756 182.561 174.298C167.763 192.791 157 240.668 157 240.668C157 240.668 192.552 247.778 222.024 239.313Z" fill="#EB012A"/>
<path opacity="0.5" d="M222.024 239.313C222.024 239.313 217.539 199.566 202.292 174.298C202.355 169.231 196.014 172.917 205.916 150.938C206.108 149.38 205.718 147.805 204.822 146.52L199.135 138.255L191.288 146.15L183.449 138.255L177.772 146.828C176.969 148.031 176.602 149.476 176.731 150.92C187.494 170.659 181.216 169.756 182.561 174.298C167.763 192.791 157 240.668 157 240.668C157 240.668 192.552 247.778 222.024 239.313Z" fill="#EB012A"/>
<path opacity="0.5" d="M222.024 239.313C222.024 239.313 217.539 199.566 202.292 174.298C202.355 169.231 196.014 172.917 205.916 150.938C206.108 149.38 205.718 147.805 204.822 146.52L199.135 138.255L191.288 146.15L183.449 138.255L177.772 146.828C176.969 148.031 176.602 149.476 176.731 150.92C187.494 170.659 181.216 169.756 182.561 174.298C167.763 192.791 157 240.668 157 240.668C157 240.668 192.552 247.778 222.024 239.313Z" fill="#EB012A"/>
<path opacity="0.5" d="M222.024 239.313C222.024 239.313 217.539 199.566 202.292 174.298C202.355 169.231 196.014 172.917 205.916 150.938C206.108 149.38 205.718 147.805 204.822 146.52L199.135 138.255L191.288 146.15L183.449 138.255L177.772 146.828C176.969 148.031 176.602 149.476 176.731 150.92C187.494 170.659 181.216 169.756 182.561 174.298C167.763 192.791 157 240.668 157 240.668C157 240.668 192.552 247.778 222.024 239.313Z" fill="#EB012A"/>
<path opacity="0.5" d="M222.024 239.313C222.024 239.313 217.539 199.566 202.292 174.298C202.355 169.231 196.014 172.917 205.916 150.938C206.108 149.38 205.718 147.805 204.822 146.52L199.135 138.255L191.288 146.15L183.449 138.255L177.772 146.828C176.969 148.031 176.602 149.476 176.731 150.92C187.494 170.659 181.216 169.756 182.561 174.298C167.763 192.791 157 240.668 157 240.668C157 240.668 192.552 247.778 222.024 239.313Z" fill="#EB012A"/>
<path opacity="0.5" d="M222.024 239.313C222.024 239.313 217.539 199.566 202.292 174.298C202.355 169.231 196.014 172.917 205.916 150.938C206.108 149.38 205.718 147.805 204.822 146.52L199.135 138.255L191.288 146.15L183.449 138.255L177.772 146.828C176.969 148.031 176.602 149.476 176.731 150.92C187.494 170.659 181.216 169.756 182.561 174.298C167.763 192.791 157 240.668 157 240.668C157 240.668 192.552 247.778 222.024 239.313Z" fill="#EB012A"/>
<path opacity="0.5" d="M222.024 239.313C222.024 239.313 217.539 199.566 202.292 174.298C202.355 169.231 196.014 172.917 205.916 150.938C206.108 149.38 205.718 147.805 204.822 146.52L199.135 138.255L191.288 146.15L183.449 138.255L177.772 146.828C176.969 148.031 176.602 149.476 176.731 150.92C187.494 170.659 181.216 169.756 182.561 174.298C167.763 192.791 157 240.668 157 240.668C157 240.668 192.552 247.778 222.024 239.313Z" fill="#EB012A"/>
<path opacity="0.5" d="M222.024 239.313C222.024 239.313 217.539 199.566 202.292 174.298C202.355 169.231 196.014 172.917 205.916 150.938C206.108 149.38 205.718 147.805 204.822 146.52L199.135 138.255L191.288 146.15L183.449 138.255L177.772 146.828C176.969 148.031 176.602 149.476 176.731 150.92C187.494 170.659 181.216 169.756 182.561 174.298C167.763 192.791 157 240.668 157 240.668C157 240.668 192.552 247.778 222.024 239.313Z" fill="#EB012A"/>
<path opacity="0.5" d="M222.024 239.313C222.024 239.313 217.539 199.566 202.292 174.298C202.355 169.231 196.014 172.917 205.916 150.938C206.108 149.38 205.718 147.805 204.822 146.52L199.135 138.255L191.288 146.15L183.449 138.255L177.772 146.828C176.969 148.031 176.602 149.476 176.731 150.92C187.494 170.659 181.216 169.756 182.561 174.298C167.763 192.791 157 240.668 157 240.668C157 240.668 192.552 247.778 222.024 239.313Z" fill="#EB012A"/>
<path d="M183.22 139.83C183.22 139.83 181.759 128.944 183.22 128.761C184.681 128.578 183.22 139.83 183.22 139.83Z" stroke="#263238" stroke-width="0.75" stroke-linecap="round" stroke-linejoin="round"/>
<path d="M197.533 183.919C196.24 193.417 192.288 214.378 182.191 218.769" stroke="#263238" stroke-width="0.75" stroke-linecap="round" stroke-linejoin="round"/>
<path d="M198.074 179.198C198.074 179.198 197.987 180.265 197.775 182.055" stroke="#263238" stroke-width="0.75" stroke-linecap="round" stroke-linejoin="round"/>
<path d="M198.14 219.104C198.17 219.62 198.362 220.114 198.688 220.515" stroke="#263238" stroke-width="0.75" stroke-linecap="round" stroke-linejoin="round"/>
<path d="M199.25 198.487C199.25 198.487 197.701 210.908 197.964 217.154" stroke="#263238" stroke-width="0.75" stroke-linecap="round" stroke-linejoin="round"/>
<path d="M191.564 149.391C191.564 149.391 191.513 149.756 191.382 150.362" stroke="#263238" stroke-width="0.75" stroke-linecap="round" stroke-linejoin="round"/>
<path d="M235.792 126.048L214.006 147.835C214.006 147.835 203.777 127.561 202.93 124.112C202.082 120.664 200.562 117.435 199.912 117.435C199.262 117.435 193.885 116.141 193.885 116.141C193.885 116.141 187.419 115.71 186.988 116.353C186.557 116.996 190.349 119.736 192.102 121.672C193.856 123.608 193.527 125.135 196.544 126.859C199.562 128.584 199.51 128.204 199.51 128.204C199.51 128.204 207.335 150.706 208.767 154.294C209.327 155.616 210.278 156.735 211.492 157.501C212.247 157.993 213.144 158.218 214.042 158.141C214.939 158.064 215.786 157.69 216.446 157.077L231.27 143.524C231.27 143.524 237.969 136.343 238.452 130.374C238.934 124.405 235.792 126.048 235.792 126.048Z" fill="white" stroke="#263238" stroke-linecap="round" stroke-linejoin="round"/>
<path d="M201.3 121.979C201.3 121.979 199.737 119.056 199.153 119.056C198.568 119.056 192.139 117.303 191.167 117.493C190.195 117.683 191.167 119.246 192.139 119.444C193.11 119.641 197.012 121.782 197.012 121.782C197.012 121.782 197.399 126.07 200.321 126.852" fill="white"/>
<path d="M201.3 121.979C201.3 121.979 199.737 119.056 199.153 119.056C198.568 119.056 192.139 117.303 191.167 117.493C190.195 117.683 191.167 119.246 192.139 119.444C193.11 119.641 197.012 121.782 197.012 121.782C197.012 121.782 197.399 126.07 200.321 126.852" stroke="#263238" stroke-linecap="round" stroke-linejoin="round"/>
<path d="M281.316 291.828C281.316 293.728 269.137 295.262 254.108 295.262C239.08 295.262 226.901 293.728 226.901 291.828C226.901 289.929 239.08 288.395 254.108 288.395C269.137 288.395 281.316 289.936 281.316 291.828Z" fill="#263238"/>
<path d="M228.829 210.827C228.829 210.827 234.791 232.088 235.222 238.985C235.653 245.881 236.91 265.703 237.458 274.317C238.006 282.93 233.929 286.949 232.278 288.198C230.627 289.447 225.315 292.099 227.361 292.545C229.407 292.991 237.721 292.18 240.161 289.718C242.601 287.255 246.422 283.873 246.839 281.221C247.255 278.569 243.726 277.663 243.361 271.92C242.996 266.178 246.079 250.981 246.452 243.171C246.824 235.361 242.397 224.679 242.068 219.214C241.739 213.75 241.703 208.854 241.703 208.854L228.829 210.827Z" fill="white" stroke="#263238" stroke-linecap="round" stroke-linejoin="round"/>
<path d="M247.949 283.982L247.379 291.456H245.663L244.326 286.883L247.949 283.982Z" fill="black" stroke="#263238" stroke-linecap="round" stroke-linejoin="round"/>
<path d="M227.193 292.473C229.21 293.05 237.553 292.758 240.147 290.456C242.741 288.155 247.373 286.569 247.95 283.983C248.198 282.858 247.577 281.711 246.795 280.33C245.98 281.832 244.957 283.212 243.756 284.429C241.082 287.103 235.719 289.39 235.719 289.39L232.351 288.469C230.649 289.594 225.177 291.896 227.193 292.473Z" fill="black" stroke="#263238" stroke-linecap="round" stroke-linejoin="round"/>
<path d="M236.304 212.587C236.304 212.587 240.914 234.177 240.914 241.081V276.493C240.914 285.129 236.596 288.87 234.864 290.024C233.133 291.178 227.646 293.465 229.684 294.05C231.723 294.634 240.052 294.342 242.638 292.041C245.224 289.739 249.864 288.154 250.441 285.56C251.018 282.966 246.956 280.234 246.956 274.477C246.956 268.72 250.989 253.75 251.851 245.983C252.713 238.217 248.972 227.273 248.972 221.808C248.972 216.343 249.265 211.44 249.265 211.44L236.304 212.587Z" fill="white" stroke="#263238" stroke-linecap="round" stroke-linejoin="round"/>
<path d="M236.808 102.106C236.808 102.106 227.237 97.7956 227.712 92.0531C228.187 86.3106 241.834 82 252.611 82C263.387 82 267.953 91.5782 267.953 97.0796C267.953 102.581 262.686 108.572 265.557 114.073C268.428 119.575 280.9 120.605 285.502 132.952C289.09 142.53 285.977 148.295 282.39 153.058C278.803 157.822 278.321 160.24 281.659 165.749C284.998 171.258 278.532 188.726 262.715 189.209C246.897 189.691 239.737 173.866 240.694 162.637C241.652 151.407 248.11 133.668 249.308 122.183C250.506 110.698 249.235 110.004 245.655 106.658C242.075 103.312 236.808 102.106 236.808 102.106Z" fill="#263238" stroke="#263238" stroke-linecap="round" stroke-linejoin="round"/>
<path d="M241.052 92.5491C241.052 92.5491 236.749 89.6778 239.978 87.8806C243.207 86.0833 250.031 84.2933 255.774 85.0093" stroke="white" stroke-linecap="round" stroke-linejoin="round"/>
<path d="M239.526 93.9309C239.526 93.9309 229.049 90.2048 229.297 93.2003C229.546 96.1958 236.983 99.0451 237.444 97.394C237.904 95.7428 233.951 94.6031 233.951 94.6031" stroke="white" stroke-linecap="round" stroke-linejoin="round"/>
<path d="M243.719 89.2768C243.719 89.2768 246.05 89.043 248.833 94.6321C251.617 100.221 254.189 104.408 259.544 105.102C264.899 105.796 266.295 103.509 266.295 103.509" stroke="white" stroke-linecap="round" stroke-linejoin="round"/>
<path d="M273.221 122.139C274.525 122.461 275.793 122.914 277.006 123.49" stroke="white" stroke-linecap="round" stroke-linejoin="round"/>
<path d="M256.987 112.554C256.987 112.554 256.52 115.812 261.173 118.603C263.862 120.218 267.164 120.795 270.379 121.526" stroke="white" stroke-linecap="round" stroke-linejoin="round"/>
<path d="M265.177 97.0283C265.842 97.2352 266.528 97.3675 267.222 97.4228" stroke="white" stroke-linecap="round" stroke-linejoin="round"/>
<path d="M249.769 87.436C250.834 87.1997 251.94 87.2245 252.993 87.5082C254.047 87.7919 255.016 88.3261 255.818 89.0652C257.805 90.7456 259.588 93.6242 262.225 95.5384" stroke="white" stroke-linecap="round" stroke-linejoin="round"/>
<path d="M250.63 125.332C250.63 125.332 236.267 124.134 235.069 124.85C233.87 125.566 231.481 132.989 228.844 135.868C226.206 138.746 225.015 140.412 225.731 142.808C226.447 145.205 228.128 157.888 228.128 157.888L211.85 212.464C211.85 212.464 218.572 217.578 235.806 218.535C246.112 219.094 256.26 215.823 264.3 209.352L247.065 159.086C247.065 159.086 262.627 135.144 263.343 132.054C264.059 128.963 250.63 125.332 250.63 125.332Z" fill="white" stroke="#263238" stroke-linecap="round" stroke-linejoin="round"/>
<path d="M236.501 144.912C236.501 144.912 236.267 148.404 241.154 151.429" stroke="#263238" stroke-linecap="round" stroke-linejoin="round"/>
<path d="M232.073 159.576L228.354 176.804" stroke="#263238" stroke-linecap="round" stroke-linejoin="round"/>
<path d="M234.638 160.27L233.936 169.351" stroke="#263238" stroke-linecap="round" stroke-linejoin="round"/>
<path d="M244.179 159.809L248.833 178.658" stroke="#263238" stroke-linecap="round" stroke-linejoin="round"/>
<path d="M242.55 160.972L241.856 170.747" stroke="#263238" stroke-linecap="round" stroke-linejoin="round"/>
<path d="M249.33 122.183C249.33 122.183 244.786 121.452 241.915 123.856C239.043 126.259 236.165 132.952 236.165 132.952L245.02 131.753L250.287 137.978C250.287 137.978 255.08 131.753 255.08 127.209C255.08 122.665 249.33 122.183 249.33 122.183Z" fill="white" stroke="#263238" stroke-linecap="round" stroke-linejoin="round"/>
<path d="M286.766 138.972C286.766 138.972 289.104 136.166 289.185 134.062C289.265 131.958 288.966 132.25 288.177 133.543C287.387 134.837 286.766 138.972 286.766 138.972Z" fill="white" stroke="#263238" stroke-linecap="round" stroke-linejoin="round"/>
<path d="M262.182 130.657C262.182 130.657 250.792 140.038 249.944 144.926C249.097 149.814 256.235 145.101 256.235 145.101C256.235 145.101 259.632 160.393 261.349 164.981C263.066 169.569 264.067 172.966 266.113 171.951C268.158 170.935 279.519 140.038 279.519 140.038C279.519 140.038 283.939 140.206 285.81 139.695C287.68 139.183 288.001 135.311 288.184 133.58C288.367 131.848 286.825 133.068 286.825 133.58C286.825 134.091 285.634 137.152 284.787 137.488C283.939 137.824 280.199 135.618 280.199 135.618C280.199 135.618 283.764 134.939 283.764 133.923C283.764 132.907 283.596 132.732 282.58 133.244C280.969 134.024 279.242 134.54 277.466 134.771C275.596 134.939 274.916 136.809 274.916 138.847C274.916 140.886 274.069 141.77 273.046 145.138C272.023 148.506 265.557 160.203 265.557 160.203C265.557 160.203 263.365 143.604 263.534 139.359C263.702 135.114 265.236 131.337 262.182 130.657Z" fill="white" stroke="#263238" stroke-linecap="round" stroke-linejoin="round"/>
<path d="M256.234 145.103L255.211 142.553" stroke="#263238" stroke-linecap="round" stroke-linejoin="round"/>
<path d="M276.45 139.491C276.45 139.491 277.641 137.453 278.832 137.117C280.023 136.78 284.779 137.453 284.779 137.453C284.779 137.453 285.261 132.536 286.138 132.528C287.015 132.521 286.306 137.796 285.802 138.98C285.298 140.163 279.519 140.039 279.519 140.039" fill="white"/>
<path d="M276.45 139.491C276.45 139.491 277.641 137.453 278.832 137.117C280.023 136.78 284.779 137.453 284.779 137.453C284.779 137.453 285.261 132.536 286.138 132.528C287.015 132.521 286.306 137.796 285.802 138.98C285.298 140.163 279.519 140.039 279.519 140.039" stroke="#263238" stroke-linecap="round" stroke-linejoin="round"/>
<path d="M235.821 100.908C235.821 100.908 234.769 109.303 234.769 112.101C234.769 114.899 238.269 120.496 239.489 121.197C240.709 121.898 247.014 119.794 247.014 119.794C247.014 119.794 245.926 122.578 245.224 124.324C244.523 126.07 242.083 130.096 242.083 132.894C242.083 135.692 243.478 136.744 245.736 134.823C247.993 132.901 251.025 128.35 251.171 126.253C251.317 124.156 254.181 115.25 254.181 115.25L254.357 113.321C254.357 113.321 256.636 111.224 257.155 108.937C257.674 106.651 258.207 104.21 255.76 104.912C254.342 105.292 253.103 106.158 252.26 107.359C252.26 107.359 248.234 106.315 245.787 104.035C243.339 101.756 241.242 94.5957 241.242 94.5957L235.821 100.908Z" fill="white" stroke="#263238" stroke-linecap="round" stroke-linejoin="round"/>
<path d="M249.104 103.546L255.76 104.927L254.013 105.723L248.885 105.402L249.104 103.546Z" fill="white" stroke="#263238" stroke-linecap="round" stroke-linejoin="round"/>
<path d="M236.713 101.72C236.713 101.72 234.346 101.493 231.862 101.398C231.725 101.573 231.638 101.781 231.608 102C231.579 102.22 231.608 102.443 231.693 102.648C231.986 103.378 230.963 106.6 232.161 108.142C233.359 109.683 235.588 109.72 236.822 109.647C238.057 109.574 238.956 106.045 239.014 105.263C239.073 104.482 239.175 103.802 239.789 103.729C240.402 103.656 240 105.19 240.205 106.425C240.41 107.66 240.139 109.53 241.301 110.202C242.463 110.874 243.975 111.4 246.649 110.619C249.323 109.837 249.411 105.125 249.637 104.737C249.846 104.437 250.075 104.151 250.324 103.882C250.41 103.78 250.467 103.655 250.487 103.522C250.507 103.389 250.49 103.253 250.438 103.129C250.386 103.006 250.3 102.899 250.191 102.82C250.082 102.741 249.954 102.695 249.82 102.684L248.359 102.582C248.359 102.582 241.637 102.005 240.154 102.093L238.693 101.939L236.713 101.72Z" fill="white" stroke="#263238" stroke-linecap="round" stroke-linejoin="round"/>
<path d="M238.006 108.499C236.213 106.42 234.099 104.642 231.745 103.231C231.693 104.452 231.167 106.884 232.161 108.141C233.374 109.675 235.588 109.719 236.822 109.646C237.268 109.617 237.67 109.135 238.006 108.499Z" fill="#263238" stroke="#263238" stroke-linecap="round" stroke-linejoin="round"/>
<path d="M239.584 104.554C239.584 104.554 237.48 108.506 236.494 109.251C235.507 109.997 238.89 111.619 239.504 111.619" fill="white"/>
<path d="M239.584 104.554C239.584 104.554 237.48 108.506 236.494 109.251C235.507 109.997 238.89 111.619 239.504 111.619" stroke="#263238" stroke-linecap="round" stroke-linejoin="round"/>
<path d="M238.524 114.234C238.524 114.234 239.503 115.87 242.667 114.124" stroke="#263238" stroke-linecap="round" stroke-linejoin="round"/>
<path d="M247.416 110.289C245.493 107.789 243.103 105.685 240.38 104.094L240.168 104.569C240.138 105.2 240.158 105.833 240.227 106.461C240.424 107.688 240.161 109.566 241.323 110.238C242.484 110.91 243.997 111.436 246.671 110.655C246.937 110.573 247.188 110.45 247.416 110.289Z" fill="#263238" stroke="#263238" stroke-linecap="round" stroke-linejoin="round"/>
<path d="M250.441 285.561L249.871 293.042H248.154L246.817 288.461L250.441 285.561Z" fill="black" stroke="#263238" stroke-linecap="round" stroke-linejoin="round"/>
<path d="M229.684 294.05C231.701 294.627 240.051 294.342 242.638 292.041C245.224 289.739 249.863 288.154 250.441 285.56C250.689 284.442 250.068 283.288 249.286 281.907C248.472 283.413 247.449 284.795 246.247 286.013C243.573 288.68 238.21 290.974 238.21 290.974L234.835 290.053C233.14 291.171 227.646 293.465 229.684 294.05Z" fill="black" stroke="#263238" stroke-linecap="round" stroke-linejoin="round"/>
<path d="M295.84 158.209L293.597 156.631C290.351 154.329 287.819 151.159 286.291 147.484L284.421 143.101H281.455L279.592 147.484C278.064 151.159 275.532 154.329 272.286 156.631L270.043 158.18C269.4 158.658 268.881 159.283 268.529 160.002C268.177 160.722 268.002 161.515 268.019 162.315H297.842C297.857 161.521 297.683 160.735 297.335 160.022C296.987 159.308 296.475 158.687 295.84 158.209ZM283.778 160.511H270.963C270.963 159.137 273.155 157.866 274.025 157.165L275.573 155.908C277.892 153.943 279.639 151.388 280.629 148.514L281.922 144.986H283.975L285.268 148.514C286.255 151.386 287.999 153.938 290.317 155.901L291.866 157.157C292.735 157.888 294.883 159.13 294.883 160.504L283.778 160.511Z" fill="white" stroke="#263238" stroke-linejoin="round"/>
<path d="M282.931 143.085V139.885C282.931 139.885 284.757 138.511 284.757 136.531C284.757 134.551 283.237 133.791 281.557 134.398" stroke="#263238" stroke-linecap="round" stroke-linejoin="round"/>
<path d="M274.412 152.46C274.412 152.46 277.809 156.376 282.076 156.442C286.613 156.515 291.939 152.548 291.939 152.548C293.152 153.596 294.474 154.51 295.884 155.273C298.259 156.566 299.822 158.458 301.064 161.746C302.452 165.399 305.514 175.357 305.514 175.357L296.695 175.788L297.901 195.799H268.56L270.547 175.416H261.984C261.984 175.416 264.819 161.958 266.112 159.342C267.405 156.727 274.412 152.46 274.412 152.46Z" fill="black" stroke="#263238" stroke-linejoin="round"/>
<path d="M283.172 170.725L284.32 174.006L288.036 174.006L285.03 176.034L286.178 179.315L283.172 177.287L280.166 179.315L281.314 176.034L278.308 174.006L282.024 174.006L283.172 170.725Z" fill="#EB012A"/>
<path d="M177.208 134.976L190.833 125.354C191.049 125.209 191.304 125.131 191.564 125.131C191.824 125.131 192.079 125.209 192.295 125.354L205.891 134.976C206.116 135.133 206.285 135.358 206.373 135.617C206.462 135.876 206.466 136.157 206.385 136.419C206.303 136.681 206.141 136.91 205.921 137.073C205.701 137.237 205.435 137.326 205.161 137.329H177.953C177.678 137.329 177.409 137.242 177.187 137.08C176.964 136.917 176.8 136.688 176.716 136.426C176.633 136.163 176.636 135.881 176.725 135.62C176.813 135.36 176.982 135.134 177.208 134.976Z" stroke="#263238" stroke-width="0.75" stroke-linecap="round" stroke-linejoin="round"/>
<path d="M189.314 118.998C189.564 118.616 189.908 118.305 190.314 118.095C190.72 117.885 191.172 117.784 191.629 117.802C192.085 117.819 192.529 117.954 192.917 118.194C193.306 118.434 193.626 118.77 193.846 119.17C194.066 119.57 194.178 120.02 194.173 120.477C194.167 120.933 194.044 121.38 193.814 121.775C193.584 122.17 193.256 122.498 192.862 122.728C192.468 122.959 192.021 123.083 191.564 123.089V125.157" stroke="#263238" stroke-width="0.75" stroke-linecap="round" stroke-linejoin="round"/>
<path d="M199.293 139.813C199.293 139.813 197.832 128.927 199.293 128.744C200.754 128.562 199.293 139.813 199.293 139.813Z" stroke="#263238" stroke-width="0.75" stroke-linecap="round" stroke-linejoin="round"/>
<path d="M197.533 183.919C196.24 193.417 192.287 214.378 182.19 218.769" stroke="#263238" stroke-width="0.75" stroke-linecap="round" stroke-linejoin="round"/>
<path d="M198.074 179.199C198.074 179.199 197.986 180.266 197.774 182.056" stroke="#263238" stroke-width="0.75" stroke-linecap="round" stroke-linejoin="round"/>
<path d="M198.139 219.104C198.169 219.62 198.361 220.114 198.687 220.515" stroke="#263238" stroke-width="0.75" stroke-linecap="round" stroke-linejoin="round"/>
<path d="M199.25 198.487C199.25 198.487 197.701 210.908 197.964 217.154" stroke="#263238" stroke-width="0.75" stroke-linecap="round" stroke-linejoin="round"/>
<path d="M192.595 173.586L189.753 175.252C189.686 175.291 189.611 175.31 189.534 175.307C189.457 175.304 189.383 175.279 189.32 175.235C189.257 175.192 189.208 175.131 189.178 175.06C189.149 174.989 189.14 174.911 189.154 174.836C189.262 174.425 189.34 174.008 189.387 173.586C189.339 173.167 189.261 172.752 189.154 172.344C189.138 172.268 189.146 172.189 189.175 172.117C189.203 172.045 189.252 171.983 189.316 171.938C189.379 171.893 189.454 171.868 189.532 171.865C189.609 171.861 189.686 171.881 189.753 171.92L192.595 173.586Z" fill="black" stroke="#263238" stroke-width="0.75" stroke-linecap="round" stroke-linejoin="round"/>
<path d="M191.93 173.586L194.772 171.92C194.838 171.881 194.915 171.861 194.993 171.865C195.07 171.868 195.145 171.893 195.209 171.938C195.272 171.983 195.321 172.045 195.35 172.117C195.378 172.189 195.386 172.268 195.371 172.344C195.263 172.752 195.185 173.167 195.137 173.586C195.185 174.008 195.263 174.425 195.371 174.836C195.384 174.911 195.375 174.989 195.346 175.06C195.317 175.131 195.267 175.192 195.204 175.235C195.141 175.279 195.067 175.304 194.99 175.307C194.914 175.31 194.838 175.291 194.772 175.252L191.93 173.586Z" fill="black" stroke="#263238" stroke-width="0.75" stroke-linecap="round" stroke-linejoin="round"/>
<path d="M187.918 172.914H185.493V174.317H187.918V172.914Z" fill="black" stroke="#263238" stroke-width="0.75" stroke-linecap="round" stroke-linejoin="round"/>
<path d="M199.221 172.914H196.518V174.317H199.221V172.914Z" fill="black" stroke="#263238" stroke-width="0.75" stroke-linecap="round" stroke-linejoin="round"/>
<path d="M192.858 172.169H191.74C191.36 172.169 191.053 172.476 191.053 172.856V173.974C191.053 174.353 191.36 174.66 191.74 174.66H192.858C193.237 174.66 193.544 174.353 193.544 173.974V172.856C193.544 172.476 193.237 172.169 192.858 172.169Z" fill="black" stroke="#263238" stroke-width="0.75" stroke-linecap="round" stroke-linejoin="round"/>
<path d="M194.297 151.474C193.515 154.476 191.652 159.686 187.685 162.119" stroke="#263238" stroke-width="0.75" stroke-linecap="round" stroke-linejoin="round"/>
<path d="M194.786 149.216C194.786 149.216 194.735 149.581 194.603 150.188" stroke="#263238" stroke-width="0.75" stroke-linecap="round" stroke-linejoin="round"/>
</g>
<defs>
<filter id="filter0_f_178_20" x="-270.196" y="-200.633" width="697.52" height="696.342" filterUnits="userSpaceOnUse" color-interpolation-filters="sRGB">
<feFlood flood-opacity="0" result="BackgroundImageFix"/>
<feBlend mode="normal" in="SourceGraphic" in2="BackgroundImageFix" result="shape"/>
<feGaussianBlur stdDeviation="144.75" result="effect1_foregroundBlur_178_20"/>
</filter>
<clipPath id="clip0_178_20">
<rect width="315" height="306" fill="white"/>
</clipPath>
</defs>
</svg>
