<svg width="428" height="307" viewBox="0 0 428 307" fill="none" xmlns="http://www.w3.org/2000/svg">
<path d="M427.981 187.621C427.981 187.621 430.983 83.836 362.204 35.1668C301.486 -7.8201 216.42 -15.6484 157.527 35.6646C136.566 53.9392 124.614 85.2866 98.6335 98.1964C69.4476 112.677 30.221 122.016 9.26089 169.029C-11.6992 216.041 8.65265 269.5 52.4073 293.225C96.1619 316.951 158.096 278.676 218.293 267.783C278.489 256.891 418.954 316.478 427.981 187.621Z" fill="white"/>
<mask id="mask0_135_430" style="mask-type:alpha" maskUnits="userSpaceOnUse" x="0" y="0" width="428" height="301">
<path opacity="0.7" d="M427.015 187.621C427.015 187.621 430.018 83.836 361.238 35.1668C300.521 -7.8201 215.454 -15.6484 156.561 35.6646C135.601 53.9392 123.648 85.2866 97.6679 98.1964C68.4821 112.677 29.2554 122.016 8.29531 169.029C-12.6648 216.041 7.68707 269.5 51.4417 293.225C95.1963 316.951 157.131 278.676 217.327 267.783C277.523 256.891 417.988 316.478 427.015 187.621Z" fill="white"/>
</mask>
<g mask="url(#mask0_135_430)">
<path d="M406.459 -6.86621H69.5132V347.638H406.459V-6.86621Z" fill="white" stroke="#263238" stroke-linejoin="round"/>
<path d="M398.32 0.859375H77.6616V339.913H398.32V0.859375Z" fill="#E8E8E8" stroke="#263238" stroke-linejoin="round"/>
<path d="M100.089 282.583L103.304 329.51C103.304 329.51 102.271 332.411 97.1252 334.703C91.9793 336.995 85.3659 338.531 89.1409 339.235C92.5683 339.879 102.097 340.411 103.71 338.978C105.322 337.544 112.312 335.235 112.312 335.235L112.573 339.338H115.788C116.383 337.304 116.748 335.222 116.879 333.123C116.879 328.411 113.586 326.377 113.586 326.377L119.157 282.926L100.089 282.583Z" fill="white" stroke="#263238" stroke-linejoin="round"/>
<path d="M109.705 282.583L112.93 329.51C112.93 329.51 111.897 332.411 106.751 334.703C101.605 336.995 94.9914 338.531 98.7664 339.235C102.184 339.879 111.723 340.411 113.326 338.978C114.928 337.544 121.937 335.235 121.937 335.235L122.188 339.338H125.413C126.003 337.303 126.365 335.222 126.494 333.123C126.494 328.411 123.202 326.377 123.202 326.377L128.773 282.926L109.705 282.583Z" fill="white" stroke="#263238" stroke-linejoin="round"/>
<path d="M235.514 114.746H192.213V139.33H235.514V114.746Z" fill="#8C8C8C"/>
<path d="M237.32 114.746H190.408V123.458H237.32V114.746Z" fill="#263238"/>
<path d="M235.514 167.106H192.213V191.69H235.514V167.106Z" fill="#8C8C8C"/>
<path d="M237.32 167.106H190.408V175.819H237.32V167.106Z" fill="#263238"/>
<path d="M235.514 219.467H192.213V244.05H235.514V219.467Z" fill="#8C8C8C"/>
<path d="M237.32 219.467H190.408V228.179H237.32V219.467Z" fill="#263238"/>
<path d="M266.322 270.394H193.449V294.977H266.322V270.394Z" fill="#8C8C8C"/>
<path d="M269.363 270.394H190.408V279.106H269.363V270.394Z" fill="#263238"/>
<path d="M219.971 63.082H193.169V87.6656H219.971V63.082Z" fill="#8C8C8C"/>
<path d="M221.09 63.082H192.049V71.7944H221.09V63.082Z" fill="#263238"/>
<path d="M290.42 87.5537H182.163V93.5623H290.42V87.5537Z" fill="white" stroke="#263238" stroke-linejoin="round"/>
<path d="M290.42 139.484H182.163V145.493H290.42V139.484Z" fill="white" stroke="#263238" stroke-linejoin="round"/>
<path d="M290.42 191.416H182.163V197.425H290.42V191.416Z" fill="white" stroke="#263238" stroke-linejoin="round"/>
<path d="M398.339 191.416H292.226V197.425H398.339V191.416Z" fill="white" stroke="#263238" stroke-linejoin="round"/>
<path d="M398.339 208.583H292.226V214.592H398.339V208.583Z" fill="white" stroke="#263238" stroke-linejoin="round"/>
<path d="M398.339 56.6523H292.226V62.6609H398.339V56.6523Z" fill="white" stroke="#263238" stroke-linejoin="round"/>
<path d="M288.672 233.476C288.672 233.476 278.371 224.892 260.356 225.467C242.34 226.042 232.676 235.767 232.676 235.767C238.86 238.581 245.324 240.88 251.985 242.634C262.924 245.493 282.233 241.484 288.672 233.476Z" fill="white" stroke="#263238" stroke-linejoin="round"/>
<path d="M288.672 224.317C288.672 224.317 278.371 215.734 260.356 216.309C242.34 216.884 232.676 226.609 232.676 226.609C238.858 229.427 245.322 231.726 251.985 233.476C262.924 236.335 282.233 232.335 288.672 224.317Z" fill="white" stroke="#263238" stroke-linejoin="round"/>
<path d="M290.42 243.347H182.163V249.355H290.42V243.347Z" fill="white" stroke="#263238" stroke-linejoin="round"/>
<path d="M290.42 295.278H182.163V301.287H290.42V295.278Z" fill="white" stroke="#263238" stroke-linejoin="round"/>
<path d="M127.045 63.082H83.7441V87.6656H127.045V63.082Z" fill="#8C8C8C"/>
<path d="M128.84 63.082H81.9287V71.7944H128.84V63.082Z" fill="#263238"/>
<path d="M235.514 18.207H192.213V42.7906H235.514V18.207Z" fill="#8C8C8C"/>
<path d="M237.32 18.207H190.408V26.9194H237.32V18.207Z" fill="#263238"/>
<path d="M184.21 87.5537H77.7773V93.5623H184.21V87.5537Z" fill="white" stroke="#263238" stroke-linejoin="round"/>
<path d="M184.21 103.004H77.7773V109.012H184.21V103.004Z" fill="white" stroke="#263238" stroke-linejoin="round"/>
<path d="M168.318 130.317L165.354 128.498C161.066 125.795 157.72 122.074 155.699 117.76L153.228 112.609H149.308L146.846 117.76C144.825 122.074 141.48 125.795 137.192 128.498L134.228 130.317C133.378 130.881 132.692 131.616 132.227 132.463C131.762 133.309 131.531 134.242 131.553 135.184H170.963C170.99 134.244 170.764 133.313 170.304 132.466C169.844 131.619 169.163 130.883 168.318 130.317ZM152.378 133.047H135.444C135.444 131.433 138.34 129.94 139.489 129.116L141.536 127.639C144.599 125.328 146.906 122.328 148.217 118.953L149.926 114.807H152.639L154.348 118.953C155.656 122.323 157.96 125.317 161.019 127.622L163.066 129.099C164.215 129.957 167.053 131.416 167.053 133.03L152.378 133.047Z" fill="white" stroke="#263238" stroke-linejoin="round"/>
<path d="M151.258 112.549V108.79C151.258 108.79 153.672 107.185 153.672 104.858C153.672 102.532 151.664 101.631 149.443 102.352" stroke="#263238" stroke-linecap="round" stroke-linejoin="round"/>
<path d="M145.572 118.832L150.129 130.472L155.709 117.742C155.709 117.742 165.239 126.412 168.376 127.94C171.514 129.467 174.362 131.485 175.221 135.536C176.081 139.588 180.638 180.171 180.638 180.171L170.085 180.677L171.051 203.613H128.474L131.042 179.665H121.059C121.059 179.665 127.325 135.819 129.034 132.781C130.743 129.742 145.572 118.832 145.572 118.832Z" fill="black" stroke="#263238" stroke-linejoin="round"/>
<path d="M141.295 121.614L143.863 134.034L149.279 125.923L145.852 117.305L141.295 121.614Z" fill="white" stroke="#263238" stroke-linejoin="round"/>
<path d="M155.709 117.76L150.988 126.18L155.835 134.541L159.822 120.601L155.709 117.76Z" fill="white" stroke="#263238" stroke-linejoin="round"/>
<path d="M170.085 180.669L167.807 142.146" stroke="#263238" stroke-linejoin="round"/>
<path d="M131.032 179.656L135.02 142.146" stroke="#263238" stroke-linejoin="round"/>
<path d="M381.357 83.3994L378.403 81.5453C374.113 78.8403 370.767 75.1159 368.748 70.7986L366.277 65.6484H362.357L359.885 70.7986C357.871 75.1138 354.532 78.838 350.25 81.5453L347.286 83.3651C346.435 83.9254 345.748 84.6592 345.283 85.5046C344.818 86.35 344.587 87.2824 344.612 88.2234H384.041C384.058 87.2874 383.823 86.3614 383.356 85.5224C382.889 84.6833 382.204 83.9555 381.357 83.3994ZM365.427 86.1033H348.493C348.493 84.4895 351.389 82.996 352.538 82.1719L354.585 80.6956C357.649 78.3882 359.955 75.3866 361.256 72.0089L362.975 67.863H365.697L367.406 72.0089C368.706 75.3825 371.008 78.3809 374.068 80.687L376.124 82.1634C377.263 83.0217 380.112 84.4809 380.112 86.0947L365.427 86.1033Z" fill="white" stroke="#263238" stroke-linejoin="round"/>
<path d="M364.306 65.6306V61.8709C364.306 61.8709 366.72 60.2572 366.72 57.931C366.72 55.6049 364.702 54.7122 362.491 55.4246" stroke="#263238" stroke-linecap="round" stroke-linejoin="round"/>
<path d="M358.62 71.905L363.177 83.5616L368.757 70.832C368.757 70.832 378.286 79.5101 381.424 81.0294C384.562 82.5487 387.41 84.5744 388.269 88.6345C389.128 92.6946 393.685 133.269 393.685 133.269L383.133 133.776L384.098 156.711H341.56L344.128 132.763H334.097C334.097 132.763 340.373 88.9092 342.082 85.8706C343.79 82.832 358.62 71.905 358.62 71.905Z" fill="white" stroke="#263238" stroke-linejoin="round"/>
<path d="M354.343 74.6957L356.902 87.1162L362.318 79.0047L358.9 70.3867L354.343 74.6957Z" fill="white" stroke="#263238" stroke-linejoin="round"/>
<path d="M368.757 70.832L364.036 79.2526L368.883 87.6216L372.87 73.6818L368.757 70.832Z" fill="white" stroke="#263238" stroke-linejoin="round"/>
<path d="M383.133 133.751L380.854 95.2275" stroke="#263238" stroke-linejoin="round"/>
<path d="M344.08 132.738L348.067 95.2275" stroke="#263238" stroke-linejoin="round"/>
<path d="M365.909 83.3994L362.955 81.5453C358.665 78.8403 355.319 75.1159 353.3 70.7986L350.829 65.6484H346.909L344.437 70.7986C342.424 75.1138 339.085 78.838 334.802 81.5453L331.838 83.3651C330.988 83.9254 330.301 84.6592 329.835 85.5046C329.37 86.35 329.14 87.2824 329.164 88.2234H368.593C368.61 87.2874 368.375 86.3614 367.908 85.5224C367.442 84.6833 366.756 83.9555 365.909 83.3994ZM349.979 86.1033H333.045C333.045 84.4895 335.941 82.996 337.09 82.1719L339.137 80.6956C342.202 78.3882 344.507 75.3866 345.808 72.0089L347.527 67.863H350.249L351.958 72.0089C353.259 75.3825 355.56 78.3809 358.62 80.687L360.676 82.1634C361.816 83.0217 364.664 84.4809 364.664 86.0947L349.979 86.1033Z" fill="white" stroke="#263238" stroke-linejoin="round"/>
<path d="M348.859 65.6306V61.8709C348.859 61.8709 351.273 60.2572 351.273 57.931C351.273 55.6049 349.255 54.7122 347.044 55.4246" stroke="#263238" stroke-linecap="round" stroke-linejoin="round"/>
<path d="M343.173 71.905L347.73 83.5616L353.31 70.832C353.31 70.832 362.839 79.5101 365.977 81.0294C369.114 82.5487 371.963 84.5744 372.822 88.6345C373.681 92.6946 378.238 133.269 378.238 133.269L367.686 133.776L368.651 156.711H326.113L328.681 132.763H318.65C318.65 132.763 324.925 88.9092 326.634 85.8706C328.343 82.832 343.173 71.905 343.173 71.905Z" fill="#EB012A" stroke="#263238" stroke-linejoin="round"/>
<path d="M343.173 71.905L347.73 83.5616L353.31 70.832C353.31 70.832 362.839 79.5101 365.977 81.0294C369.114 82.5487 371.963 84.5744 372.822 88.6345C373.681 92.6946 378.238 133.269 378.238 133.269L367.686 133.776L368.651 156.711H326.113L328.681 132.763H318.65C318.65 132.763 324.925 88.9092 326.634 85.8706C328.343 82.832 343.173 71.905 343.173 71.905Z" fill="#EB012A" stroke="#263238" stroke-linejoin="round"/>
<path d="M338.896 74.6957L341.454 87.1162L346.87 79.0047L343.452 70.3867L338.896 74.6957Z" fill="white" stroke="#263238" stroke-linejoin="round"/>
<path d="M338.896 74.6957L341.454 87.1162L346.87 79.0047L343.452 70.3867L338.896 74.6957Z" fill="white" stroke="#263238" stroke-linejoin="round"/>
<path d="M353.31 70.832L348.589 79.2526L353.435 87.6216L357.423 73.6818L353.31 70.832Z" fill="white" stroke="#263238" stroke-linejoin="round"/>
<path d="M367.686 133.751L365.407 95.2275" stroke="#263238" stroke-linejoin="round"/>
<path d="M328.633 132.738L332.62 95.2275" stroke="#263238" stroke-linejoin="round"/>
<path d="M355.472 224.814L365.977 225.261V265.261H353.503L355.472 224.814Z" fill="white" stroke="#263238" stroke-linejoin="round"/>
<path d="M378.248 236.308L375.293 234.489C371.004 231.784 367.658 228.059 365.639 223.742L363.167 218.592H359.248L356.776 223.742C354.757 228.059 351.411 231.784 347.121 234.489L344.157 236.308C343.307 236.869 342.621 237.603 342.156 238.448C341.69 239.294 341.46 240.226 341.483 241.167H380.893C380.92 240.228 380.694 239.297 380.233 238.452C379.773 237.607 379.092 236.872 378.248 236.308ZM362.318 239.021H345.345C345.345 237.399 348.241 235.905 349.39 235.081L351.437 233.613C354.504 231.292 356.812 228.28 358.118 224.892L359.827 220.755H362.54L364.249 224.892C365.552 228.271 367.857 231.275 370.92 233.587L372.976 235.055C374.116 235.914 376.964 237.373 376.964 238.995L362.318 239.021Z" fill="white" stroke="#263238" stroke-linejoin="round"/>
<path d="M361.159 218.541V214.781C361.159 214.781 363.573 213.167 363.573 210.841C363.573 208.515 361.555 207.622 359.344 208.335" stroke="#263238" stroke-linecap="round" stroke-linejoin="round"/>
<path d="M355.472 224.815L360.029 260.514L365.61 223.742C365.61 223.742 375.139 232.42 378.276 233.94C381.414 235.459 384.262 237.493 385.122 241.545C385.981 245.596 390.538 286.18 390.538 286.18L379.985 286.695L380.951 309.63H338.374L340.942 285.682H330.94C330.94 285.682 337.215 241.836 338.924 238.789C340.633 235.742 355.472 224.815 355.472 224.815Z" fill="white" stroke="#263238" stroke-linejoin="round"/>
<path d="M355.473 224.814L361.072 262.883L359.74 264.471L347.266 231.596C347.266 231.596 351.215 225.956 355.473 224.814Z" fill="white" stroke="#263238" stroke-linejoin="round"/>
<path d="M365.61 223.742L357.973 273.973L375.351 231.201C375.351 231.201 365.552 222.9 365.61 223.742Z" fill="white" stroke="#263238" stroke-linejoin="round"/>
<path d="M338.934 238.755C338.934 238.755 330.786 273.948 329 282.291C327.213 290.634 326.325 304.076 326.325 304.076L341.917 304.471L346.387 245.064" fill="white"/>
<path d="M338.934 238.755C338.934 238.755 330.786 273.948 329 282.291C327.213 290.634 326.325 304.076 326.325 304.076L341.917 304.471L346.387 245.064" stroke="#263238" stroke-linejoin="round"/>
<path d="M384.099 238.755C384.099 238.755 392.257 273.948 394.033 282.291C395.81 290.634 396.708 304.076 396.708 304.076L381.115 304.471L376.665 245.064" fill="white"/>
<path d="M384.099 238.755C384.099 238.755 392.257 273.948 394.033 282.291C395.81 290.634 396.708 304.076 396.708 304.076L381.115 304.471L376.665 245.064" stroke="#263238" stroke-linejoin="round"/>
<path d="M357.954 273.973V310.015" stroke="#263238" stroke-linejoin="round"/>
<path d="M330.525 224.814L341.029 225.261V265.261H328.556L330.525 224.814Z" fill="white" stroke="#263238" stroke-linejoin="round"/>
<path d="M353.271 236.308L350.307 234.489C346.018 231.784 342.672 228.059 340.653 223.742L338.181 218.592H334.261L331.8 223.742C329.78 228.059 326.435 231.784 322.145 234.489L319.181 236.308C318.333 236.871 317.648 237.605 317.183 238.45C316.717 239.295 316.486 240.226 316.507 241.167H355.917C355.942 240.228 355.715 239.298 355.255 238.453C354.795 237.608 354.115 236.873 353.271 236.308ZM337.332 239.021H320.397C320.397 237.399 323.294 235.905 324.443 235.081L326.49 233.613C329.557 231.292 331.864 228.28 333.171 224.892L334.879 220.755H337.592L339.301 224.892C340.609 228.272 342.917 231.276 345.982 233.587L348.029 235.055C349.178 235.914 352.016 237.373 352.016 238.995L337.332 239.021Z" fill="white" stroke="#263238" stroke-linejoin="round"/>
<path d="M336.212 218.541V214.781C336.212 214.781 338.625 213.167 338.625 210.841C338.625 208.515 336.617 207.622 334.396 208.335" stroke="#263238" stroke-linecap="round" stroke-linejoin="round"/>
<path d="M330.525 224.815L335.082 260.514L340.663 223.742C340.663 223.742 350.192 232.42 353.329 233.94C356.467 235.459 359.315 237.493 360.175 241.545C361.034 245.596 365.591 286.18 365.591 286.18L355.077 286.695L356.042 309.63H313.466L316.034 285.682H306.012C306.012 285.682 312.278 241.836 313.987 238.789C315.696 235.742 330.525 224.815 330.525 224.815Z" fill="white" stroke="#263238" stroke-linejoin="round"/>
<path d="M330.525 224.814L336.125 262.883L334.802 264.471L322.328 231.596C322.328 231.596 326.258 225.956 330.525 224.814Z" fill="white" stroke="#263238" stroke-linejoin="round"/>
<path d="M340.662 223.742L333.006 273.973L350.385 231.201C350.385 231.201 340.595 222.9 340.662 223.742Z" fill="white" stroke="#263238" stroke-linejoin="round"/>
<path d="M313.987 238.755C313.987 238.755 305.838 273.948 304.052 282.291C302.266 290.634 301.388 304.076 301.388 304.076L316.97 304.471L321.431 245.064" fill="white"/>
<path d="M313.987 238.755C313.987 238.755 305.838 273.948 304.052 282.291C302.266 290.634 301.388 304.076 301.388 304.076L316.97 304.471L321.431 245.064" stroke="#263238" stroke-linejoin="round"/>
<path d="M359.161 238.755C359.161 238.755 367.309 273.948 369.095 282.291C370.881 290.634 371.76 304.076 371.76 304.076L356.177 304.471L351.717 245.064" fill="white"/>
<path d="M359.161 238.755C359.161 238.755 367.309 273.948 369.095 282.291C370.881 290.634 371.76 304.076 371.76 304.076L356.177 304.471L351.717 245.064" stroke="#263238" stroke-linejoin="round"/>
<path d="M333.006 273.973V310.015" stroke="#263238" stroke-linejoin="round"/>
<path d="M289.638 339.913H297.362L297.362 45.4942H289.638L289.638 339.913Z" fill="white" stroke="#263238" stroke-linejoin="round"/>
<path d="M179.576 339.913H187.299L187.299 45.4942H179.576L179.576 339.913Z" fill="white" stroke="#263238" stroke-linejoin="round"/>
<path d="M398.32 42.9189H77.6616V48.9275H398.32V42.9189Z" fill="white" stroke="#263238" stroke-linejoin="round"/>
<path d="M128.473 17.7084C128.283 17.7071 128.098 17.6488 127.949 17.5429C127.801 17.4371 127.696 17.2898 127.653 17.1247C127.653 17.0046 124.254 4.92738 114.02 5.53682C103.4 6.16342 99.5386 16.6355 99.5386 16.7471C99.4677 16.9353 99.3173 17.0916 99.1191 17.1829C98.9208 17.2743 98.6904 17.2934 98.4766 17.2363C98.3709 17.2088 98.2723 17.1629 98.1868 17.1012C98.1012 17.0396 98.0303 16.9634 97.9782 16.8771C97.9261 16.7908 97.8938 16.6962 97.8832 16.5987C97.8727 16.5012 97.884 16.4028 97.9166 16.3093C97.9166 16.1891 102.087 4.74712 113.914 4.05185C125.5 3.38233 129.265 16.6526 129.304 16.79C129.342 16.9772 129.298 17.1703 129.181 17.3298C129.065 17.4893 128.884 17.6033 128.676 17.6483C128.612 17.6771 128.544 17.6973 128.473 17.7084Z" fill="#263238"/>
<path d="M97.5985 14.833C97.5985 14.833 108.894 18.112 129.092 14.833L132.954 36.0346C133.093 36.7809 133.065 37.5443 132.871 38.2809C132.677 39.0175 132.322 39.7127 131.824 40.3264L131.419 40.8243C130.819 41.5648 130.03 42.168 129.117 42.5844C128.204 43.0008 127.193 43.2183 126.166 43.2191H100.582C99.3695 43.2127 98.1836 42.9035 97.1593 42.3268C96.1351 41.75 95.3138 40.929 94.7891 39.9573C94.238 38.9356 94.0366 37.7924 94.2098 36.6698L97.5985 14.833Z" fill="white" stroke="#263238" stroke-linecap="round" stroke-linejoin="round"/>
<path d="M129.091 14.833C129.091 14.833 128.657 29.6999 114.108 29.6999C99.558 29.6999 97.5981 14.833 97.5981 14.833" stroke="#263238" stroke-linecap="round" stroke-linejoin="round"/>
<path d="M117.796 26.6104H109.976V32.5931H117.796V26.6104Z" stroke="#263238" stroke-linecap="round" stroke-linejoin="round"/>
<path d="M307.181 158.609H337.805L345.529 181.305C345.906 182.411 345.986 183.58 345.763 184.719C345.54 185.858 345.02 186.934 344.245 187.862C343.468 188.792 342.457 189.546 341.294 190.067C340.131 190.587 338.846 190.858 337.544 190.858H308.378C307.06 190.86 305.76 190.584 304.585 190.053C303.41 189.522 302.394 188.751 301.62 187.802L301.291 187.399C300.548 186.49 300.046 185.443 299.823 184.337C299.601 183.231 299.664 182.094 300.007 181.013L307.181 158.609Z" fill="white" stroke="#263238" stroke-linecap="round" stroke-linejoin="round"/>
<path d="M304.1 168.257L302.005 174.832H343.308L341.078 168.257H304.1Z" fill="#263238"/>
<path d="M300.046 181.013C299.742 181.978 299.66 182.988 299.806 183.982C299.952 184.977 300.323 185.934 300.895 186.798H344.94C345.918 185.1 346.118 183.131 345.5 181.304L345.142 180.231H300.277L300.046 181.013Z" fill="#263238"/>
<path d="M307.18 158.609L305.819 162.858H339.243L337.805 158.609H307.18Z" fill="#263238"/>
<path d="M310.666 161.485C310.534 161.486 310.404 161.457 310.289 161.399C310.087 161.306 309.934 161.146 309.862 160.954C309.79 160.762 309.805 160.552 309.903 160.369L322.251 143.777C322.316 143.646 322.424 143.536 322.559 143.459C322.695 143.383 322.853 143.344 323.014 143.348C323.174 143.352 323.33 143.396 323.463 143.474C323.596 143.553 323.702 143.664 323.767 143.794L335.063 160C335.158 160.183 335.168 160.393 335.091 160.583C335.013 160.773 334.854 160.927 334.648 161.013C334.548 161.055 334.44 161.078 334.329 161.082C334.219 161.086 334.109 161.07 334.006 161.036C333.902 161.001 333.808 160.949 333.727 160.882C333.647 160.814 333.582 160.734 333.538 160.644L323.004 145.923L311.419 161.082C311.347 161.204 311.238 161.306 311.106 161.377C310.973 161.448 310.821 161.485 310.666 161.485Z" fill="#263238"/>
<path d="M143.989 130.317L141.025 128.498C136.737 125.795 133.391 122.074 131.37 117.76L128.908 112.609H124.989L122.517 117.76C120.496 122.074 117.15 125.795 112.862 128.498L109.898 130.317C109.05 130.881 108.365 131.617 107.902 132.463C107.438 133.31 107.209 134.243 107.234 135.184H146.644C146.669 134.244 146.441 133.312 145.979 132.465C145.517 131.619 144.835 130.882 143.989 130.317ZM128.059 133.047H111.115C111.115 131.433 114.011 129.94 115.16 129.116L117.207 127.639C120.272 125.331 122.58 122.33 123.888 118.953L125.597 114.807H128.31L130.019 118.953C131.33 122.328 133.637 125.328 136.7 127.639L138.746 129.116C139.895 129.974 142.734 131.433 142.734 133.047H128.059Z" fill="white" stroke="#263238" stroke-linejoin="round"/>
<path d="M126.929 112.549V108.79C126.929 108.79 129.342 107.185 129.342 104.858C129.342 102.532 127.334 101.631 125.114 102.352" stroke="#263238" stroke-linecap="round" stroke-linejoin="round"/>
<path d="M140.388 125.914C140.388 125.914 149.135 130.481 149.646 133.228C150.158 135.974 155.294 176.644 155.294 176.644L143.989 177.553L148.613 205.433H101.837L105.438 177.553L96.7007 177.099C96.7007 177.099 104.926 133.682 106.983 130.944C109.039 128.206 120.345 121.803 120.345 121.803L132.683 122.258L140.388 125.914Z" fill="white" stroke="#263238" stroke-linejoin="round"/>
<path d="M131.138 114.489C131.138 114.489 119.833 143.279 123.415 142.369C126.996 141.459 140.378 129.571 140.378 125.914C140.378 122.257 131.138 114.489 131.138 114.489Z" fill="white" stroke="#263238" stroke-linejoin="round"/>
<path d="M120.856 118.601C120.856 118.601 126.514 143.279 123.424 142.369C120.335 141.459 114.156 132.455 112.882 128.498C111.607 124.541 118.288 114.944 120.856 118.601Z" fill="white" stroke="#263238" stroke-linejoin="round"/>
<path d="M152.707 172.077H145.553C143.553 172.077 141.932 173.518 141.932 175.296V178.455C141.932 180.233 143.553 181.674 145.553 181.674H152.707C154.706 181.674 156.327 180.233 156.327 178.455V175.296C156.327 173.518 154.706 172.077 152.707 172.077Z" fill="white" stroke="#263238" stroke-linejoin="round"/>
<path d="M104.385 172.077H97.2313C95.2318 172.077 93.6108 173.518 93.6108 175.296V178.455C93.6108 180.233 95.2318 181.674 97.2313 181.674H104.385C106.385 181.674 108.006 180.233 108.006 178.455V175.296C108.006 173.518 106.385 172.077 104.385 172.077Z" fill="white" stroke="#263238" stroke-linejoin="round"/>
<path d="M143.477 172.987L139.364 146.48" stroke="#263238" stroke-linejoin="round"/>
<path d="M105.95 171.614L111.607 146.936" stroke="#263238" stroke-linejoin="round"/>
<path d="M123.424 142.369V204.978" stroke="#263238" stroke-linejoin="round"/>
<path d="M116.908 130.317L113.953 128.498C109.665 125.795 106.319 122.074 104.299 117.76L101.827 112.609H97.9169L95.4454 117.76C93.4274 122.075 90.0811 125.797 85.7908 128.498L82.8171 130.317C81.9664 130.88 81.2796 131.615 80.8143 132.462C80.349 133.309 80.1187 134.242 80.1428 135.184H119.553C119.58 134.244 119.355 133.312 118.894 132.466C118.434 131.619 117.753 130.882 116.908 130.317ZM100.977 133.047H84.0433C84.0433 131.433 86.9397 129.94 88.0886 129.116L90.1353 127.639C93.1978 125.33 95.5026 122.329 96.8067 118.953L98.5252 114.807H101.238L102.947 118.953C104.251 122.329 106.556 125.33 109.618 127.639L111.675 129.116C112.814 129.974 115.662 131.433 115.662 133.047H100.977Z" fill="white" stroke="#263238" stroke-linejoin="round"/>
<path d="M99.8575 112.549V108.79C99.8575 108.79 102.271 107.185 102.271 104.858C102.271 102.532 100.253 101.631 98.0425 102.352" stroke="#263238" stroke-linecap="round" stroke-linejoin="round"/>
<path d="M88.7642 125.639L84.9023 174.815C84.9023 174.815 88.5035 179.381 94.6728 179.845C100.842 180.308 103.825 180.3 107.986 178.24C110.807 176.888 113.745 175.74 116.772 174.806L111.636 126.815L110.603 125.905L111.462 143.425C111.462 143.425 111.636 145.708 104.434 146.772C97.2313 147.837 89.8745 145.098 89.8745 145.098V125.459L88.7642 125.639Z" fill="#EB012A" stroke="#263238" stroke-linejoin="round"/>
<path d="M88.7642 125.639L84.9023 174.815C84.9023 174.815 88.5035 179.381 94.6728 179.845C100.842 180.308 103.825 180.3 107.986 178.24C110.807 176.888 113.745 175.74 116.772 174.806L111.636 126.815L110.603 125.905L111.462 143.425C111.462 143.425 111.636 145.708 104.434 146.772C97.2313 147.837 89.8745 145.098 89.8745 145.098V125.459L88.7642 125.639Z" fill="#EB012A" stroke="#263238" stroke-linejoin="round"/>
<path d="M88.7642 125.639L84.9023 174.815C84.9023 174.815 88.5035 179.381 94.6728 179.845C100.842 180.308 103.825 180.3 107.986 178.24C110.807 176.888 113.745 175.74 116.772 174.806L111.636 126.815L110.603 125.905L111.462 143.425C111.462 143.425 111.636 145.708 104.434 146.772C97.2313 147.837 89.8745 145.098 89.8745 145.098V125.459L88.7642 125.639Z" fill="#EB012A" stroke="#263238" stroke-linejoin="round"/>
<path d="M88.7642 125.639L84.9023 174.815C84.9023 174.815 88.5035 179.381 94.6728 179.845C100.842 180.308 103.825 180.3 107.986 178.24C110.807 176.888 113.745 175.74 116.772 174.806L111.636 126.815L110.603 125.905L111.462 143.425C111.462 143.425 111.636 145.708 104.434 146.772C97.2313 147.837 89.8745 145.098 89.8745 145.098V125.459L88.7642 125.639Z" fill="#EB012A" stroke="#263238" stroke-linejoin="round"/>
<path d="M88.7642 125.639L84.9023 174.815C84.9023 174.815 88.5035 179.381 94.6728 179.845C100.842 180.308 103.825 180.3 107.986 178.24C110.807 176.888 113.745 175.74 116.772 174.806L111.636 126.815L110.603 125.905L111.462 143.425C111.462 143.425 111.636 145.708 104.434 146.772C97.2313 147.837 89.8745 145.098 89.8745 145.098V125.459L88.7642 125.639Z" fill="#EB012A" stroke="#263238" stroke-linejoin="round"/>
<path d="M88.7642 125.639L84.9023 174.815C84.9023 174.815 88.5035 179.381 94.6728 179.845C100.842 180.308 103.825 180.3 107.986 178.24C110.807 176.888 113.745 175.74 116.772 174.806L111.636 126.815L110.603 125.905L111.462 143.425C111.462 143.425 111.636 145.708 104.434 146.772C97.2313 147.837 89.8745 145.098 89.8745 145.098V125.459L88.7642 125.639Z" fill="#EB012A" stroke="#263238" stroke-linejoin="round"/>
<path d="M88.7642 125.639L84.9023 174.815C84.9023 174.815 88.5035 179.381 94.6728 179.845C100.842 180.308 103.825 180.3 107.986 178.24C110.807 176.888 113.745 175.74 116.772 174.806L111.636 126.815L110.603 125.905L111.462 143.425C111.462 143.425 111.636 145.708 104.434 146.772C97.2313 147.837 89.8745 145.098 89.8745 145.098V125.459L88.7642 125.639Z" fill="#EB012A" stroke="#263238" stroke-linejoin="round"/>
<path d="M342.101 83.3994L339.137 81.5453C334.847 78.8403 331.501 75.1159 329.482 70.7986L327.011 65.6484H323.091L320.629 70.7986C318.61 75.1159 315.264 78.8403 310.974 81.5453L308.01 83.3651C307.161 83.9264 306.475 84.6604 306.01 85.5056C305.544 86.3507 305.313 87.2826 305.336 88.2234H344.746C344.766 87.2906 344.536 86.367 344.076 85.5283C343.617 84.6897 342.939 83.9601 342.101 83.3994ZM326.161 86.1033H309.227C309.227 84.4895 312.123 82.996 313.272 82.1719L315.319 80.6956C318.383 78.3864 320.691 75.3856 322 72.0089L323.709 67.863H326.422L328.13 72.0089C329.434 75.3831 331.739 78.3814 334.802 80.687L336.849 82.1634C337.997 83.0217 340.836 84.4809 340.836 86.0947L326.161 86.1033Z" fill="white" stroke="#263238" stroke-linejoin="round"/>
<path d="M325.041 65.6306V61.8709C325.041 61.8709 327.455 60.2572 327.455 57.931C327.455 55.6049 325.447 54.7122 323.226 55.4246" stroke="#263238" stroke-linecap="round" stroke-linejoin="round"/>
<path d="M313.784 77.7256C313.784 77.7256 318.274 82.3264 323.912 82.4037C329.907 82.4895 336.946 77.8286 336.946 77.8286C338.548 79.0602 340.296 80.1337 342.159 81.0303C345.297 82.5496 347.363 84.7727 349.004 88.6354C350.839 92.9272 354.884 104.627 354.884 104.627L343.231 105.133L344.824 128.644H306.051L308.677 104.695H297.362C297.362 104.695 301.108 88.8843 302.817 85.8114C304.526 82.7384 313.784 77.7256 313.784 77.7256Z" fill="black" stroke="#263238" stroke-linejoin="round"/>
<path d="M308.677 104.695L309.266 92.1289" stroke="#263238" stroke-linejoin="round"/>
<path d="M343.231 105.133L342.313 92.9355" stroke="#263238" stroke-linejoin="round"/>
<path d="M284.116 183.63H243.952C243.376 183.63 242.804 183.731 242.271 183.927C241.738 184.123 241.254 184.411 240.846 184.774C240.438 185.136 240.115 185.567 239.894 186.041C239.673 186.515 239.56 187.023 239.56 187.535C239.567 188.567 240.033 189.554 240.856 190.28C241.679 191.007 242.792 191.415 243.952 191.415H284.116C285.279 191.415 286.395 191.005 287.218 190.274C288.042 189.544 288.506 188.553 288.508 187.518C288.503 186.485 288.038 185.496 287.215 184.768C286.392 184.039 285.277 183.63 284.116 183.63Z" fill="white" stroke="#263238" stroke-linejoin="round"/>
<path d="M284.116 176.111H243.952C243.376 176.111 242.804 176.212 242.271 176.409C241.738 176.605 241.254 176.893 240.846 177.255C240.438 177.618 240.115 178.048 239.894 178.522C239.673 178.996 239.56 179.504 239.56 180.017C239.56 180.53 239.673 181.038 239.894 181.511C240.115 181.985 240.438 182.416 240.846 182.779C241.254 183.141 241.738 183.429 242.271 183.625C242.804 183.821 243.376 183.922 243.952 183.922H284.116C285.281 183.922 286.398 183.511 287.222 182.779C288.046 182.046 288.508 181.053 288.508 180.017C288.508 178.981 288.046 177.988 287.222 177.255C286.398 176.523 285.281 176.111 284.116 176.111Z" fill="white" stroke="#263238" stroke-linejoin="round"/>
<path d="M284.116 168.601H243.952C243.376 168.601 242.804 168.702 242.271 168.898C241.738 169.094 241.254 169.382 240.846 169.744C240.438 170.107 240.115 170.538 239.894 171.012C239.673 171.485 239.56 171.993 239.56 172.506C239.56 173.019 239.673 173.527 239.894 174.001C240.115 174.475 240.438 174.905 240.846 175.268C241.254 175.63 241.738 175.918 242.271 176.114C242.804 176.311 243.376 176.412 243.952 176.412H284.116C285.281 176.412 286.398 176 287.222 175.268C288.046 174.535 288.508 173.542 288.508 172.506C288.508 171.47 288.046 170.477 287.222 169.744C286.398 169.012 285.281 168.601 284.116 168.601Z" fill="white" stroke="#263238" stroke-linejoin="round"/>
<path d="M284.116 131.33H243.952C242.789 131.33 241.673 131.74 240.85 132.471C240.026 133.202 239.562 134.193 239.56 135.227C239.56 135.74 239.673 136.248 239.894 136.722C240.115 137.195 240.438 137.626 240.846 137.989C241.254 138.351 241.738 138.639 242.271 138.835C242.804 139.032 243.376 139.133 243.952 139.133H284.116C285.281 139.133 286.398 138.721 287.222 137.989C288.046 137.256 288.508 136.263 288.508 135.227C288.506 134.193 288.042 133.202 287.218 132.471C286.395 131.74 285.279 131.33 284.116 131.33Z" fill="white" stroke="#263238" stroke-linejoin="round"/>
<path d="M284.116 123.279H243.952C243.376 123.279 242.804 123.38 242.271 123.577C241.738 123.773 241.254 124.061 240.846 124.423C240.438 124.786 240.115 125.216 239.894 125.69C239.673 126.164 239.56 126.672 239.56 127.185C239.56 127.698 239.673 128.206 239.894 128.679C240.115 129.153 240.438 129.584 240.846 129.946C241.254 130.309 241.738 130.597 242.271 130.793C242.804 130.989 243.376 131.09 243.952 131.09H284.116C285.281 131.09 286.398 130.679 287.222 129.946C288.046 129.214 288.508 128.221 288.508 127.185C288.508 126.149 288.046 125.156 287.222 124.423C286.398 123.691 285.281 123.279 284.116 123.279Z" fill="white" stroke="#263238" stroke-linejoin="round"/>
<path d="M330.101 34.9531H289.937C289.361 34.9531 288.79 35.0542 288.258 35.2506C287.725 35.447 287.242 35.7348 286.835 36.0976C286.427 36.4603 286.105 36.8909 285.885 37.3647C285.665 37.8385 285.553 38.3462 285.554 38.8587C285.554 39.8922 286.016 40.8834 286.838 41.6143C287.66 42.3451 288.775 42.7557 289.937 42.7557H330.101C331.264 42.7557 332.38 42.3454 333.203 41.6148C334.027 40.8842 334.491 39.893 334.493 38.8587C334.493 37.8229 334.031 36.8295 333.207 36.097C332.383 35.3646 331.266 34.9531 330.101 34.9531Z" fill="white" stroke="#263238" stroke-linejoin="round"/>
<path d="M349.284 27.0733H309.082C308.505 27.0721 307.933 27.1724 307.4 27.3682C306.866 27.5641 306.381 27.8517 305.973 28.2146C305.565 28.5775 305.242 29.0085 305.021 29.4829C304.801 29.9572 304.688 30.4656 304.689 30.9788C304.689 31.4917 304.803 31.9996 305.024 32.4734C305.245 32.9472 305.568 33.3778 305.976 33.7405C306.384 34.1031 306.868 34.3908 307.401 34.5871C307.934 34.7833 308.505 34.8844 309.082 34.8844H349.284C350.449 34.8844 351.566 34.4729 352.39 33.7405C353.214 33.008 353.677 32.0146 353.677 30.9788C353.677 29.943 353.214 28.9496 352.39 28.2172C351.566 27.4847 350.449 27.0733 349.284 27.0733Z" fill="white" stroke="#263238" stroke-linejoin="round"/>
<path d="M379.339 34.9531H339.176C338.599 34.9531 338.029 35.0542 337.496 35.2506C336.964 35.447 336.48 35.7348 336.073 36.0976C335.666 36.4603 335.343 36.8909 335.123 37.3647C334.904 37.8385 334.791 38.3462 334.792 38.8587C334.792 39.8922 335.254 40.8834 336.076 41.6143C336.898 42.3451 338.013 42.7557 339.176 42.7557H379.339C380.502 42.7557 381.618 42.3454 382.442 41.6148C383.265 40.8842 383.729 39.893 383.732 38.8587C383.732 37.8229 383.269 36.8295 382.445 36.097C381.621 35.3646 380.504 34.9531 379.339 34.9531Z" fill="white" stroke="#263238" stroke-linejoin="round"/>
<path d="M244.513 68.6191H237.581V73.5118H244.513V68.6191Z" fill="white" stroke="#263238" stroke-linejoin="round"/>
<path d="M247.477 73.2451H234.607V87.554H247.477V73.2451Z" fill="white" stroke="#263238" stroke-linejoin="round"/>
<path d="M264.468 57.7939H257.536V65.4763H264.468V57.7939Z" fill="white" stroke="#263238" stroke-linejoin="round"/>
<path d="M267.432 65.0645H254.562V87.5536H267.432V65.0645Z" fill="white" stroke="#263238" stroke-linejoin="round"/>
</g>
<path d="M157.771 191.39C157.771 191.39 162.135 193.262 160.924 199.535C159.713 205.808 158.912 206.527 162.561 209.873C166.21 213.219 168.207 213.748 167.399 219.102C166.592 224.455 161.552 226.673 161.754 229.439C161.955 232.206 166.592 231.657 168.207 235.347C169.182 237.763 169.528 240.354 169.216 242.913" stroke="#263238" stroke-linecap="round" stroke-linejoin="round"/>
<path d="M112.033 154.054C112.033 154.054 104.822 143.327 94.0323 146.009C83.2427 148.69 84.3445 154.673 82.3153 157.994C80.2861 161.315 69.0219 155.312 64.3144 163.148C59.6068 170.984 62.7379 174.699 61.5869 176.557C60.436 178.415 50.5463 175.938 49.1935 183.779C47.8407 191.619 50.5463 191.205 48.5171 193.267C46.4879 195.33 38.1529 192.648 36.1292 199.66C34.1055 206.671 43.5641 209.353 41.0822 214.098C38.6002 218.842 32.5235 215.751 29.8179 221.734C27.1123 227.716 30.2707 228.331 31.8471 233.285C33.4236 238.239 32.9708 240.276 27.7887 244.422C22.6066 248.567 22.5739 255.748 25.3013 258.43C28.0288 261.112 32.2781 260.482 33.1781 263.978C34.0782 267.474 29.5725 271.2 30.4507 269.137C31.3289 267.075 28.8743 265.641 27.5215 268.308C26.1687 270.975 27.9742 274.91 33.8327 275.53C39.6912 276.149 43.5205 274.291 46.2207 271.404H165.207C165.207 271.404 171.289 253.666 170.389 246.239C169.489 238.813 162.752 235.512 159.572 231.802C156.392 228.091 169.489 222.103 166.784 214.267C164.078 206.432 159.147 209.313 157.772 204.569C156.398 199.825 160.925 195.08 157.772 191.37C154.619 187.659 148.761 189.722 148.308 186.006C147.855 182.29 156.196 177.961 150.337 173.426C144.479 168.891 141.326 171.568 140.197 170.744C139.067 169.92 140.649 167.853 137.044 165.381C133.438 162.908 132.538 165.171 130.732 162.883C128.927 160.596 130.962 155.662 124.187 152.775C117.412 149.889 112.033 154.054 112.033 154.054Z" fill="#263238" stroke="#263238" stroke-linecap="round" stroke-linejoin="round"/>
<path d="M82.2937 157.976C82.2937 157.976 78.0608 159.664 74.2315 158.56C70.4022 157.456 64.9582 158.375 61.5272 163.174C58.0961 167.974 61.729 173.512 59.5089 176.094C57.2887 178.676 49.4283 177.018 47.8191 180.893C46.21 184.769 48.2228 191.416 47.0118 192.879C45.8008 194.342 39.3478 191.77 35.7203 196.754C32.0928 201.739 34.3075 204.136 34.913 206.538" stroke="#263238" stroke-linecap="round" stroke-linejoin="round"/>
<path d="M30.074 222.977C30.074 222.977 26.4466 227.042 27.6575 230.548C28.8685 234.053 33.7888 232.38 31.6887 237.539C29.5885 242.698 22.4154 248.062 22.2136 252.307C22.0118 256.552 25.6392 256.552 30.074 262.644C34.5088 268.737 30.4722 269.137 30.4722 269.137" stroke="#263238" stroke-linecap="round" stroke-linejoin="round"/>
<path d="M72.971 220.529C72.971 220.529 50.2843 225.588 49.1006 228.295C47.9169 231.002 42.9858 275.069 42.9858 275.069C42.9858 275.069 38.8455 290.96 40.422 292.049C41.9984 293.138 60.3431 301.433 60.3431 301.433H129.974L135.893 279.958C135.893 279.958 144.375 242.758 144.964 237.883C145.553 233.009 146.546 232.285 144.179 228.854C141.811 225.423 107.293 215.845 72.971 220.529Z" fill="#EB012A" stroke="#263238" stroke-linecap="round" stroke-linejoin="round"/>
<path d="M72.9711 220.53C72.9711 220.53 70.7128 226.493 70.3364 228.915C69.96 231.337 70.8819 249.5 70.8819 249.5L84.1099 250.194L79.9533 255.213C82.2914 257.327 84.8909 259.184 87.6992 260.747C90.7543 262.506 93.6608 264.472 96.3942 266.63C96.3942 266.63 101.849 261.611 104.893 259.708C107.937 257.805 109.999 255.903 109.802 254.714C109.485 253.468 109.043 252.251 108.482 251.078L122.845 251.578C122.845 251.578 126.81 243.088 125.108 230.473C123.407 217.858 122.277 216.11 122.277 216.11L93.9122 211.44C93.9122 211.44 78.4368 213.713 72.9711 220.53Z" fill="#EB012A" stroke="#263238" stroke-linecap="round" stroke-linejoin="round"/>
<path d="M82.8931 298.177C82.8931 298.177 105.88 295.52 121.279 289.592Z" fill="#EB012A"/>
<path d="M82.8931 298.177C82.8931 298.177 105.88 295.52 121.279 289.592" stroke="#263238" stroke-linecap="round" stroke-linejoin="round"/>
<path d="M98.0688 297.563C98.0688 297.563 114.586 295.316 121.95 292.454Z" fill="#EB012A"/>
<path d="M98.0688 297.563C98.0688 297.563 114.586 295.316 121.95 292.454" stroke="#263238" stroke-linecap="round" stroke-linejoin="round"/>
<path d="M79.6748 216.035C79.6748 216.035 84.8024 243.667 90.1317 253.056C95.4611 262.445 96.443 264.977 96.443 264.977C96.443 264.977 110.446 243.667 114.389 231.387C118.333 219.107 117.035 211.78 117.035 211.78C117.035 211.78 128.632 206.172 117.035 206.746C105.438 207.321 79.6748 216.035 79.6748 216.035Z" fill="white" stroke="#263238" stroke-linecap="round" stroke-linejoin="round"/>
<path d="M90.4209 220.774C90.4209 220.774 93.2301 226.358 92.5265 232.151" stroke="#263238" stroke-linecap="round" stroke-linejoin="round"/>
<path d="M78.3001 182.735C78.3001 182.735 76.1182 196.519 78.2183 205.388C80.3184 214.257 86.2533 222.208 94.2555 221.244C102.258 220.28 108.984 216.155 117.253 208.564C122.501 203.735 124.197 195.475 124.617 187.589C125.037 179.703 123.99 182.555 122.304 176.772C120.619 170.989 112.835 164.971 105.487 164.197C98.1394 163.423 83.3513 161.525 78.3001 182.735Z" fill="white" stroke="#263238" stroke-linecap="round" stroke-linejoin="round"/>
<path d="M105.7 196.348C105.7 196.449 105.656 196.545 105.578 196.617C105.501 196.688 105.395 196.728 105.285 196.728C105.175 196.728 105.07 196.688 104.992 196.617C104.914 196.545 104.871 196.449 104.871 196.348C104.871 196.248 104.914 196.151 104.992 196.08C105.07 196.009 105.175 195.969 105.285 195.969C105.395 195.969 105.501 196.009 105.578 196.08C105.656 196.151 105.7 196.248 105.7 196.348Z" stroke="#263238" stroke-width="0.5" stroke-miterlimit="10"/>
<path d="M111.995 197.482C111.995 197.557 111.971 197.631 111.925 197.693C111.88 197.755 111.815 197.804 111.739 197.833C111.663 197.861 111.58 197.869 111.5 197.854C111.419 197.84 111.345 197.804 111.287 197.75C111.229 197.697 111.19 197.63 111.174 197.556C111.158 197.483 111.166 197.406 111.198 197.337C111.229 197.267 111.282 197.208 111.35 197.167C111.418 197.125 111.499 197.103 111.581 197.103C111.691 197.103 111.796 197.143 111.874 197.214C111.951 197.285 111.995 197.381 111.995 197.482Z" stroke="#263238" stroke-width="0.5" stroke-miterlimit="10"/>
<path d="M108.487 199.18C108.488 199.255 108.465 199.329 108.42 199.392C108.375 199.456 108.311 199.505 108.235 199.534C108.16 199.564 108.076 199.572 107.995 199.558C107.914 199.544 107.84 199.508 107.782 199.455C107.723 199.402 107.683 199.335 107.667 199.261C107.65 199.187 107.658 199.111 107.689 199.041C107.72 198.971 107.774 198.912 107.842 198.87C107.91 198.828 107.991 198.806 108.073 198.806C108.182 198.806 108.286 198.845 108.364 198.915C108.442 198.985 108.486 199.08 108.487 199.18Z" stroke="#263238" stroke-width="0.5" stroke-miterlimit="10"/>
<path d="M84.8567 190.966C84.845 191.059 84.7966 191.144 84.7207 191.206C84.6447 191.268 84.5466 191.302 84.4448 191.302C84.3431 191.302 84.2449 191.268 84.169 191.206C84.0931 191.144 84.0446 191.059 84.033 190.966C84.0263 190.913 84.032 190.859 84.0496 190.808C84.0673 190.757 84.0965 190.71 84.1354 190.67C84.1743 190.63 84.2219 190.598 84.2753 190.576C84.3286 190.554 84.3864 190.543 84.4448 190.543C84.5033 190.543 84.5611 190.554 84.6144 190.576C84.6678 190.598 84.7154 190.63 84.7543 190.67C84.7932 190.71 84.8224 190.757 84.8401 190.808C84.8577 190.859 84.8634 190.913 84.8567 190.966Z" stroke="#263238" stroke-width="0.5" stroke-miterlimit="10"/>
<path d="M91.1519 192.098C91.1519 192.173 91.1276 192.247 91.082 192.309C91.0365 192.372 90.9717 192.42 90.896 192.449C90.8202 192.478 90.7369 192.485 90.6564 192.471C90.576 192.456 90.5022 192.42 90.4442 192.367C90.3862 192.314 90.3467 192.246 90.3307 192.172C90.3147 192.099 90.3229 192.022 90.3543 191.953C90.3857 191.884 90.4388 191.824 90.507 191.783C90.5752 191.741 90.6553 191.719 90.7373 191.719C90.8473 191.719 90.9527 191.759 91.0305 191.83C91.1082 191.901 91.1519 191.998 91.1519 192.098Z" stroke="#263238" stroke-width="0.5" stroke-miterlimit="10"/>
<path d="M87.6448 193.797C87.6515 193.85 87.6458 193.904 87.6282 193.955C87.6105 194.006 87.5813 194.053 87.5424 194.093C87.5035 194.133 87.4558 194.165 87.4025 194.187C87.3492 194.209 87.2914 194.22 87.2329 194.22C87.1745 194.22 87.1167 194.209 87.0634 194.187C87.01 194.165 86.9623 194.133 86.9235 194.093C86.8846 194.053 86.8553 194.006 86.8377 193.955C86.8201 193.904 86.8144 193.85 86.8211 193.797C86.8327 193.705 86.8811 193.619 86.9571 193.557C87.033 193.495 87.1312 193.461 87.2329 193.461C87.3347 193.461 87.4328 193.495 87.5088 193.557C87.5847 193.619 87.6331 193.705 87.6448 193.797Z" stroke="#263238" stroke-width="0.5" stroke-miterlimit="10"/>
<path d="M96.2574 184.757C96.2574 184.757 96.6993 187.114 94.9537 191.079C94.4214 192.254 93.6066 193.304 92.57 194.151C92.57 194.151 90.2135 192.922 89.3734 194.61C88.5334 196.298 89.3734 199.689 94.5828 199.534" stroke="#263238" stroke-linecap="round" stroke-linejoin="round"/>
<path d="M85.5117 201.687C85.5117 201.687 87.8628 205.227 93.4103 205.227C98.9579 205.227 101.865 203.729 101.865 203.729C101.865 203.729 97.7796 207.969 92.7339 208.723C87.6882 209.477 85.5117 201.687 85.5117 201.687Z" fill="white" stroke="#263238" stroke-linecap="round" stroke-linejoin="round"/>
<path d="M102.951 190.831C102.951 190.831 103.311 188.169 108.362 189.332C110.604 189.832 113.659 193.158 112.628 192.943C111.597 192.728 107.069 189.772 102.951 190.831Z" fill="#263238"/>
<path d="M104.096 191.59C104.096 191.59 104.642 192.619 109.507 193.473" stroke="#263238" stroke-linecap="round" stroke-linejoin="round"/>
<path d="M101.723 181.996C101.723 181.996 106.987 179.045 112.006 180.598C117.024 182.151 117.024 186.346 117.024 186.346C117.024 186.346 112.033 181.078 101.723 181.996Z" fill="#263238"/>
<path d="M96.2628 181.381C96.2628 181.381 95.2972 177.226 92.4007 176.767C89.5042 176.307 85.064 180.228 85.064 180.228C85.064 180.228 92.788 176.997 96.2628 181.381Z" fill="#263238"/>
<path d="M92.8371 187.698C92.5371 188.901 91.708 189.75 90.9825 189.6C90.257 189.451 89.8915 188.352 90.2133 187.148C90.5352 185.945 91.3479 185.101 92.068 185.251C92.788 185.4 93.1371 186.499 92.8371 187.698Z" fill="#263238"/>
<path d="M106.147 166.699C106.147 166.699 102.154 161.18 100.692 166.389C99.2303 171.598 96.2083 175.214 93.6773 176.952C91.1463 178.689 86.7333 174.634 83.995 179.843C81.2566 185.052 83.7822 188.902 81.8894 191.794C79.9966 194.685 76.6255 193.722 77.0455 196.788C77.4655 199.854 77.2582 202.376 73.2271 204.883C71.1324 206.192 69.2287 213.373 69.2287 213.943C69.2287 214.512 61.8592 202.376 65.6449 196.963C69.4305 191.549 73.4398 190.97 73.4398 188.288C73.4398 185.606 68.8032 175.758 72.3871 171.133C75.9709 166.509 80.3893 167.852 82.7022 165.735C85.015 163.617 82.4949 155.322 92.5972 155.322C102.7 155.322 106.147 164.386 106.147 166.699Z" fill="#263238" stroke="#263238" stroke-linecap="round" stroke-linejoin="round"/>
<path d="M65.5141 205.403C65.5141 205.403 65.1978 216.67 65.1978 218.722C65.1978 220.775 68.2361 222.817 68.8743 223.257C69.5125 223.696 79.2658 230.748 79.2658 230.748L75.9056 240.237L85.0206 243.603C85.0206 243.603 90.6119 228.386 90.1318 226.043C89.6518 223.701 85.8171 221.359 85.8171 221.359C85.8171 221.359 88.8554 214.627 89.0136 213.458C89.1718 212.29 83.4224 210.237 83.4224 210.237C83.4224 210.237 75.7474 207.455 73.6691 206.577C71.5908 205.698 66.4742 203.795 65.5141 205.403Z" fill="white" stroke="#263238" stroke-linecap="round" stroke-linejoin="round"/>
<path d="M73.3032 206.436C73.3032 206.436 69.3921 205.937 69.1248 206.761C68.8575 207.585 66.8174 218.487 66.8174 218.487" stroke="#263238" stroke-linecap="round" stroke-linejoin="round"/>
<path d="M74.6298 207.171L71.0732 219.137" stroke="#263238" stroke-linecap="round" stroke-linejoin="round"/>
<path d="M79.7842 209.123L76.855 219.95" stroke="#263238" stroke-linecap="round" stroke-linejoin="round"/>
<path d="M85.8167 221.353L82.3638 218.727L84.0548 215.88C84.0548 215.88 83.8748 217.019 85.4785 216.614" stroke="#263238" stroke-linecap="round" stroke-linejoin="round"/>
<path d="M148.58 172.243C149.889 172.849 151.122 173.584 152.257 174.435C152.847 174.868 153.395 175.348 153.893 175.869C154.424 176.409 154.848 177.029 155.148 177.701C155.456 178.415 155.566 179.187 155.47 179.949C155.393 180.688 155.148 181.327 155.137 181.837C155.119 182.076 155.157 182.315 155.246 182.541C155.293 182.654 155.347 182.764 155.41 182.87C155.446 182.938 155.498 182.998 155.562 183.045C155.726 183.215 156.343 183.235 156.992 183.12C157.641 183.005 158.344 182.84 159.108 182.725C159.515 182.66 159.928 182.633 160.341 182.646C160.828 182.657 161.305 182.78 161.726 183.005C161.948 183.131 162.149 183.285 162.321 183.465C162.46 183.625 162.589 183.791 162.708 183.964C162.929 184.318 163.081 184.705 163.156 185.108C163.267 185.816 163.278 186.534 163.188 187.245C163.099 187.794 163.14 188.355 163.308 188.888L163.379 189.038L163.477 189.173C163.501 189.21 163.531 189.243 163.565 189.273C163.565 189.303 163.641 189.328 163.674 189.358C163.912 189.494 164.171 189.596 164.443 189.662C165.811 189.934 167.195 190.129 168.589 190.247C169.36 190.333 170.118 190.5 170.847 190.746C171.31 190.897 171.718 191.163 172.025 191.515C172.116 191.624 172.191 191.743 172.249 191.87C172.292 191.97 172.314 192.039 172.347 192.124C172.412 192.289 172.467 192.449 172.527 192.624C172.958 193.887 173.291 195.151 174.016 196.12C174.344 196.574 174.819 196.924 175.374 197.118C175.995 197.322 176.647 197.436 177.305 197.458C178.071 197.491 178.828 197.616 179.558 197.828C180.288 198.066 180.976 198.403 181.598 198.826C182.22 199.246 182.749 199.67 183.3 200.095L184.937 201.363L188.21 203.925L194.755 209.049C194.81 209.093 194.843 209.155 194.848 209.221C194.853 209.288 194.83 209.353 194.783 209.404C194.736 209.452 194.671 209.483 194.601 209.488C194.531 209.494 194.461 209.474 194.406 209.434L180.949 199.675C180.41 199.323 179.816 199.047 179.187 198.856C178.546 198.683 177.882 198.589 177.213 198.577C176.437 198.561 175.668 198.438 174.933 198.212C174.135 197.945 173.446 197.46 172.958 196.824C171.998 195.61 171.649 194.257 171.191 193.043C171.136 192.893 171.082 192.739 171.021 192.599C170.961 192.459 170.956 192.444 170.934 192.394C170.921 192.369 170.904 192.346 170.885 192.324C170.73 192.169 170.532 192.056 170.312 191.994C169.689 191.798 169.043 191.665 168.387 191.6C166.92 191.484 165.462 191.284 164.023 191.001C163.598 190.893 163.195 190.724 162.828 190.501C162.72 190.432 162.618 190.355 162.523 190.272C162.425 190.19 162.339 190.098 162.266 189.997L162.065 189.722L161.917 189.428C161.655 188.704 161.573 187.936 161.677 187.18C161.76 186.587 161.76 185.986 161.677 185.392C161.631 185.146 161.537 184.909 161.399 184.693C161.334 184.588 161.241 184.488 161.17 184.394C161.106 184.326 161.031 184.269 160.946 184.224C160.446 184.035 159.891 184.005 159.37 184.139C158.721 184.234 158.034 184.413 157.275 184.543C156.868 184.617 156.453 184.65 156.037 184.643C155.505 184.637 154.99 184.472 154.57 184.174C154.349 184.013 154.164 183.814 154.024 183.589C153.918 183.407 153.828 183.217 153.757 183.02C153.606 182.624 153.545 182.205 153.577 181.787C153.631 180.978 153.882 180.358 153.959 179.789C154.054 179.243 153.999 178.683 153.801 178.161C153.286 177.035 152.509 176.024 151.526 175.199C150.52 174.296 149.45 173.453 148.324 172.677C148.267 172.637 148.23 172.577 148.22 172.512C148.211 172.446 148.231 172.38 148.275 172.328C148.309 172.285 148.357 172.254 148.412 172.239C148.467 172.224 148.526 172.225 148.58 172.243Z" fill="#263238"/>
<path d="M172.778 241.85L178.893 228.666C178.893 228.666 182.837 217.654 185.401 215.846C187.965 214.038 191.516 210.792 192.896 208.08C194.276 205.368 195.858 204.649 195.858 207.176C195.858 209.703 195.263 211.671 194.079 212.954L201.493 211.456C201.493 211.456 200.445 214.503 199.48 215.546C198.285 216.835 201.378 218.208 201.182 220.54C200.789 225.235 202.965 226.533 201.978 227.782C200.991 229.03 188.756 237.156 188.161 237.695C187.566 238.234 183.432 249.796 183.432 249.796L172.778 241.85Z" fill="white" stroke="#263238" stroke-linecap="round" stroke-linejoin="round"/>
<path d="M194.079 212.954C194.079 212.954 190.97 216.535 190.621 217.274C190.271 218.013 190.277 223.187 189.584 225.195C189.224 226.284 188.762 227.343 188.204 228.361" stroke="#263238" stroke-linecap="round" stroke-linejoin="round"/>
<path d="M198.006 208.613C198.006 208.613 192.704 213.892 192.933 214.526C193.163 215.16 193.855 216.109 194.57 216.024C195.285 215.939 201.372 212.963 201.607 211.799C201.841 210.636 200.085 207.979 198.006 208.613Z" fill="white" stroke="#263238" stroke-linecap="round" stroke-linejoin="round"/>
<path d="M200.947 223.916C200.947 223.916 194.673 226.453 194.619 227.037C194.564 227.622 194.75 228.605 195.35 228.74C195.95 228.875 201.978 228.466 202.605 227.607C203.232 226.748 202.872 224.076 200.947 223.916Z" fill="white" stroke="#263238" stroke-linecap="round" stroke-linejoin="round"/>
<path d="M201.367 219.421C201.367 219.421 194.527 222.188 194.461 222.822C194.396 223.456 194.609 224.53 195.263 224.68C195.918 224.829 202.491 224.375 203.178 223.441C203.866 222.507 203.451 219.591 201.367 219.421Z" fill="white" stroke="#263238" stroke-linecap="round" stroke-linejoin="round"/>
<path d="M201.056 214.842C201.056 214.842 194.347 218.533 194.401 219.217C194.456 219.901 194.799 220.975 195.492 221.05C196.185 221.125 202.96 219.856 203.538 218.803C204.116 217.749 203.244 214.767 201.056 214.842Z" fill="white" stroke="#263238" stroke-linecap="round" stroke-linejoin="round"/>
<path d="M138.26 225.419C138.26 225.419 147.926 227.417 147.73 233C147.593 236.835 150.457 246.853 152.268 252.796C152.912 254.962 154 256.996 155.475 258.789C156.003 259.421 156.477 260.089 156.894 260.787C157.368 261.581 156.605 264.592 156.605 264.592L172.184 238.953L189.939 247.443C189.939 247.443 182.248 265.501 180.077 272.183C177.906 278.865 171.398 296.02 169.031 298.732C166.663 301.444 161.138 302.522 155.421 302.343C149.704 302.163 146.546 300.899 144.964 298.552C143.382 296.205 135.893 279.959 135.893 279.959L138.205 261.681" fill="#EB012A"/>
<path d="M138.26 225.419C138.26 225.419 147.926 227.417 147.73 233C147.593 236.835 150.457 246.853 152.268 252.796C152.912 254.962 154 256.996 155.475 258.789C156.003 259.421 156.477 260.089 156.894 260.787C157.368 261.581 156.605 264.592 156.605 264.592L172.184 238.953L189.939 247.443C189.939 247.443 182.248 265.501 180.077 272.183C177.906 278.865 171.398 296.02 169.031 298.732C166.663 301.444 161.138 302.522 155.421 302.343C149.704 302.163 146.546 300.899 144.964 298.552C143.382 296.205 135.893 279.959 135.893 279.959L138.205 261.681" stroke="#263238" stroke-linecap="round" stroke-linejoin="round"/>
<path d="M148.924 270.97C150.435 269.736 151.651 268.822 151.651 268.822" stroke="#263238" stroke-linecap="round" stroke-linejoin="round"/>
<path d="M143.769 281.193C143.769 281.193 142.242 277.278 144.686 274.761C145.357 274.071 146.18 273.312 147.026 272.578" stroke="#263238" stroke-linecap="round" stroke-linejoin="round"/>
<path d="M180.704 258.186L182.215 258.905" stroke="#263238" stroke-linecap="round" stroke-linejoin="round"/>
<path d="M168.403 252.347L178.468 257.126" stroke="#263238" stroke-linecap="round" stroke-linejoin="round"/>
<path d="M182.215 244.151L177.611 253.286" stroke="#263238" stroke-linecap="round" stroke-linejoin="round"/>
<path d="M148.423 279.959C148.215 281.257 148.286 282.556 149.737 281.622" stroke="#263238" stroke-linecap="round" stroke-linejoin="round"/>
<path d="M156.604 264.603L148.913 277.967" stroke="#263238" stroke-linecap="round" stroke-linejoin="round"/>
<path d="M148.836 194.686C145.258 189.287 141.68 188.323 141.68 184.468C141.68 180.612 139.781 175.598 134.73 171.358C132.904 169.934 130.942 168.664 128.866 167.563C127.033 166.499 125.321 164.966 123.411 164.102C122.847 163.865 122.256 163.684 121.649 163.563C118.807 162.913 110.194 160.761 108.214 163.842C103.523 163.223 112.502 172.752 112.933 168.182C112.583 171.858 109.267 175.673 111.885 178.735C114.504 181.796 119.042 179.853 117.122 184.648C115.202 189.442 113.456 193.138 115.027 195.834C116.211 197.882 117.695 198.751 118.502 200.009C119.047 201.508 119.015 202.536 117.476 204.324C115.164 207.021 114.684 208.105 114.449 212.43C114.449 212.43 115.987 215.121 114.209 216.749C112.431 218.378 108.291 221.624 110.069 224.695C111.847 227.766 115.791 227.582 114.209 229.934C112.627 232.286 105.334 232.82 105.334 238.059C105.334 243.298 108.689 247.088 112.038 247.448C115.387 247.808 117.171 252.687 115.196 254.31C113.222 255.933 106.91 254.674 106.714 261.356C106.518 268.039 113.222 268.034 113.62 270.745C114.018 273.457 109.474 275.44 108.885 273.093C108.296 270.745 108.885 269.662 108.885 269.662C108.885 269.662 105.923 271.829 107.309 275.08C108.694 278.331 114.209 278.331 117.564 277.427C120.918 276.523 121.9 270.021 121.9 270.021C121.9 270.021 125.255 273.093 129.597 272.189C133.939 271.285 134.506 268.218 134.506 268.218C134.506 268.218 128.392 267.135 128.784 264.787C129.177 262.44 135.096 265.147 137.659 259.549C140.223 253.95 134.108 251.963 132.925 248.891C131.741 245.82 134.108 246.005 139.438 244.896C144.767 243.787 144.347 239.118 141.21 234.603C138.074 230.089 142.198 227.921 143.971 224.67C145.743 221.419 144.369 217.084 144.369 217.084C144.369 217.084 143.147 211.431 146.725 206.996C150.304 202.561 152.398 200.084 148.836 194.686Z" fill="#263238" stroke="#263238" stroke-linecap="round" stroke-linejoin="round"/>
<path d="M111.329 163.597C111.99 164.37 112.778 165.044 113.664 165.595C114.534 166.139 115.494 166.552 116.506 166.819C117.006 166.941 117.514 167.031 118.028 167.088C118.285 167.117 118.544 167.134 118.803 167.138H119.19H119.626C120.215 167.138 120.81 167.138 121.443 167.198C121.788 167.219 122.131 167.266 122.468 167.338C122.683 167.384 122.893 167.447 123.096 167.528C123.4 167.653 123.67 167.839 123.886 168.072C124.142 168.356 124.298 168.704 124.334 169.071C124.357 169.316 124.341 169.564 124.285 169.805C124.208 170.128 124.106 170.445 123.979 170.754L123.357 172.252C123.166 172.751 122.976 173.201 122.812 173.675C122.668 174.086 122.573 174.51 122.528 174.939C122.37 176.602 123.194 178.295 124.497 179.733C125.166 180.471 125.919 181.141 126.745 181.731C127.17 182.02 127.596 182.31 128.038 182.575C128.479 182.839 128.894 183.044 129.543 183.444C130.796 184.211 131.72 185.351 132.161 186.67C132.535 187.966 132.476 189.335 131.992 190.6C131.547 191.736 130.883 192.789 130.034 193.712C129.84 193.946 129.63 194.169 129.407 194.381C129.183 194.591 128.97 194.815 128.73 195.005L127.481 196.059C126.779 196.66 126.204 197.375 125.785 198.166C125.42 198.954 125.261 199.809 125.321 200.663C125.403 202.481 126.112 204.464 126.838 206.416C127.236 207.464 127.57 208.531 127.836 209.613C128.118 210.769 128.205 211.958 128.092 213.138C127.943 214.398 127.443 215.602 126.641 216.634C125.88 217.582 124.959 218.413 123.914 219.096C122.937 219.766 121.917 220.34 120.957 220.889C120.477 221.164 120.019 221.434 119.632 221.708C119.346 221.883 119.112 222.12 118.95 222.397C118.923 222.47 118.923 222.549 118.95 222.622C118.988 222.772 119.053 222.915 119.141 223.047C119.393 223.424 119.694 223.773 120.035 224.085C120.215 224.265 120.412 224.43 120.608 224.585L121.246 225.144C121.666 225.524 122.086 225.898 122.496 226.298C123.33 227.096 124.094 227.952 124.781 228.86C125.524 229.81 126.068 230.879 126.385 232.011C126.698 233.252 126.482 234.557 125.779 235.657C125.61 235.921 125.392 236.156 125.201 236.401L124.656 236.995C124.312 237.395 123.985 237.804 123.663 238.229C122.4 239.938 121.305 241.746 120.39 243.632L120.33 243.133C121.523 244.843 122.542 246.65 123.374 248.531C123.796 249.49 124.116 250.483 124.328 251.498C124.592 252.576 124.522 253.7 124.127 254.744C123.887 255.305 123.474 255.789 122.937 256.137C122.453 256.454 121.944 256.737 121.415 256.986C120.413 257.432 119.378 257.812 118.317 258.125C117.297 258.45 116.293 258.774 115.699 259.349C115.419 259.652 115.231 260.017 115.153 260.407C115.115 260.617 115.099 260.837 115.077 261.057V261.741L114.531 260.867C114.531 261.171 114.821 262.365 114.493 262.365C114.414 262.368 114.335 262.356 114.262 262.33C114.188 262.305 114.12 262.266 114.063 262.216C114.005 262.166 113.959 262.107 113.927 262.041C113.895 261.974 113.878 261.903 113.877 261.831V261.027C113.877 260.747 113.926 260.467 113.975 260.193C114.101 259.601 114.397 259.052 114.831 258.599C115.27 258.196 115.788 257.872 116.359 257.646C116.904 257.421 117.45 257.251 117.935 257.086C118.941 256.784 119.921 256.417 120.87 255.988C121.328 255.778 121.769 255.54 122.19 255.273C122.549 255.045 122.824 254.723 122.981 254.349C123.282 253.497 123.325 252.586 123.106 251.713C122.907 250.771 122.61 249.85 122.217 248.961C121.414 247.149 120.434 245.407 119.288 243.757C119.238 243.683 119.207 243.599 119.199 243.513C119.19 243.426 119.204 243.339 119.239 243.258C120.066 241.24 121.103 239.3 122.337 237.465C122.654 237.005 122.986 236.556 123.336 236.111L123.881 235.462C124.006 235.272 124.17 235.097 124.274 234.903C124.715 234.145 124.817 233.26 124.557 232.436C124.253 231.53 123.769 230.683 123.128 229.938C122.465 229.138 121.735 228.385 120.946 227.686C120.559 227.322 120.139 226.977 119.73 226.627L119.103 226.128C118.879 225.943 118.65 225.758 118.426 225.554C117.942 225.132 117.513 224.659 117.15 224.145C116.932 223.827 116.77 223.48 116.67 223.117C116.553 222.677 116.564 222.217 116.702 221.783C116.841 221.393 117.06 221.03 117.346 220.714C117.583 220.464 117.842 220.232 118.121 220.02C118.602 219.664 119.102 219.331 119.621 219.021C120.597 218.427 121.53 217.878 122.386 217.269C123.209 216.711 123.929 216.036 124.519 215.271C125.042 214.567 125.358 213.752 125.436 212.904C125.594 211.156 124.934 209.183 124.208 207.28C123.445 205.258 122.61 203.2 122.441 200.788C122.349 199.529 122.574 198.268 123.101 197.103C123.653 195.975 124.441 194.957 125.419 194.106L126.701 193.022C126.898 192.868 127.056 192.688 127.247 192.523C127.425 192.357 127.591 192.18 127.743 191.994C128.362 191.306 128.843 190.523 129.161 189.681C129.45 188.947 129.494 188.151 129.287 187.394C129.04 186.68 128.523 186.069 127.83 185.671C127.623 185.551 127.509 185.461 127.203 185.302C126.898 185.142 126.658 185.017 126.412 184.857C125.867 184.547 125.387 184.218 124.89 183.858C123.9 183.14 122.996 182.326 122.195 181.431C121.358 180.503 120.69 179.457 120.215 178.335C119.733 177.147 119.563 175.873 119.719 174.614C119.804 173.995 119.961 173.385 120.188 172.796C120.395 172.297 120.619 171.758 120.859 171.263L121.557 169.83C121.645 169.65 121.72 169.465 121.781 169.276C121.808 169.211 121.781 169.191 121.808 169.226C121.828 169.326 121.875 169.421 121.945 169.5C122.043 169.585 122.054 169.58 122.048 169.57C121.988 169.544 121.926 169.523 121.863 169.505C121.642 169.449 121.418 169.404 121.192 169.37C120.679 169.301 120.101 169.251 119.555 169.211L119.13 169.176L118.655 169.126C118.338 169.1 118.023 169.057 117.712 168.996C117.087 168.88 116.476 168.713 115.884 168.497C114.711 168.08 113.625 167.481 112.677 166.724C111.727 165.987 110.929 165.101 110.32 164.107C110.244 163.979 110.226 163.828 110.27 163.688C110.313 163.548 110.416 163.429 110.555 163.358C110.681 163.295 110.827 163.276 110.967 163.303C111.107 163.331 111.232 163.403 111.319 163.507L111.329 163.597Z" fill="#575757"/>
<path d="M118.372 163.622C120.401 163.742 122.468 163.772 124.519 163.722L127.634 163.647C128.215 163.636 128.795 163.699 129.358 163.832C130.009 163.978 130.595 164.304 131.038 164.766C131.464 165.247 131.72 165.836 131.774 166.454C131.831 166.986 131.812 167.523 131.72 168.052C131.547 169.02 131.306 169.978 131 170.918C130.727 171.832 130.416 172.756 130.181 173.615C129.948 174.451 129.86 175.316 129.919 176.177C129.986 176.99 130.273 177.774 130.754 178.459C131.278 179.159 131.938 179.763 132.701 180.242C133.094 180.497 133.503 180.742 133.934 180.956C134.147 181.066 134.365 181.176 134.589 181.281C134.812 181.386 135.091 181.521 135.325 181.661C136.297 182.229 137.137 182.967 137.796 183.833C139.115 185.561 139.698 187.672 139.433 189.766C139.283 190.812 138.898 191.819 138.304 192.722C137.998 193.166 137.647 193.583 137.256 193.966C136.831 194.366 136.503 194.63 136.165 194.965C135.509 195.592 134.975 196.319 134.589 197.112C134.226 197.901 134.056 198.754 134.092 199.609C134.152 201.357 134.818 203.145 135.527 204.893C136.377 206.655 137.013 208.497 137.425 210.386C137.611 211.379 137.595 212.395 137.376 213.383C137.128 214.38 136.636 215.313 135.936 216.11C134.578 217.693 132.789 218.767 131.12 219.86C130.7 220.13 130.29 220.405 129.919 220.694C129.557 220.951 129.258 221.274 129.041 221.643C128.67 222.297 129.243 223.101 129.919 223.741C130.596 224.38 131.441 224.964 132.216 225.608C132.991 226.253 133.749 226.907 134.463 227.606C135.189 228.315 135.829 229.094 136.373 229.928C136.946 230.786 137.267 231.765 137.305 232.77V232.675C137.492 233.272 137.564 233.894 137.518 234.513C137.476 235.143 137.264 235.754 136.902 236.291C136.524 236.821 136.001 237.252 135.385 237.539C134.86 237.814 134.376 238.15 133.945 238.538C133.056 239.291 132.411 240.253 132.08 241.32C131.922 241.816 131.965 242.348 132.2 242.818C132.472 243.257 132.917 243.586 133.443 243.737C133.532 243.767 133.603 243.827 133.643 243.906C133.682 243.984 133.686 244.073 133.653 244.154C133.621 244.235 133.554 244.3 133.469 244.336C133.384 244.372 133.286 244.376 133.198 244.346C132.509 244.136 131.933 243.693 131.589 243.108C131.293 242.508 131.239 241.832 131.436 241.2C131.812 240.028 132.526 238.971 133.503 238.139C133.976 237.715 134.506 237.349 135.08 237.05C135.597 236.808 136.035 236.447 136.351 236.001C136.631 235.532 136.804 235.015 136.859 234.483C136.913 233.95 136.848 233.413 136.667 232.905C136.662 232.878 136.662 232.851 136.667 232.825C136.624 231.927 136.329 231.055 135.811 230.293C135.292 229.5 134.679 228.761 133.983 228.09C133.287 227.406 132.547 226.759 131.769 226.153C131.005 225.533 130.165 224.989 129.396 224.285C128.99 223.928 128.649 223.513 128.387 223.056C128.237 222.798 128.152 222.513 128.139 222.22C128.126 221.928 128.184 221.637 128.31 221.368C128.572 220.89 128.944 220.469 129.401 220.135C129.805 219.805 130.225 219.516 130.645 219.231C132.314 218.112 134.011 217.029 135.194 215.59C135.78 214.893 136.184 214.084 136.378 213.223C136.547 212.35 136.536 211.456 136.345 210.586C136.156 209.686 135.884 208.803 135.533 207.944C135.189 207.075 134.769 206.226 134.371 205.332C133.607 203.555 132.838 201.717 132.734 199.659C132.674 198.615 132.86 197.571 133.28 196.598C133.715 195.649 134.326 194.775 135.085 194.016C135.44 193.651 135.876 193.272 136.176 192.987C136.483 192.679 136.757 192.344 136.994 191.988C137.458 191.258 137.748 190.446 137.845 189.606C138.046 187.895 137.557 186.176 136.471 184.772C135.942 184.081 135.267 183.495 134.485 183.049C134.283 182.929 134.109 182.849 133.869 182.734C133.629 182.619 133.394 182.505 133.154 182.385C132.644 182.141 132.148 181.87 131.67 181.576C130.719 180.985 129.898 180.237 129.249 179.368C128.59 178.461 128.201 177.413 128.119 176.327C128.052 175.294 128.164 174.257 128.452 173.256C128.719 172.282 129.036 171.398 129.336 170.489C129.647 169.622 129.897 168.738 130.083 167.842C130.241 166.988 130.247 166.129 129.843 165.675C129.439 165.22 128.529 164.985 127.585 164.941C126.641 164.896 125.517 164.911 124.492 164.856C122.403 164.779 120.32 164.586 118.257 164.276C118.173 164.257 118.1 164.21 118.051 164.145C118.003 164.079 117.982 164 117.992 163.921C118.003 163.843 118.045 163.771 118.11 163.718C118.174 163.666 118.258 163.637 118.344 163.637L118.372 163.622Z" fill="#575757"/>
<path d="M104.118 160.162C102.613 159.512 101.069 158.918 99.5307 158.399C98.0413 157.874 96.4882 157.515 94.905 157.33C94.2352 157.245 93.5532 157.298 92.9085 157.485C92.6714 157.557 92.4589 157.684 92.2921 157.854C92.0885 158.047 91.9225 158.27 91.8012 158.514C91.4918 159.115 91.2716 159.752 91.1466 160.406C90.9939 161.101 90.8793 161.825 90.7811 162.564C90.5902 164.037 90.5029 165.56 90.3557 167.103C90.2793 167.878 90.1975 168.657 90.0775 169.451C89.9658 170.298 89.7686 171.134 89.4883 171.948C89.3116 172.451 89.0382 172.921 88.681 173.336C88.2788 173.771 87.7705 174.113 87.1973 174.335C86.2817 174.662 85.315 174.855 84.3335 174.904C82.6207 175.044 81.0606 175.139 79.8933 175.693C79.2995 175.985 78.7768 176.384 78.3567 176.867C77.9366 177.349 77.628 177.905 77.4495 178.5C76.9649 179.794 76.8046 181.171 76.9804 182.53C77.1222 183.933 77.5804 185.362 77.8968 186.975C78.0891 187.844 78.1314 188.735 78.0223 189.617C77.8755 190.584 77.45 191.497 76.7895 192.264C76.6364 192.445 76.4647 192.612 76.2767 192.763C76.1079 192.941 75.9256 193.108 75.7312 193.262C75.3521 193.541 74.9489 193.792 74.5257 194.011C74.3239 194.116 74.1166 194.226 73.9093 194.321L73.2875 194.586C72.8729 194.766 72.4583 194.89 72.0492 195.045C70.4128 195.595 68.7763 195.994 67.309 196.543C65.8802 196.998 64.5691 197.717 63.4578 198.656C62.954 199.117 62.5325 199.648 62.2087 200.229C62.0463 200.529 61.9025 200.838 61.7778 201.153C61.6414 201.463 61.5868 201.802 61.4777 202.127C61.1996 203.519 61.1812 204.944 61.4232 206.342C61.625 207.805 61.9687 209.303 62.2141 210.876C62.5168 212.506 62.5168 214.171 62.2141 215.801C62.1214 216.215 61.9687 216.63 61.8432 217.039C61.7559 217.249 61.6632 217.464 61.5596 217.673C61.4559 217.883 61.3305 218.088 61.1832 218.283C60.6211 219.059 59.856 219.694 58.9576 220.13C57.223 220.964 55.4338 221.174 53.7591 221.389C52.1414 221.521 50.5367 221.765 48.9589 222.118C48.2584 222.298 47.5963 222.585 47.0006 222.967C46.7313 223.155 46.4942 223.379 46.2969 223.631L45.9914 224.016C45.9096 224.151 45.8496 224.295 45.7733 224.435L45.6642 224.645L45.6042 224.875C45.566 225.025 45.506 225.174 45.4787 225.334C45.4332 225.665 45.4186 226 45.4351 226.333C45.4789 227.045 45.6032 227.752 45.806 228.441C46.1933 229.884 46.7606 231.347 47.0933 232.935C47.1785 233.338 47.2386 233.745 47.2733 234.154L47.317 234.773V235.407C47.2936 235.833 47.2297 236.255 47.1261 236.671C47.0167 237.069 46.8856 237.463 46.7333 237.849C46.4322 238.672 45.9368 239.424 45.2823 240.052C44.9539 240.358 44.5878 240.627 44.1914 240.856C43.8041 241.071 43.4168 241.25 43.1004 241.43C42.4507 241.739 41.9041 242.204 41.5185 242.774C41.3325 243.035 41.2087 243.329 41.1552 243.637C41.1016 243.945 41.1194 244.26 41.2076 244.561C41.4115 245.271 41.6779 245.964 42.004 246.634C42.307 247.356 42.5585 248.095 42.7567 248.846C43.193 250.397 43.2839 252.012 43.024 253.596C42.9191 254.377 42.7569 255.151 42.5385 255.913C42.326 256.69 42.009 257.44 41.5948 258.145C41.4912 258.32 41.3548 258.49 41.2348 258.645C41.1148 258.799 40.9403 258.964 40.793 259.144C40.4546 259.46 40.0342 259.692 39.5711 259.818C39.1012 259.934 38.6044 259.922 38.1419 259.783C37.9292 259.703 37.711 259.623 37.5092 259.529L36.9637 259.189C36.8964 259.15 36.8489 259.088 36.8315 259.017C36.8141 258.946 36.8283 258.871 36.871 258.809C36.9136 258.748 36.9813 258.704 37.059 258.688C37.1368 258.672 37.2183 258.685 37.2855 258.725H37.3183L37.8201 259.004C37.9947 259.074 38.1747 259.134 38.3656 259.199C38.7059 259.289 39.0671 259.289 39.4075 259.199C40.0985 258.931 40.6469 258.425 40.9348 257.791C41.5939 256.431 41.9872 254.975 42.0967 253.491C42.3037 252.023 42.1775 250.532 41.7258 249.111C41.4889 248.396 41.1991 247.697 40.8584 247.018C40.4802 246.295 40.1699 245.543 39.9311 244.771C39.8161 244.332 39.7811 243.878 39.8275 243.428C39.8707 243.198 39.9309 242.971 40.0075 242.749C40.1005 242.535 40.208 242.326 40.3293 242.124C40.8162 241.374 41.5056 240.752 42.3313 240.316C43.0241 239.998 43.6619 239.587 44.2241 239.098C44.7265 238.598 45.0994 238 45.315 237.35C45.4385 237.012 45.5422 236.669 45.626 236.321C45.6927 235.991 45.7328 235.658 45.746 235.322V234.823L45.6914 234.294C45.6914 233.944 45.566 233.589 45.506 233.235C45.1841 231.807 44.6005 230.373 44.1532 228.845C43.9091 228.053 43.7537 227.239 43.6895 226.418C43.6616 225.982 43.6744 225.544 43.7277 225.11C43.7604 224.89 43.8313 224.67 43.8859 224.45L43.9786 224.121L44.1259 223.806C44.2295 223.596 44.3168 223.382 44.4368 223.182L44.8568 222.622C45.1478 222.247 45.4948 221.911 45.8878 221.624C46.6529 221.102 47.5112 220.707 48.4243 220.455C50.0953 220.044 51.7987 219.754 53.5191 219.586C55.1556 219.366 56.7484 219.087 57.9866 218.467C58.5733 218.175 59.0703 217.753 59.4322 217.239C59.5249 217.119 59.5849 216.974 59.6667 216.844L59.8522 216.41C59.9395 216.08 60.054 215.756 60.1249 215.411C60.3521 214.003 60.3207 212.57 60.0322 211.171C59.7867 209.703 59.4049 208.205 59.154 206.621C58.8406 204.983 58.8516 203.307 59.1867 201.672C59.3122 201.258 59.3885 200.833 59.5576 200.434C59.7132 200.025 59.8954 199.624 60.1031 199.235C60.5341 198.443 61.1014 197.72 61.7832 197.093C63.1225 195.926 64.7128 195.028 66.4526 194.456C68.089 193.857 69.7255 193.457 71.2255 192.928C72.7256 192.398 74.1002 191.794 74.8694 190.86C75.2549 190.416 75.5001 189.884 75.5785 189.322C75.6468 188.674 75.6063 188.021 75.4585 187.384C75.1748 185.976 74.673 184.443 74.4875 182.785C74.256 181.086 74.4424 179.361 75.033 177.736C75.3301 176.88 75.7839 176.076 76.3749 175.359C77.0073 174.607 77.8165 173.996 78.7423 173.571C80.586 172.722 82.4898 172.667 84.0935 172.507C84.7905 172.475 85.4783 172.347 86.1336 172.127C86.3302 172.053 86.5043 171.937 86.6409 171.788C86.7954 171.593 86.9117 171.375 86.9846 171.144C87.3783 169.755 87.6141 168.332 87.6882 166.899C87.8246 165.4 87.9664 163.837 88.1901 162.264C88.2991 161.462 88.4594 160.667 88.6701 159.882C88.8889 159.032 89.2301 158.213 89.6847 157.445C89.9478 157.005 90.2889 156.609 90.6939 156.271C91.1351 155.907 91.664 155.644 92.2376 155.502C93.2157 155.281 94.2358 155.266 95.2214 155.457C96.1019 155.62 96.9639 155.857 97.7961 156.166C98.6037 156.454 99.3908 156.787 100.153 157.165C101.666 157.896 103.107 158.745 104.462 159.702C104.525 159.747 104.566 159.812 104.576 159.884C104.586 159.956 104.565 160.029 104.516 160.087C104.475 160.137 104.416 160.172 104.349 160.187C104.283 160.202 104.213 160.194 104.151 160.167L104.118 160.162Z" fill="#575757"/>
<path d="M89.6952 160.437C89.6952 160.437 86.8751 168.182 81.453 168.382C76.0309 168.582 68.0068 172.352 68.2195 178.51C68.4323 184.668 71.6943 188.638 68.0068 190.626C64.3193 192.613 53.4696 194.201 53.0332 199.96C52.5969 205.718 54.5551 212.669 52.3841 215.052C50.2131 217.434 40.4544 217.049 36.9851 222.997C33.5158 228.945 38.9325 229.155 38.2834 235.907C37.6342 242.659 33.9195 242.659 33.0794 246.434C32.2394 250.21 34.1704 253.586 35.4632 253.781" stroke="#575757" stroke-linecap="round" stroke-linejoin="round"/>
<path d="M69.1471 233.814C69.1471 233.814 75.1474 236.072 80.8586 237.695C83.9765 238.544 87.0109 239.632 89.93 240.946C89.93 240.946 80.0677 273.093 80.0677 273.632C80.0677 274.171 76.3202 291.331 74.9401 294.942C73.56 298.553 65.6669 304.156 62.1212 305.24C58.5756 306.323 52.2589 307.042 47.1313 301.624C42.0038 296.205 40.6183 295.306 40.4219 292.055C40.2255 288.804 69.1471 233.814 69.1471 233.814Z" fill="#EB012A" stroke="#263238" stroke-linecap="round" stroke-linejoin="round"/>
<path d="M76.6534 239.897C76.6534 240.28 76.5292 240.655 76.2967 240.973C76.0641 241.292 75.7336 241.54 75.3468 241.687C74.9601 241.834 74.5345 241.872 74.124 241.797C73.7134 241.722 73.3363 241.538 73.0403 241.267C72.7443 240.996 72.5427 240.651 72.4611 240.275C72.3794 239.899 72.4213 239.509 72.5815 239.155C72.7417 238.801 73.013 238.498 73.361 238.286C73.7091 238.073 74.1183 237.959 74.5369 237.959C75.0982 237.959 75.6365 238.163 76.0335 238.527C76.4304 238.89 76.6534 239.383 76.6534 239.897Z" fill="#EB012A" stroke="#263238" stroke-linecap="round" stroke-linejoin="round"/>
<path d="M79.304 238.119L75.6001 248.457C75.6001 248.457 76.4838 250.879 75.4256 252.822C74.3673 254.764 72.0709 255.079 71.8963 256.213C71.7969 257.017 71.7969 257.83 71.8963 258.635" stroke="#263238" stroke-linecap="round" stroke-linejoin="round"/>
<path d="M76.1895 260.526L78.3823 261.246" stroke="#263238" stroke-linecap="round" stroke-linejoin="round"/>
<path d="M64.063 256.562L74.029 259.818" stroke="#263238" stroke-linecap="round" stroke-linejoin="round"/>
<path d="M313.784 77.2529C313.784 77.2529 318.274 81.8538 323.912 81.931C329.907 82.0168 336.946 77.3559 336.946 77.3559C338.548 78.5876 340.296 79.6611 342.159 80.5576C345.297 82.0769 347.363 84.3001 349.004 88.1627C350.839 92.4545 354.884 104.154 354.884 104.154L343.231 104.66L344.824 128.171H306.051L308.677 104.223H297.362C297.362 104.223 301.108 88.4117 302.817 85.3387C304.526 82.2658 313.784 77.2529 313.784 77.2529Z" fill="black" stroke="#263238" stroke-linejoin="round"/>
<path d="M324.394 92.7031L325.695 96.2618H329.904L326.499 98.4612L327.799 102.02L324.394 99.8205L320.989 102.02L322.29 98.4612L318.885 96.2618H323.094L324.394 92.7031Z" fill="#FF9500"/>
<path d="M343.173 71.905L347.73 83.5616L353.31 70.832C353.31 70.832 362.839 79.5101 365.977 81.0294C369.114 82.5487 371.963 84.5744 372.822 88.6345C373.681 92.6946 378.238 133.269 378.238 133.269L367.686 133.776L368.651 156.711H326.113L328.681 132.763H318.65C318.65 132.763 324.925 88.9092 326.634 85.8706C328.343 82.832 343.173 71.905 343.173 71.905Z" fill="#EB012A" stroke="#263238" stroke-linejoin="round"/>
<path d="M338.896 74.6947L341.454 87.1153L346.87 79.0037L343.452 70.3857L338.896 74.6947Z" fill="white" stroke="#263238" stroke-linejoin="round"/>
<path d="M353.31 70.832L348.589 79.2526L353.435 87.6216L357.423 73.6818L353.31 70.832Z" fill="white" stroke="#263238" stroke-linejoin="round"/>
<ellipse cx="347.566" cy="93.5615" rx="0.96546" ry="0.858364" fill="black"/>
<ellipse cx="347.566" cy="102.145" rx="0.96546" ry="0.858364" fill="black"/>
<ellipse cx="347.566" cy="110.728" rx="0.96546" ry="0.858364" fill="black"/>
<ellipse cx="347.566" cy="119.312" rx="0.96546" ry="0.858364" fill="black"/>
<ellipse cx="347.566" cy="127.896" rx="0.96546" ry="0.858364" fill="black"/>
<ellipse cx="347.566" cy="136.479" rx="0.96546" ry="0.858364" fill="black"/>
<ellipse cx="347.566" cy="145.063" rx="0.96546" ry="0.858364" fill="black"/>
<ellipse cx="347.566" cy="153.647" rx="0.96546" ry="0.858364" fill="black"/>
</svg>
